<?plantuml 1.2026.1?><svg xmlns="http://www.w3.org/2000/svg" xmlns:xlink="http://www.w3.org/1999/xlink" contentStyleType="text/css" data-diagram-type="DESCRIPTION" height="855px" preserveAspectRatio="none" style="width:1626px;height:855px;background:#FFFFFF;" version="1.1" viewBox="0 0 1626 855" width="1626.6667px" zoomAndPan="magnify"><title>Agentic Wikipedia &#8212; Local Architecture (No Cloud)</title><defs/><g><g class="title" data-source-line="2"><text fill="#000000" font-family="sans-serif" font-size="23.3333" font-weight="bold" lengthAdjust="spacing" textLength="607.3844" x="498.3111" y="39.2253">Agentic Wikipedia &#8212; Local Architecture (No Cloud)</text></g><!--cluster local--><g class="cluster" data-qualified-name="local" data-source-line="6" id="ent0003"><polygon fill="none" points="36.6333,89.1471,53.3,72.4805,861.6333,72.4805,861.6333,629.0305,844.9667,645.6971,36.6333,645.6971,36.6333,89.1471" style="stroke:#181818;stroke-width:1.6667;"/><line style="stroke:#181818;stroke-width:1.6667;" x1="844.9667" x2="861.6333" y1="89.1471" y2="72.4805"/><line style="stroke:#181818;stroke-width:1.6667;" x1="36.6333" x2="844.9667" y1="89.1471" y2="89.1471"/><line style="stroke:#181818;stroke-width:1.6667;" x1="844.9667" x2="844.9667" y1="89.1471" y2="645.6971"/><text fill="#000000" font-family="sans-serif" font-size="23.3333" font-weight="bold" lengthAdjust="spacing" textLength="313.3138" x="285.8098" y="116.7057">Local dev (macOS / Linux)</text></g><!--entity notebook--><g class="entity" data-qualified-name="local.notebook" data-source-line="7" id="ent0004"><rect fill="#F8FAFC" height="88.2943" rx="10" ry="10" style="stroke:#334155;stroke-width:0.8333;" width="217.5732" x="569.5167" y="523.2471"/><text fill="#0F172A" font-family="sans-serif" font-size="23.3333" lengthAdjust="spacing" textLength="184.2399" x="586.1833" y="562.4724">Notebook or CLI</text><text fill="#0F172A" font-family="sans-serif" font-size="23.3333" lengthAdjust="spacing" textLength="178.3496" x="586.1833" y="589.9529">(local workflow)</text></g><!--entity rag--><g class="entity" data-qualified-name="local.rag" data-source-line="8" id="ent0005"><rect fill="#F8FAFC" height="88.2943" rx="10" ry="10" style="stroke:#334155;stroke-width:0.8333;" width="353.5742" x="453.1833" y="139.1471"/><text fill="#0F172A" font-family="sans-serif" font-size="23.3333" lengthAdjust="spacing" textLength="145.1839" x="469.85" y="178.3724">RAG pipeline</text><text fill="#0F172A" font-family="sans-serif" font-size="23.3333" lengthAdjust="spacing" textLength="320.2409" x="469.85" y="205.8529">(chunk + retrieve + prompt)</text></g><!--entity emb--><g class="entity" data-qualified-name="local.emb" data-source-line="9" id="ent0006"><rect fill="#F8FAFC" height="88.2943" rx="10" ry="10" style="stroke:#334155;stroke-width:0.8333;" width="301.9629" x="63.9833" y="327.4471"/><text fill="#0F172A" font-family="sans-serif" font-size="23.3333" lengthAdjust="spacing" textLength="139.1569" x="80.65" y="366.6724">Embeddings</text><text fill="#0F172A" font-family="sans-serif" font-size="23.3333" lengthAdjust="spacing" textLength="268.6296" x="80.65" y="394.1529">(SentenceTransformers)</text></g><!--entity vs--><g class="entity" data-qualified-name="local.vs" data-source-line="10" id="ent0007"><path d="M194.0667,532.4138 C194.0667,515.7471 306.6415,515.7471 306.6415,515.7471 C306.6415,515.7471 419.2164,515.7471 419.2164,532.4138 L419.2164,602.3747 C419.2164,619.0414 306.6415,619.0414 306.6415,619.0414 C306.6415,619.0414 194.0667,619.0414 194.0667,602.3747 L194.0667,532.4138" fill="#EEF2FF" style="stroke:#3730A3;stroke-width:0.8333;"/><path d="M194.0667,532.4138 C194.0667,549.0805 306.6415,549.0805 306.6415,549.0805 C306.6415,549.0805 419.2164,549.0805 419.2164,532.4138" fill="none" style="stroke:#3730A3;stroke-width:0.8333;"/><text fill="#0F172A" font-family="sans-serif" font-size="23.3333" lengthAdjust="spacing" textLength="137.6986" x="210.7333" y="578.3057">Vector store</text><text fill="#0F172A" font-family="sans-serif" font-size="23.3333" lengthAdjust="spacing" textLength="191.8164" x="210.7333" y="605.7862">(Chroma / FAISS)</text></g><!--entity llm--><g class="entity" data-qualified-name="local.llm" data-source-line="11" id="ent0008"><rect fill="#F8FAFC" height="88.2943" rx="10" ry="10" style="stroke:#334155;stroke-width:0.8333;" width="285.2718" x="487.3333" y="327.4471"/><text fill="#0F172A" font-family="sans-serif" font-size="23.3333" lengthAdjust="spacing" textLength="160.4736" x="504" y="366.6724">LLM (optional)</text><text fill="#0F172A" font-family="sans-serif" font-size="23.3333" lengthAdjust="spacing" textLength="251.9385" x="504" y="394.1529">(Ollama / local model)</text></g><!--entity user--><g class="entity" data-qualified-name="user" data-source-line="4" id="ent0002"><ellipse cx="584.971" cy="733.1971" fill="#E0F2FE" rx="13.3333" ry="13.3333" style="stroke:#0369A1;stroke-width:0.8333;"/><path d="M584.971,746.5305 L584.971,791.5305 M563.3044,759.8638 L606.6377,759.8638 M584.971,791.5305 L563.3044,816.5305 M584.971,791.5305 L606.6377,816.5305" fill="none" style="stroke:#0369A1;stroke-width:0.8333;"/><text fill="#0F172A" font-family="sans-serif" font-size="23.3333" lengthAdjust="spacing" textLength="50.6087" x="559.6667" y="841.5891">User</text></g><!--entity wiki--><g class="entity" data-qualified-name="wiki" data-source-line="14" id="ent0009"><path d="M685.5328,760.7774 C690.1723,749.9898 700.2077,750.9873 706.3417,759.1349 C710.9071,747.744 720.8872,746.4399 728.6017,755.7484 C734.7202,746.2908 741.7925,745.4249 749.6569,753.6722 C756.8912,744.0371 765.999,742.7726 773.2399,753.6646 C780.963,744.3156 787.4959,746.1545 792.3839,756.4302 C799.7602,743.4426 807.239,743.5714 815.9815,755.116 C824.5264,746.3072 831.368,747.2781 836.6773,758.4648 C844.8752,748.4659 854.1633,750.1056 860.5356,760.5911 C875.1513,764.6762 876.6508,773.6271 867.0222,784.3353 C877.3022,794.7577 875.137,806.6184 859.7716,809.714 C852.8508,821.4881 845.6876,820.6018 837.7762,810.7201 C833.352,823.7297 825.6159,823.6974 816.6512,815.1749 C811.4631,826.8426 800.647,826.3756 794.7712,815.853 C789.9539,826.7029 778.8978,829.042 770.8766,819.6315 C761.4309,826.8899 754.0647,827.3511 749.6494,814.3585 C743.6964,823.6643 733.8151,822.2578 729.2087,812.8849 C722.5867,822.4023 711.3855,821.1996 706.2126,811.1794 C698.5824,820.9172 689.7043,822.037 682.9764,810.2072 C667.0729,808.0729 664.7687,795.1909 674.0903,784.3782 C664.7961,772.2662 669.6532,760.6842 685.5328,760.7774" fill="#ECFDF5" style="stroke:#065F46;stroke-width:0.8333;"/><text fill="#0F172A" font-family="sans-serif" font-size="23.3333" lengthAdjust="spacing" textLength="152.1908" x="693.8667" y="791.5891">Wikipedia API</text></g><g class="entity" data-qualified-name="GMN20" data-source-line="28" id="ent0021"><path d="M887.5833,172.1971 L887.5833,176.5138 L807.2833,183.1805 L887.5833,189.8471 L887.5833,194.3814 A10,10 0 0 0 897.5833,204.3814 L1605.6733,204.3814 A10,10 0 0 0 1615.6733,194.3814 L1615.6733,178.8638 L1599.0067,162.1971 L897.5833,162.1971 A10,10 0 0 0 887.5833,172.1971" fill="#FFFBEB" style="stroke:#B45309;stroke-width:0.8333;"/><path d="M1599.0067,162.1971 L1599.0067,173.8638 A5,5 0 0 0 1604.0067,178.8638 L1615.6733,178.8638 L1599.0067,162.1971" fill="#FFFBEB" style="stroke:#B45309;stroke-width:0.8333;"/><text fill="#92400E" font-family="sans-serif" font-size="21.6667" lengthAdjust="spacing" textLength="693.09" x="897.5833" y="191.4777">Local-only path for fast iteration.\nNo cloud credentials required.</text></g><!--link user to notebook--><g class="link" data-entity-1="ent0002" data-entity-2="ent0004" data-link-type="dependency" data-source-line="16" id="lnk10"><path d="M583.1,718.7305 C583.1,684.2638 583.1,652.5971 583.1,621.7305" fill="none" id="user-to-notebook" style="stroke:#334155;stroke-width:1.6667;"/><polygon fill="#334155" points="583.1,611.7305,576.4333,626.7305,583.1,620.0638,589.7667,626.7305,583.1,611.7305" style="stroke:#334155;stroke-width:1.6667;"/><text fill="#334155" font-family="sans-serif" font-size="21.6667" lengthAdjust="spacing" textLength="248.278" x="334.7667" y="659.5111">ask question / run cells</text></g><!--link notebook to user--><g class="link" data-entity-1="ent0004" data-entity-2="ent0002" data-link-type="dependency" data-source-line="25" id="lnk19"><path d="M596.6833,612.0138 C596.6833,642.8138 596.6833,674.2471 596.6833,708.5971" fill="none" id="notebook-to-user" style="stroke:#334155;stroke-width:1.6667;"/><polygon fill="#334155" points="596.6833,718.5971,603.35,703.5971,596.6833,710.2638,590.0167,703.5971,596.6833,718.5971" style="stroke:#334155;stroke-width:1.6667;"/><text fill="#334155" font-family="sans-serif" font-size="21.6667" lengthAdjust="spacing" textLength="194.6191" x="401.6833" y="687.9111">answer + citations</text></g><!--link notebook to wiki--><g class="link" data-entity-1="ent0004" data-entity-2="ent0009" data-link-type="dependency" data-source-line="17" id="lnk11"><path d="M708.2833,612.0138 C708.2833,650.7138 708.2833,696.1638 708.2833,733.2638" fill="none" id="notebook-to-wiki" style="stroke:#334155;stroke-width:1.6667;"/><polygon fill="#334155" points="708.2833,743.2638,714.95,728.2638,708.2833,734.9305,701.6167,728.2638,708.2833,743.2638" style="stroke:#334155;stroke-width:1.6667;"/><text fill="#334155" font-family="sans-serif" font-size="21.6667" lengthAdjust="spacing" textLength="114.2578" x="709.95" y="700.2611">load pages</text></g><!--link wiki to notebook--><g class="link" data-entity-1="ent0009" data-entity-2="ent0004" data-link-type="dependency" data-source-line="18" id="lnk12"><path d="M747.6833,743.2638 C747.6833,706.1138 747.6833,660.5471 747.6833,621.8471" fill="none" id="wiki-to-notebook" style="stroke:#334155;stroke-width:1.6667;"/><polygon fill="#334155" points="747.6833,611.8471,741.0167,626.8471,747.6833,620.1805,754.35,626.8471,747.6833,611.8471" style="stroke:#334155;stroke-width:1.6667;"/><text fill="#334155" font-family="sans-serif" font-size="21.6667" lengthAdjust="spacing" textLength="191.202" x="749.35" y="671.8444">pages + metadata</text></g><!--link notebook to rag--><g class="link" data-entity-1="ent0004" data-entity-2="ent0005" data-link-type="dependency" data-source-line="19" id="lnk13"><path d="M779.85,522.5805 C779.85,448.5638 779.85,311.6471 779.85,237.8305" fill="none" id="notebook-to-rag" style="stroke:#334155;stroke-width:1.6667;"/><polygon fill="#334155" points="779.85,227.8305,773.1833,242.8305,779.85,236.1638,786.5167,242.8305,779.85,227.8305" style="stroke:#334155;stroke-width:1.6667;"/><text fill="#334155" font-family="sans-serif" font-size="21.6667" lengthAdjust="spacing" textLength="264.6126" x="781.5167" y="369.4777">chunk + attach metadata</text></g><!--link rag to emb--><g class="link" data-entity-1="ent0005" data-entity-2="ent0006" data-link-type="dependency" data-source-line="20" id="lnk14"><path d="M464.5667,227.8971 C464.5667,283.5638 464.5667,371.5138 464.5667,371.5138 C464.5667,371.5138 428.9,371.5138 376.6333,371.5138" fill="none" id="rag-to-emb" style="stroke:#334155;stroke-width:1.6667;"/><polygon fill="#334155" points="366.6333,371.5138,381.6333,378.1805,374.9667,371.5138,381.6333,364.8471,366.6333,371.5138" style="stroke:#334155;stroke-width:1.6667;"/><text fill="#334155" font-family="sans-serif" font-size="21.6667" lengthAdjust="spacing" textLength="217.8621" x="246.2333" y="342.9611">embed docs + query</text></g><!--link emb to vs--><g class="link" data-entity-1="ent0006" data-entity-2="ent0007" data-link-type="dependency" data-source-line="21" id="lnk15"><path d="M280,416.5138 C280,445.8638 280,474.3138 280,505.0471" fill="none" id="emb-to-vs" style="stroke:#334155;stroke-width:1.6667;"/><polygon fill="#334155" points="280,515.0471,286.6667,500.0471,280,506.7138,273.3333,500.0471,280,515.0471" style="stroke:#334155;stroke-width:1.6667;"/><text fill="#334155" font-family="sans-serif" font-size="21.6667" lengthAdjust="spacing" textLength="268.1462" x="11.6667" y="460.0611">upsert / similarity_search</text></g><!--link vs to rag--><g class="link" data-entity-1="ent0007" data-entity-2="ent0005" data-link-type="dependency" data-source-line="22" id="lnk16"><path d="M420.0333,568.1805 C450.8833,568.1805 475.95,568.1805 475.95,568.1805 C475.95,568.1805 475.95,339.7305 475.95,238.1971" fill="none" id="vs-to-rag" style="stroke:#334155;stroke-width:1.6667;"/><polygon fill="#334155" points="475.95,228.1971,469.2833,243.1971,475.95,236.5305,482.6167,243.1971,475.95,228.1971" style="stroke:#334155;stroke-width:1.6667;"/><text fill="#334155" font-family="sans-serif" font-size="21.6667" lengthAdjust="spacing" textLength="142.251" x="332.6167" y="448.7611">top-k chunks</text></g><!--link rag to llm--><g class="link" data-entity-1="ent0005" data-entity-2="ent0008" data-link-type="dependency" data-source-line="23" id="lnk17"><path d="M629.9667,227.9138 C629.9667,257.7138 629.9667,286.7638 629.9667,316.6305" fill="none" id="rag-to-llm" style="stroke:#334155;stroke-width:1.6667;"/><polygon fill="#334155" points="629.9667,326.6305,636.6333,311.6305,629.9667,318.2971,623.3,311.6305,629.9667,326.6305" style="stroke:#334155;stroke-width:1.6667;"/><text fill="#334155" font-family="sans-serif" font-size="21.6667" lengthAdjust="spacing" textLength="289.2733" x="631.6333" y="299.8944">prompt(question + chunks)</text><text fill="#334155" font-family="sans-serif" font-size="21.6667" lengthAdjust="spacing" textLength="204.7648" x="631.6333" y="325.412">(optional local LLM)</text></g><!--link llm to notebook--><g class="link" data-entity-1="ent0008" data-entity-2="ent0004" data-link-type="dependency" data-source-line="24" id="lnk18"><path d="M671.05,416.5138 C671.05,448.3471 671.05,480.8805 671.05,512.6805" fill="none" id="llm-to-notebook" style="stroke:#334155;stroke-width:1.6667;"/><polygon fill="#334155" points="671.05,522.6805,677.7167,507.6805,671.05,514.3471,664.3833,507.6805,671.05,522.6805" style="stroke:#334155;stroke-width:1.6667;"/><text fill="#334155" font-family="sans-serif" font-size="21.6667" lengthAdjust="spacing" textLength="131.4811" x="539.3833" y="463.8777">draft answer</text></g><?plantuml-src NLFBRXin3BphArYVR0HsxpaKC8AsCE0cHTt79K10I_Iki7fi9AvTeoZGZ-WNzajAQHqRpcMX5MU6v91wOuDsWo5uqj7x61Rzu9rYouvWsL1Wg-67xMnFnYBy-_CNrb6ZWsNIhMNIF2I2wNs4EnS7CrCADSS4as-PqWGmmo07fKAK59EHQcWFKu_wOGDlOMt3y7DMaQv6Voc09BeO6YbXSX-PjZ5s8A9twzLZc8wmGqpTpiN3I0qdr3Nto_8Zz5Aviu64gDiXT70Z24wMzYJ7FaNVywYHiBccl_TRCiQ69Wjv8rPGqFGrOSYxc3obFFB8RuLda76BMMZVgJgGvLEothMI0wNJ3ylLPZDIzlawqthz2QQnPni3kfcG7fp3IXgRzUAUEvdalFgjb2vkm-GocUNdLOqVv4QfOZhCv-_Eni2j13ju7YYNBAASXW2QdClgZ2c4mXUmYsYWnuQogZUlj6f4_FF4M3g_rX0d1VDYDpAZRY_G4YqeyKrGL4m64tMHa_BIKPL00Uopn8TUMc6fDrjl7IRBnwTCADkd97x9nh6VTsFEV4uXPfLYwv2dvzvlJh1Yz8lf9wDb43DLMA_wDGbt33BvWoppLQ_LwTjJg4XRnYAPLSL1iatB47TrlUh-psDmHt6GMv0zWXrc1db9gT8MZq7UqZXTdSYK1uXEbfEU1ol_2qN1rChKVm00?></g></svg>