<?plantuml 1.2026.1?><svg xmlns="http://www.w3.org/2000/svg" xmlns:xlink="http://www.w3.org/1999/xlink" contentStyleType="text/css" data-diagram-type="CLASS" height="896.6667px" preserveAspectRatio="none" style="width:1410px;height:896px;background:#FFFFFF;" version="1.1" viewBox="0 0 1410 896" width="1410px" zoomAndPan="magnify"><title>Roadside Geology &#8212; Output Contract (Guide + StopCard)</title><defs/><g><g class="title" data-source-line="2"><text fill="#000000" font-family="sans-serif" font-size="23.3333" font-weight="bold" lengthAdjust="spacing" textLength="686.3053" x="350.2853" y="39.2253">Roadside Geology &#8212; Output Contract (Guide + StopCard)</text></g><!--class Guide--><g class="entity" data-qualified-name="Guide" data-source-line="6" id="ent0002"><rect fill="#F8FAFC" height="176.5885" rx="10" ry="10" style="stroke:#334155;stroke-width:0.8333;" width="419.4694" x="216.15" y="74.1471"/><ellipse cx="385.9148" cy="100.8138" fill="#ADD1B2" rx="18.3333" ry="18.3333" style="stroke:#181818;stroke-width:1.6667;"/><path d="M390.0367,111.0522 Q389.0683,111.5503 388.003,111.7993 Q386.9378,112.0483 385.7618,112.0483 Q381.5838,112.0483 379.384,109.2952 Q377.1843,106.5422 377.1843,101.3403 Q377.1843,96.1247 379.384,93.3716 Q381.5838,90.6185 385.7618,90.6185 Q386.9378,90.6185 388.0169,90.8675 Q389.096,91.1165 390.0367,91.6146 L390.0367,96.1523 Q388.9853,95.1839 387.9961,94.7343 Q387.0069,94.2847 385.9555,94.2847 Q383.7143,94.2847 382.5729,96.0624 Q381.4316,97.8402 381.4316,101.3403 Q381.4316,104.8267 382.5729,106.6044 Q383.7143,108.3822 385.9555,108.3822 Q387.0069,108.3822 387.9961,107.9325 Q388.9853,107.4829 390.0367,106.5145 Z " fill="#000000"/><text fill="#0F172A" font-family="sans-serif" font-size="23.3333" lengthAdjust="spacing" textLength="65.7731" x="420.0815" y="109.6322">Guide</text><line style="stroke:#334155;stroke-width:0.8333;" x1="217.8167" x2="633.9527" y1="127.4805" y2="127.4805"/><text fill="#000000" font-family="sans-serif" font-size="23.3333" lengthAdjust="spacing" textLength="194.8584" x="226.15" y="156.7057">route: RouteMeta</text><text fill="#000000" font-family="sans-serif" font-size="23.3333" lengthAdjust="spacing" textLength="399.4694" x="226.15" y="184.1862">generated_at: ISO-8601 timestamp</text><text fill="#000000" font-family="sans-serif" font-size="23.3333" lengthAdjust="spacing" textLength="203.9502" x="226.15" y="211.6667">config: RunConfig</text><text fill="#000000" font-family="sans-serif" font-size="23.3333" lengthAdjust="spacing" textLength="206.2972" x="226.15" y="239.1471">stops: StopCard[*]</text></g><!--class RouteMeta--><g class="entity" data-qualified-name="RouteMeta" data-source-line="13" id="ent0003"><rect fill="#F8FAFC" height="121.6276" rx="10" ry="10" style="stroke:#334155;stroke-width:0.8333;" width="205.1058" x="11.6667" y="446.9138"/><ellipse cx="50.9621" cy="473.5805" fill="#ADD1B2" rx="18.3333" ry="18.3333" style="stroke:#181818;stroke-width:1.6667;"/><path d="M55.084,483.8189 Q54.1156,484.317 53.0503,484.566 Q51.985,484.815 50.8091,484.815 Q46.631,484.815 44.4313,482.0619 Q42.2316,479.3088 42.2316,474.107 Q42.2316,468.8913 44.4313,466.1382 Q46.631,463.3852 50.8091,463.3852 Q51.985,463.3852 53.0641,463.6342 Q54.1432,463.8832 55.084,464.3812 L55.084,468.919 Q54.0326,467.9506 53.0434,467.501 Q52.0542,467.0513 51.0028,467.0513 Q48.7616,467.0513 47.6202,468.8291 Q46.4788,470.6068 46.4788,474.107 Q46.4788,477.5933 47.6202,479.3711 Q48.7616,481.1488 51.0028,481.1488 Q52.0542,481.1488 53.0434,480.6992 Q54.0326,480.2496 55.084,479.2812 Z " fill="#000000"/><text fill="#0F172A" font-family="sans-serif" font-size="23.3333" lengthAdjust="spacing" textLength="120.0049" x="77.4722" y="482.3988">RouteMeta</text><line style="stroke:#334155;stroke-width:0.8333;" x1="13.3333" x2="215.1058" y1="500.2471" y2="500.2471"/><text fill="#000000" font-family="sans-serif" font-size="23.3333" lengthAdjust="spacing" textLength="177.9964" x="21.6667" y="529.4724">num_points: int</text><text fill="#000000" font-family="sans-serif" font-size="23.3333" lengthAdjust="spacing" textLength="185.1058" x="21.6667" y="556.9529">length_km: float</text></g><!--class RunConfig--><g class="entity" data-qualified-name="RunConfig" data-source-line="19" id="ent0004"><rect fill="#F8FAFC" height="231.5495" rx="10" ry="10" style="stroke:#334155;stroke-width:0.8333;" width="301.3444" x="275.2167" y="391.9471"/><ellipse cx="359.5323" cy="418.6138" fill="#ADD1B2" rx="18.3333" ry="18.3333" style="stroke:#181818;stroke-width:1.6667;"/><path d="M363.6542,428.8522 Q362.6857,429.3503 361.6205,429.5993 Q360.5552,429.8483 359.3793,429.8483 Q355.2012,429.8483 353.0015,427.0952 Q350.8018,424.3422 350.8018,419.1403 Q350.8018,413.9247 353.0015,411.1716 Q355.2012,408.4185 359.3793,408.4185 Q360.5552,408.4185 361.6343,408.6675 Q362.7134,408.9165 363.6542,409.4146 L363.6542,413.9523 Q362.6027,412.9839 361.6136,412.5343 Q360.6244,412.0847 359.5729,412.0847 Q357.3317,412.0847 356.1904,413.8624 Q355.049,415.6402 355.049,419.1403 Q355.049,422.6267 356.1904,424.4044 Q357.3317,426.1822 359.5729,426.1822 Q360.6244,426.1822 361.6136,425.7325 Q362.6027,425.2829 363.6542,424.3145 Z " fill="#000000"/><text fill="#0F172A" font-family="sans-serif" font-size="23.3333" lengthAdjust="spacing" textLength="118.5465" x="393.6989" y="427.4322">RunConfig</text><line style="stroke:#334155;stroke-width:0.8333;" x1="276.8833" x2="574.8944" y1="445.2805" y2="445.2805"/><text fill="#000000" font-family="sans-serif" font-size="23.3333" lengthAdjust="spacing" textLength="230.6445" x="285.2167" y="474.5057">sample_every_m: int</text><text fill="#000000" font-family="sans-serif" font-size="23.3333" lengthAdjust="spacing" textLength="275.7161" x="285.2167" y="501.9862">geosearch_radius_m: int</text><text fill="#000000" font-family="sans-serif" font-size="23.3333" lengthAdjust="spacing" textLength="222.7718" x="285.2167" y="529.4667">geosearch_limit: int</text><text fill="#000000" font-family="sans-serif" font-size="23.3333" lengthAdjust="spacing" textLength="166.8994" x="285.2167" y="556.9471">max_stops: int</text><text fill="#000000" font-family="sans-serif" font-size="23.3333" lengthAdjust="spacing" textLength="281.3444" x="285.2167" y="584.4276">min_stop_spacing_m: int</text><text fill="#000000" font-family="sans-serif" font-size="23.3333" lengthAdjust="spacing" textLength="184.2855" x="285.2167" y="611.9081">language: string</text></g><!--class StopCard--><g class="entity" data-qualified-name="StopCard" data-source-line="28" id="ent0005"><rect fill="#F8FAFC" height="313.9909" rx="10" ry="10" style="stroke:#334155;stroke-width:0.8333;" width="320.7699" x="635.5" y="350.7305"/><ellipse cx="737.0137" cy="377.3971" fill="#ADD1B2" rx="18.3333" ry="18.3333" style="stroke:#181818;stroke-width:1.6667;"/><path d="M741.1356,387.6356 Q740.1672,388.1336 739.1019,388.3826 Q738.0366,388.6317 736.8607,388.6317 Q732.6826,388.6317 730.4829,385.8786 Q728.2832,383.1255 728.2832,377.9237 Q728.2832,372.708 730.4829,369.9549 Q732.6826,367.2018 736.8607,367.2018 Q738.0366,367.2018 739.1157,367.4508 Q740.1948,367.6999 741.1356,368.1979 L741.1356,372.7357 Q740.0841,371.7673 739.095,371.3176 Q738.1058,370.868 737.0544,370.868 Q734.8132,370.868 733.6718,372.6458 Q732.5304,374.4235 732.5304,377.9237 Q732.5304,381.41 733.6718,383.1877 Q734.8132,384.9655 737.0544,384.9655 Q738.1058,384.9655 739.095,384.5159 Q740.0841,384.0662 741.1356,383.0978 Z " fill="#000000"/><text fill="#0F172A" font-family="sans-serif" font-size="23.3333" lengthAdjust="spacing" textLength="103.5758" x="771.1803" y="386.2155">StopCard</text><line style="stroke:#334155;stroke-width:0.8333;" x1="637.1667" x2="954.6032" y1="404.0638" y2="404.0638"/><text fill="#000000" font-family="sans-serif" font-size="23.3333" lengthAdjust="spacing" textLength="163.4473" x="645.5" y="433.2891">stop_id: string</text><text fill="#000000" font-family="sans-serif" font-size="23.3333" lengthAdjust="spacing" textLength="173.2113" x="645.5" y="460.7695">route_km: float</text><text fill="#000000" font-family="sans-serif" font-size="23.3333" lengthAdjust="spacing" textLength="160.7813" x="645.5" y="488.25">center: LatLon</text><text fill="#000000" font-family="sans-serif" font-size="23.3333" lengthAdjust="spacing" textLength="124.6533" x="645.5" y="515.7305">title: string</text><text fill="#000000" font-family="sans-serif" font-size="23.3333" lengthAdjust="spacing" textLength="186.6667" x="645.5" y="543.2109">why_stop: string</text><text fill="#000000" font-family="sans-serif" font-size="23.3333" lengthAdjust="spacing" textLength="300.7699" x="645.5" y="570.6914">what_to_look_for: string[*]</text><text fill="#000000" font-family="sans-serif" font-size="23.3333" lengthAdjust="spacing" textLength="211.6634" x="645.5" y="598.1719">key_facts: string[*]</text><text fill="#000000" font-family="sans-serif" font-size="23.3333" lengthAdjust="spacing" textLength="281.014" x="645.5" y="625.6523">photo_prompts: string[*]</text><text fill="#000000" font-family="sans-serif" font-size="23.3333" lengthAdjust="spacing" textLength="226.4632" x="645.5" y="653.1328">citations: Citation[*]</text></g><!--class LatLon--><g class="entity" data-qualified-name="LatLon" data-source-line="41" id="ent0006"><rect fill="#F8FAFC" height="121.6276" rx="10" ry="10" style="stroke:#334155;stroke-width:0.8333;" width="128.6426" x="1269.9" y="764.7138"/><ellipse cx="1294.9" cy="791.3805" fill="#ADD1B2" rx="18.3333" ry="18.3333" style="stroke:#181818;stroke-width:1.6667;"/><path d="M1299.0219,801.6189 Q1298.0535,802.117 1296.9882,802.366 Q1295.9229,802.615 1294.747,802.615 Q1290.5689,802.615 1288.3692,799.8619 Q1286.1695,797.1088 1286.1695,791.907 Q1286.1695,786.6913 1288.3692,783.9382 Q1290.5689,781.1852 1294.747,781.1852 Q1295.9229,781.1852 1297.0021,781.4342 Q1298.0812,781.6832 1299.0219,782.1813 L1299.0219,786.719 Q1297.9705,785.7506 1296.9813,785.301 Q1295.9921,784.8513 1294.9407,784.8513 Q1292.6995,784.8513 1291.5581,786.6291 Q1290.4168,788.4068 1290.4168,791.907 Q1290.4168,795.3933 1291.5581,797.1711 Q1292.6995,798.9488 1294.9407,798.9488 Q1295.9921,798.9488 1296.9813,798.4992 Q1297.9705,798.0496 1299.0219,797.0812 Z " fill="#000000"/><text fill="#0F172A" font-family="sans-serif" font-size="23.3333" lengthAdjust="spacing" textLength="75.3092" x="1318.2333" y="800.1988">LatLon</text><line style="stroke:#334155;stroke-width:0.8333;" x1="1271.5667" x2="1396.8759" y1="818.0471" y2="818.0471"/><text fill="#000000" font-family="sans-serif" font-size="23.3333" lengthAdjust="spacing" textLength="94.3929" x="1279.9" y="847.2724">lat: float</text><text fill="#000000" font-family="sans-serif" font-size="23.3333" lengthAdjust="spacing" textLength="101.5934" x="1279.9" y="874.7529">lon: float</text></g><!--class Citation--><g class="entity" data-qualified-name="Citation" data-source-line="46" id="ent0007"><rect fill="#F8FAFC" height="121.6276" rx="10" ry="10" style="stroke:#334155;stroke-width:0.8333;" width="144.6533" x="183.5667" y="764.7138"/><ellipse cx="209.7063" cy="791.3805" fill="#ADD1B2" rx="18.3333" ry="18.3333" style="stroke:#181818;stroke-width:1.6667;"/><path d="M213.8282,801.6189 Q212.8598,802.117 211.7945,802.366 Q210.7293,802.615 209.5533,802.615 Q205.3753,802.615 203.1756,799.8619 Q200.9758,797.1088 200.9758,791.907 Q200.9758,786.6913 203.1756,783.9382 Q205.3753,781.1852 209.5533,781.1852 Q210.7293,781.1852 211.8084,781.4342 Q212.8875,781.6832 213.8282,782.1813 L213.8282,786.719 Q212.7768,785.7506 211.7876,785.301 Q210.7984,784.8513 209.747,784.8513 Q207.5058,784.8513 206.3644,786.6291 Q205.2231,788.4068 205.2231,791.907 Q205.2231,795.3933 206.3644,797.1711 Q207.5058,798.9488 209.747,798.9488 Q210.7984,798.9488 211.7876,798.4992 Q212.7768,798.0496 213.8282,797.0812 Z " fill="#000000"/><text fill="#0F172A" font-family="sans-serif" font-size="23.3333" lengthAdjust="spacing" textLength="88.7874" x="233.2929" y="800.1988">Citation</text><line style="stroke:#334155;stroke-width:0.8333;" x1="185.2333" x2="326.5533" y1="818.0471" y2="818.0471"/><text fill="#000000" font-family="sans-serif" font-size="23.3333" lengthAdjust="spacing" textLength="124.6533" x="193.5667" y="847.2724">title: string</text><text fill="#000000" font-family="sans-serif" font-size="23.3333" lengthAdjust="spacing" textLength="121.2695" x="193.5667" y="874.7529">pageid: int</text></g><g class="entity" data-qualified-name="GMN13" data-source-line="59" id="ent0014"><path d="M386.2,814.4471 L386.2,819.6805 L328.6,826.3471 L386.2,833.0138 L386.2,836.6314 A10,10 0 0 0 396.2,846.6314 L1202.2343,846.6314 A10,10 0 0 0 1212.2343,836.6314 L1212.2343,821.1138 L1195.5677,804.4471 L396.2,804.4471 A10,10 0 0 0 386.2,814.4471" fill="#FFFBEB" style="stroke:#B45309;stroke-width:0.8333;"/><path d="M1195.5677,804.4471 L1195.5677,816.1138 A5,5 0 0 0 1200.5677,821.1138 L1212.2343,821.1138 L1195.5677,804.4471" fill="#FFFBEB" style="stroke:#B45309;stroke-width:0.8333;"/><text fill="#92400E" font-family="sans-serif" font-size="21.6667" lengthAdjust="spacing" textLength="791.0343" x="396.2" y="833.7277">v0 rule: citations are Wikipedia URLs only.\n(If insufficient sources: say so.)</text></g><!--reverse link Guide to RouteMeta--><g class="link" data-entity-1="ent0002" data-entity-2="ent0003" data-link-type="composition" data-source-line="52" id="lnk8"><path codeLine="52" d="M246,271.4305 C246,373.8305 246,508.0138 246,508.0138 C246,508.0138 234.0667,508.0138 217.4,508.0138" fill="none" id="Guide-backto-RouteMeta" style="stroke:#334155;stroke-width:1.6667;"/><polygon fill="#334155" points="246,251.4305,239.3333,261.4305,246,271.4305,252.6667,261.4305,246,251.4305" style="stroke:#334155;stroke-width:1.6667;"/></g><!--reverse link Guide to RunConfig--><g class="link" data-entity-1="ent0002" data-entity-2="ent0004" data-link-type="composition" data-source-line="53" id="lnk9"><path codeLine="53" d="M425.8833,271.3471 C425.8833,314.1138 425.8833,345.9138 425.8833,391.7305" fill="none" id="Guide-backto-RunConfig" style="stroke:#334155;stroke-width:1.6667;"/><polygon fill="#334155" points="425.8833,251.3471,419.2167,261.3471,425.8833,271.3471,432.55,261.3471,425.8833,251.3471" style="stroke:#334155;stroke-width:1.6667;"/></g><!--reverse link Guide to StopCard--><g class="link" data-entity-1="ent0002" data-entity-2="ent0005" data-link-type="composition" data-source-line="54" id="lnk10"><path codeLine="54" d="M606.0333,271.0305 C606.0333,327.9638 606.0333,371.3471 606.0333,371.3471 C606.0333,371.3471 617.5333,371.3471 634.8667,371.3471" fill="none" id="Guide-backto-StopCard" style="stroke:#334155;stroke-width:1.6667;"/><polygon fill="#334155" points="606.0333,251.0305,599.3667,261.0305,606.0333,271.0305,612.7,261.0305,606.0333,251.0305" style="stroke:#334155;stroke-width:1.6667;"/><text fill="#334155" font-family="sans-serif" font-size="21.6667" lengthAdjust="spacing" textLength="54.812" x="567.2203" y="355.9157">5..12</text></g><!--reverse link StopCard to LatLon--><g class="link" data-entity-1="ent0005" data-entity-2="ent0006" data-link-type="composition" data-source-line="55" id="lnk11"><path codeLine="55" d="M795.8833,684.8138 C795.8833,747.3305 795.8833,784.6805 795.8833,784.6805 C795.8833,784.6805 1126.1,784.6805 1269.2833,784.6805" fill="none" id="StopCard-backto-LatLon" style="stroke:#334155;stroke-width:1.6667;"/><polygon fill="#334155" points="795.8833,664.8138,789.2167,674.8138,795.8833,684.8138,802.55,674.8138,795.8833,664.8138" style="stroke:#334155;stroke-width:1.6667;"/></g><!--reverse link StopCard to Citation--><g class="link" data-entity-1="ent0005" data-entity-2="ent0007" data-link-type="composition" data-source-line="56" id="lnk12"><path codeLine="56" d="M614.7667,644.6805 C470.55,644.6805 301.7167,644.6805 301.7167,644.6805 C301.7167,644.6805 301.7167,711.8305 301.7167,764.2971" fill="none" id="StopCard-backto-Citation" style="stroke:#334155;stroke-width:1.6667;"/><polygon fill="#334155" points="634.7667,644.6805,624.7667,638.0138,614.7667,644.6805,624.7667,651.3471,634.7667,644.6805" style="stroke:#334155;stroke-width:1.6667;"/><text fill="#334155" font-family="sans-serif" font-size="21.6667" lengthAdjust="spacing" textLength="37.8532" x="270.2279" y="746.6981">1..*</text></g><?plantuml-src RLBBYjj04BphApe-sHiix432ugiFouB3mYuXXoGCWzII1izCYvcUtPWGo4Va2_CbwP4jsTxaeaVriwhwZV6LJJM2giWvycMVd2tOi4Lu95r78x4x94lj0Vxy-WqFYVl4i2NFGLSCyxkKKzx24rE_rQ5U54MN4OVSKHsBeh8wHZYc_IW00YN6ZNINrqTaBL2B7eDch9Nc3Tm_FInlFwpMmCPXPErwIQd8DwQLikItmwTWKKR6pJJvoystukSuRse_pFJQoSZ8mVWMvjIp8Q_j8aUIKpqPpz98de9Oz2rtQkysq5ZIVD5pd3tqZBAOHONF60xAZTKjKaGTgau5NPiK_nUnnXaUOQU_gnEH4s3y0AZOwqhsFNUmshT9jnEJysQZ1CV5Sh6ffwoJv1UCH4xqZ643EyqxyW8Cbb-Kl7I7OOihIBDYKfPehneAOoZh3h37Wsha8k8rt7Sa9NqWrxyE3PRMw2iyxGNpLLckiokLOPqzaehjwVFAtUFQ0rkRJsQaPSd_uzhOOCX-JJC5UxwB5xCtFTP6bnJQl4OlOcSXi_pIxtZ3DylbnV5UODDbdh7PUo7qRZRvKqn6vUX9_2jijYxBczcqT55uOeHWsew1cZF-l8AGCfL9Aj01uVD80JuzxYAGjuVogv_VDy8XfgOnbH7d8L8A5MO_z45-oaM1leOyglWB?></g></svg>