<?plantuml 1.2026.1?><svg xmlns="http://www.w3.org/2000/svg" xmlns:xlink="http://www.w3.org/1999/xlink" contentStyleType="text/css" data-diagram-type="CLASS" height="538.3333px" preserveAspectRatio="none" style="width:1650px;height:538px;background:#FFFFFF;" version="1.1" viewBox="0 0 1650 538" width="1650px" zoomAndPan="magnify"><title>Camera Classification &#8212; Output Contract (Structured JSON)</title><defs/><g><g class="title" data-source-line="2"><text fill="#000000" font-family="sans-serif" font-size="23.3333" font-weight="bold" lengthAdjust="spacing" textLength="712.9313" x="457.1676" y="39.2253">Camera Classification &#8212; Output Contract (Structured JSON)</text></g><!--class VisionResult--><g class="entity" data-qualified-name="VisionResult" data-source-line="6" id="ent0002"><rect fill="#F8FAFC" height="204.069" rx="10" ry="10" style="stroke:#334155;stroke-width:0.8333;" width="314.9707" x="300.6667" y="74.1471"/><ellipse cx="381.5415" cy="100.8138" fill="#ADD1B2" rx="18.3333" ry="18.3333" style="stroke:#181818;stroke-width:1.6667;"/><path d="M385.6634,111.0522 Q384.695,111.5503 383.6297,111.7993 Q382.5645,112.0483 381.3885,112.0483 Q377.2104,112.0483 375.0107,109.2952 Q372.811,106.5422 372.811,101.3403 Q372.811,96.1247 375.0107,93.3716 Q377.2104,90.6185 381.3885,90.6185 Q382.5645,90.6185 383.6436,90.8675 Q384.7227,91.1165 385.6634,91.6146 L385.6634,96.1523 Q384.612,95.1839 383.6228,94.7343 Q382.6336,94.2847 381.5822,94.2847 Q379.341,94.2847 378.1996,96.0624 Q377.0583,97.8402 377.0583,101.3403 Q377.0583,104.8267 378.1996,106.6044 Q379.341,108.3822 381.5822,108.3822 Q382.6336,108.3822 383.6228,107.9325 Q384.612,107.4829 385.6634,106.5145 Z " fill="#000000"/><text fill="#0F172A" font-family="sans-serif" font-size="23.3333" lengthAdjust="spacing" textLength="139.0544" x="415.7082" y="109.6322">VisionResult</text><line style="stroke:#334155;stroke-width:0.8333;" x1="302.3333" x2="613.9707" y1="127.4805" y2="127.4805"/><text fill="#000000" font-family="sans-serif" font-size="23.3333" lengthAdjust="spacing" textLength="162.7865" x="310.6667" y="156.7057">version: string</text><text fill="#000000" font-family="sans-serif" font-size="23.3333" lengthAdjust="spacing" textLength="294.9707" x="310.6667" y="184.1862">hypotheses: Hypothesis[*]</text><text fill="#000000" font-family="sans-serif" font-size="23.3333" lengthAdjust="spacing" textLength="217.4512" x="310.6667" y="211.6667">features: Feature[*]</text><text fill="#000000" font-family="sans-serif" font-size="23.3333" lengthAdjust="spacing" textLength="227.8076" x="310.6667" y="239.1471">follow_up: FollowUp</text><text fill="#000000" font-family="sans-serif" font-size="23.3333" lengthAdjust="spacing" textLength="248.5091" x="310.6667" y="266.6276">safety_notes: string[*]</text></g><!--class Hypothesis--><g class="entity" data-qualified-name="Hypothesis" data-source-line="14" id="ent0003"><rect fill="#F8FAFC" height="149.1081" rx="10" ry="10" style="stroke:#334155;stroke-width:0.8333;" width="302.9736" x="11.6667" y="378.2305"/><ellipse cx="93.5213" cy="404.8971" fill="#ADD1B2" rx="18.3333" ry="18.3333" style="stroke:#181818;stroke-width:1.6667;"/><path d="M97.6432,415.1356 Q96.6748,415.6336 95.6095,415.8826 Q94.5443,416.1317 93.3683,416.1317 Q89.1903,416.1317 86.9906,413.3786 Q84.7909,410.6255 84.7909,405.4237 Q84.7909,400.208 86.9906,397.4549 Q89.1903,394.7018 93.3683,394.7018 Q94.5443,394.7018 95.6234,394.9508 Q96.7025,395.1999 97.6432,395.6979 L97.6432,400.2357 Q96.5918,399.2673 95.6026,398.8176 Q94.6134,398.368 93.562,398.368 Q91.3208,398.368 90.1794,400.1458 Q89.0381,401.9235 89.0381,405.4237 Q89.0381,408.91 90.1794,410.6877 Q91.3208,412.4655 93.562,412.4655 Q94.6134,412.4655 95.6026,412.0159 Q96.5918,411.5662 97.6432,410.5978 Z " fill="#000000"/><text fill="#0F172A" font-family="sans-serif" font-size="23.3333" lengthAdjust="spacing" textLength="125.0977" x="127.688" y="413.7155">Hypothesis</text><line style="stroke:#334155;stroke-width:0.8333;" x1="13.3333" x2="312.9736" y1="431.5638" y2="431.5638"/><text fill="#000000" font-family="sans-serif" font-size="23.3333" lengthAdjust="spacing" textLength="134.7705" x="21.6667" y="460.7891">label: string</text><text fill="#000000" font-family="sans-serif" font-size="23.3333" lengthAdjust="spacing" textLength="151.7806" x="21.6667" y="488.2695">why: string[*]</text><text fill="#000000" font-family="sans-serif" font-size="23.3333" lengthAdjust="spacing" textLength="282.9736" x="21.6667" y="515.75">disambiguators: string[*]</text></g><!--class Feature--><g class="entity" data-qualified-name="Feature" data-source-line="21" id="ent0004"><rect fill="#F8FAFC" height="121.6276" rx="10" ry="10" style="stroke:#334155;stroke-width:0.8333;" width="171.7806" x="372.2667" y="391.9638"/><ellipse cx="412.7003" cy="418.6305" fill="#ADD1B2" rx="18.3333" ry="18.3333" style="stroke:#181818;stroke-width:1.6667;"/><path d="M416.8222,428.8689 Q415.8537,429.367 414.7885,429.616 Q413.7232,429.865 412.5473,429.865 Q408.3692,429.865 406.1695,427.1119 Q403.9698,424.3588 403.9698,419.157 Q403.9698,413.9413 406.1695,411.1882 Q408.3692,408.4352 412.5473,408.4352 Q413.7232,408.4352 414.8023,408.6842 Q415.8814,408.9332 416.8222,409.4313 L416.8222,413.969 Q415.7707,413.0006 414.7816,412.551 Q413.7924,412.1013 412.741,412.1013 Q410.4997,412.1013 409.3584,413.8791 Q408.217,415.6568 408.217,419.157 Q408.217,422.6433 409.3584,424.4211 Q410.4997,426.1988 412.741,426.1988 Q413.7924,426.1988 414.7816,425.7492 Q415.7707,425.2996 416.8222,424.3312 Z " fill="#000000"/><text fill="#0F172A" font-family="sans-serif" font-size="23.3333" lengthAdjust="spacing" textLength="84.1504" x="439.4633" y="427.4488">Feature</text><line style="stroke:#334155;stroke-width:0.8333;" x1="373.9333" x2="542.3806" y1="445.2971" y2="445.2971"/><text fill="#000000" font-family="sans-serif" font-size="23.3333" lengthAdjust="spacing" textLength="134.7705" x="382.2667" y="474.5224">label: string</text><text fill="#000000" font-family="sans-serif" font-size="23.3333" lengthAdjust="spacing" textLength="151.7806" x="382.2667" y="502.0029">why: string[*]</text></g><!--class FollowUp--><g class="entity" data-qualified-name="FollowUp" data-source-line="27" id="ent0005"><rect fill="#F8FAFC" height="121.6276" rx="10" ry="10" style="stroke:#334155;stroke-width:0.8333;" width="302.5863" x="601.8667" y="391.9638"/><ellipse cx="694.3284" cy="418.6305" fill="#ADD1B2" rx="18.3333" ry="18.3333" style="stroke:#181818;stroke-width:1.6667;"/><path d="M698.4503,428.8689 Q697.4819,429.367 696.4166,429.616 Q695.3514,429.865 694.1754,429.865 Q689.9974,429.865 687.7977,427.1119 Q685.5979,424.3588 685.5979,419.157 Q685.5979,413.9413 687.7977,411.1882 Q689.9974,408.4352 694.1754,408.4352 Q695.3514,408.4352 696.4305,408.6842 Q697.5096,408.9332 698.4503,409.4313 L698.4503,413.969 Q697.3989,413.0006 696.4097,412.551 Q695.4205,412.1013 694.3691,412.1013 Q692.1279,412.1013 690.9865,413.8791 Q689.8452,415.6568 689.8452,419.157 Q689.8452,422.6433 690.9865,424.4211 Q692.1279,426.1988 694.3691,426.1988 Q695.4205,426.1988 696.4097,425.7492 Q697.3989,425.2996 698.4503,424.3312 Z " fill="#000000"/><text fill="#0F172A" font-family="sans-serif" font-size="23.3333" lengthAdjust="spacing" textLength="103.4961" x="728.4951" y="427.4488">FollowUp</text><line style="stroke:#334155;stroke-width:0.8333;" x1="603.5333" x2="902.7863" y1="445.2971" y2="445.2971"/><text fill="#000000" font-family="sans-serif" font-size="23.3333" lengthAdjust="spacing" textLength="217.3714" x="611.8667" y="474.5224">questions: string[*]</text><text fill="#000000" font-family="sans-serif" font-size="23.3333" lengthAdjust="spacing" textLength="282.5863" x="611.8667" y="502.0029">photo_requests: string[*]</text></g><g class="entity" data-qualified-name="GMN9" data-source-line="37" id="ent0010"><path d="M674.0333,165.0971 L674.0333,168.9971 L616.1833,175.6638 L674.0333,182.3305 L674.0333,187.2814 A10,10 0 0 0 684.0333,197.2814 L1628.9332,197.2814 A10,10 0 0 0 1638.9332,187.2814 L1638.9332,171.7638 L1622.2666,155.0971 L684.0333,155.0971 A10,10 0 0 0 674.0333,165.0971" fill="#FFFBEB" style="stroke:#B45309;stroke-width:0.8333;"/><path d="M1622.2666,155.0971 L1622.2666,166.7638 A5,5 0 0 0 1627.2666,171.7638 L1638.9332,171.7638 L1622.2666,155.0971" fill="#FFFBEB" style="stroke:#B45309;stroke-width:0.8333;"/><text fill="#92400E" font-family="sans-serif" font-size="21.6667" lengthAdjust="spacing" textLength="929.8999" x="684.0333" y="184.3777">Keep narration separate from the contract.\nConfidence should be calibrated, not vibes.</text></g><!--reverse link VisionResult to Hypothesis--><g class="link" data-entity-1="ent0002" data-entity-2="ent0003" data-link-type="composition" data-source-line="32" id="lnk6"><path codeLine="32" d="M307.65,298.3971 C307.65,331.3305 307.65,347.1971 307.65,377.7805" fill="none" id="VisionResult-backto-Hypothesis" style="stroke:#334155;stroke-width:1.6667;"/><polygon fill="#334155" points="307.65,278.3971,300.9833,288.3971,307.65,298.3971,314.3167,288.3971,307.65,278.3971" style="stroke:#334155;stroke-width:1.6667;"/><text fill="#334155" font-family="sans-serif" font-size="21.6667" lengthAdjust="spacing" textLength="10.4419" x="319.0442" y="360.3683">*</text></g><!--reverse link VisionResult to Feature--><g class="link" data-entity-1="ent0002" data-entity-2="ent0004" data-link-type="composition" data-source-line="33" id="lnk7"><path codeLine="33" d="M458.15,298.3971 C458.15,336.2471 458.15,357.9805 458.15,391.1305" fill="none" id="VisionResult-backto-Feature" style="stroke:#334155;stroke-width:1.6667;"/><polygon fill="#334155" points="458.15,278.3971,451.4833,288.3971,458.15,298.3971,464.8167,288.3971,458.15,278.3971" style="stroke:#334155;stroke-width:1.6667;"/><text fill="#334155" font-family="sans-serif" font-size="21.6667" lengthAdjust="spacing" textLength="10.4419" x="447.2975" y="373.9164">*</text></g><!--reverse link VisionResult to FollowUp--><g class="link" data-entity-1="ent0002" data-entity-2="ent0005" data-link-type="composition" data-source-line="34" id="lnk8"><path codeLine="34" d="M608.75,298.3971 C608.75,336.2471 608.75,357.9805 608.75,391.1305" fill="none" id="VisionResult-backto-FollowUp" style="stroke:#334155;stroke-width:1.6667;"/><polygon fill="#334155" points="608.75,278.3971,602.0833,288.3971,608.75,298.3971,615.4167,288.3971,608.75,278.3971" style="stroke:#334155;stroke-width:1.6667;"/></g><?plantuml-src fL91JiCm4Bpx5KjFjA8HN7kDX118LAA22w38IJQr9SSRx7Mh2Y7n25x8Ix3JG5leZTjwnfwPtVM9jfK9DK9HKTkIpRhG6i6Q3K8kMtGISYEzrusk96koyFd-0VF0NM38oRAJ5SFfWbseE3YiuNenlnqBeNGKRP4LrLw8Acd0W_PHuGvzC0ol0c25BY4pyEoqNKP4RJfYXHxz3Aw6Mll7oNFa6fJ98ZANssg0oHXQ5w6BU5_UTn7ria7U59OuFTZgf_jlts5swdqK8qiqUq4giarimLOuWyQGZ4sUPzd5E59hjTbN1AYrbssfbq4okUDkG-9_MktaXaPxlPU0Fgt67wRg534L3dlwTwg3LKocKnXDHdiZESuFJVmbV-Okqhp1wQLYeEPWuU86iGChdTl-8u-TZ2L2uwY5Q9lcq7-dxCdcFoC1hoYO6ih8IwFBzAG-W-W3ArsYpmJQEXrHV040?></g></svg>