<?plantuml 1.2026.1?><svg xmlns="http://www.w3.org/2000/svg" xmlns:xlink="http://www.w3.org/1999/xlink" contentStyleType="text/css" data-diagram-type="DESCRIPTION" height="1089.0625px" preserveAspectRatio="none" style="width:2179px;height:1089px;background:#FFFFFF;" version="1.1" viewBox="0 0 2179 1089" width="2179.6875px" zoomAndPan="magnify"><title>ANC &#8212; DBRX Component Architecture (Databricks Target)</title><defs/><g><g class="title" data-source-line="2"><text fill="#000000" font-family="Helvetica" font-size="21.875" font-weight="bold" lengthAdjust="spacing" textLength="611.3678" x="773.9127" y="32.4692">ANC &#8212; DBRX Component Architecture (Databricks Target)</text></g><!--cluster runtime--><g class="cluster" data-qualified-name="runtime" data-source-line="8" id="ent0003"><rect fill="#F8FAFC" height="643.75" rx="9.375" ry="9.375" style="stroke:#334155;stroke-width:1.5625;" width="490.625" x="10.9375" y="263.2813"/><text fill="#0F172A" font-family="Helvetica" font-size="18.75" font-weight="bold" lengthAdjust="spacing" textLength="262.5" x="15.625" y="280.8441">ANC DBRX notebook runtime</text></g><!--cluster dbx--><g class="cluster" data-qualified-name="dbx" data-source-line="15" id="ent0008"><polygon fill="none" points="1015.625,271.0938,1031.25,255.4688,1785.9375,255.4688,1785.9375,716.4063,1770.3125,732.0313,1015.625,732.0313,1015.625,271.0938" style="stroke:#181818;stroke-width:1.5625;"/><line style="stroke:#181818;stroke-width:1.5625;" x1="1770.3125" x2="1785.9375" y1="271.0938" y2="255.4688"/><line style="stroke:#181818;stroke-width:1.5625;" x1="1015.625" x2="1770.3125" y1="271.0938" y2="271.0938"/><line style="stroke:#181818;stroke-width:1.5625;" x1="1770.3125" x2="1770.3125" y1="271.0938" y2="732.0313"/><text fill="#000000" font-family="Helvetica" font-size="18.75" font-weight="bold" lengthAdjust="spacing" textLength="198.0194" x="1295.5215" y="290.2191">Databricks workspace</text></g><!--entity nb--><g class="entity" data-qualified-name="runtime.nb" data-source-line="9" id="ent0004"><rect fill="#DBEAFE" height="68.75" rx="9.375" ry="9.375" style="stroke:#334155;stroke-width:0.7813;" width="193.8385" x="35.8906" y="311.7188"/><text fill="#0F172A" font-family="Helvetica" font-size="18.75" lengthAdjust="spacing" textLength="80.2643" x="51.5156" y="341.7816">Notebook</text><text fill="#0F172A" font-family="Helvetica" font-size="18.75" lengthAdjust="spacing" textLength="5.2094" x="131.7799" y="341.7816">&#160;</text><text fill="#0F172A" font-family="Helvetica" font-size="18.75" lengthAdjust="spacing" textLength="77.1149" x="136.9893" y="341.7816">controller</text><text fill="#0F172A" font-family="Helvetica" font-size="18.75" lengthAdjust="spacing" textLength="139.6545" x="51.5156" y="360.5316">(anc_dbrx.ipynb)</text></g><!--entity orch--><g class="entity" data-qualified-name="runtime.orch" data-source-line="10" id="ent0005"><rect fill="#E0E7FF" height="68.75" rx="9.375" ry="9.375" style="stroke:#334155;stroke-width:0.7813;" width="358.9996" x="117.375" y="467.9688"/><text fill="#0F172A" font-family="Helvetica" font-size="18.75" lengthAdjust="spacing" textLength="95.8923" x="133" y="498.0316">StateGraph</text><text fill="#0F172A" font-family="Helvetica" font-size="18.75" lengthAdjust="spacing" textLength="5.2094" x="228.8923" y="498.0316">&#160;</text><text fill="#0F172A" font-family="Helvetica" font-size="18.75" lengthAdjust="spacing" textLength="100.0397" x="234.1017" y="498.0316">orchestrator</text><text fill="#0F172A" font-family="Helvetica" font-size="18.75" lengthAdjust="spacing" textLength="48.9807" x="133" y="516.7816">(route</text><text fill="#0F172A" font-family="Helvetica" font-size="18.75" lengthAdjust="spacing" textLength="5.2094" x="181.9807" y="516.7816">&#160;</text><text fill="#0F172A" font-family="Helvetica" font-size="18.75" lengthAdjust="spacing" textLength="17.1936" x="187.1901" y="516.7816">-&gt;</text><text fill="#0F172A" font-family="Helvetica" font-size="18.75" lengthAdjust="spacing" textLength="5.2094" x="204.3837" y="516.7816">&#160;</text><text fill="#0F172A" font-family="Helvetica" font-size="18.75" lengthAdjust="spacing" textLength="62.5214" x="209.593" y="516.7816">retrieve</text><text fill="#0F172A" font-family="Helvetica" font-size="18.75" lengthAdjust="spacing" textLength="5.2094" x="272.1144" y="516.7816">&#160;</text><text fill="#0F172A" font-family="Helvetica" font-size="18.75" lengthAdjust="spacing" textLength="17.1936" x="277.3237" y="516.7816">-&gt;</text><text fill="#0F172A" font-family="Helvetica" font-size="18.75" lengthAdjust="spacing" textLength="5.2094" x="294.5173" y="516.7816">&#160;</text><text fill="#0F172A" font-family="Helvetica" font-size="18.75" lengthAdjust="spacing" textLength="53.1464" x="299.7267" y="516.7816">rerank</text><text fill="#0F172A" font-family="Helvetica" font-size="18.75" lengthAdjust="spacing" textLength="5.2094" x="352.873" y="516.7816">&#160;</text><text fill="#0F172A" font-family="Helvetica" font-size="18.75" lengthAdjust="spacing" textLength="17.1936" x="358.0824" y="516.7816">-&gt;</text><text fill="#0F172A" font-family="Helvetica" font-size="18.75" lengthAdjust="spacing" textLength="5.2094" x="375.276" y="516.7816">&#160;</text><text fill="#0F172A" font-family="Helvetica" font-size="18.75" lengthAdjust="spacing" textLength="80.2643" x="380.4854" y="516.7816">generate)</text></g><!--entity gate--><g class="entity" data-qualified-name="runtime.gate" data-source-line="11" id="ent0006"><rect fill="#FEE2E2" height="68.75" rx="9.375" ry="9.375" style="stroke:#334155;stroke-width:0.7813;" width="292.8253" x="172.3438" y="631.25"/><text fill="#0F172A" font-family="Helvetica" font-size="18.75" lengthAdjust="spacing" textLength="50.0153" x="187.9688" y="661.3129">Policy</text><text fill="#0F172A" font-family="Helvetica" font-size="18.75" lengthAdjust="spacing" textLength="5.2094" x="237.984" y="661.3129">&#160;</text><text fill="#0F172A" font-family="Helvetica" font-size="18.75" lengthAdjust="spacing" textLength="10.9497" x="243.1934" y="661.3129">+</text><text fill="#0F172A" font-family="Helvetica" font-size="18.75" lengthAdjust="spacing" textLength="5.2094" x="254.1431" y="661.3129">&#160;</text><text fill="#0F172A" font-family="Helvetica" font-size="18.75" lengthAdjust="spacing" textLength="54.1992" x="259.3524" y="661.3129">quality</text><text fill="#0F172A" font-family="Helvetica" font-size="18.75" lengthAdjust="spacing" textLength="5.2094" x="313.5516" y="661.3129">&#160;</text><text fill="#0F172A" font-family="Helvetica" font-size="18.75" lengthAdjust="spacing" textLength="36.4929" x="318.761" y="661.3129">gate</text><text fill="#0F172A" font-family="Helvetica" font-size="18.75" lengthAdjust="spacing" textLength="70.8618" x="187.9688" y="680.0629">(citation,</text><text fill="#0F172A" font-family="Helvetica" font-size="18.75" lengthAdjust="spacing" textLength="5.2094" x="258.8306" y="680.0629">&#160;</text><text fill="#0F172A" font-family="Helvetica" font-size="18.75" lengthAdjust="spacing" textLength="96.9269" x="264.0399" y="680.0629">uncertainty,</text><text fill="#0F172A" font-family="Helvetica" font-size="18.75" lengthAdjust="spacing" textLength="5.2094" x="360.9668" y="680.0629">&#160;</text><text fill="#0F172A" font-family="Helvetica" font-size="18.75" lengthAdjust="spacing" textLength="83.3679" x="366.1761" y="680.0629">safe-stop)</text></g><!--entity fmt--><g class="entity" data-qualified-name="runtime.fmt" data-source-line="12" id="ent0007"><rect fill="#DCFCE7" height="68.75" rx="9.375" ry="9.375" style="stroke:#334155;stroke-width:0.7813;" width="301.1475" x="93.1719" y="813.2813"/><text fill="#0F172A" font-family="Helvetica" font-size="18.75" lengthAdjust="spacing" textLength="53.1464" x="108.7969" y="843.3441">Result</text><text fill="#0F172A" font-family="Helvetica" font-size="18.75" lengthAdjust="spacing" textLength="5.2094" x="161.9432" y="843.3441">&#160;</text><text fill="#0F172A" font-family="Helvetica" font-size="18.75" lengthAdjust="spacing" textLength="75.0183" x="167.1526" y="843.3441">formatter</text><text fill="#0F172A" font-family="Helvetica" font-size="18.75" lengthAdjust="spacing" textLength="41.684" x="108.7969" y="862.0941">(stop</text><text fill="#0F172A" font-family="Helvetica" font-size="18.75" lengthAdjust="spacing" textLength="5.2094" x="150.4808" y="862.0941">&#160;</text><text fill="#0F172A" font-family="Helvetica" font-size="18.75" lengthAdjust="spacing" textLength="45.8496" x="155.6902" y="862.0941">cards</text><text fill="#0F172A" font-family="Helvetica" font-size="18.75" lengthAdjust="spacing" textLength="5.2094" x="201.5398" y="862.0941">&#160;</text><text fill="#0F172A" font-family="Helvetica" font-size="18.75" lengthAdjust="spacing" textLength="10.9497" x="206.7491" y="862.0941">+</text><text fill="#0F172A" font-family="Helvetica" font-size="18.75" lengthAdjust="spacing" textLength="5.2094" x="217.6989" y="862.0941">&#160;</text><text fill="#0F172A" font-family="Helvetica" font-size="18.75" lengthAdjust="spacing" textLength="41.684" x="222.9082" y="862.0941">trace</text><text fill="#0F172A" font-family="Helvetica" font-size="18.75" lengthAdjust="spacing" textLength="5.2094" x="264.5922" y="862.0941">&#160;</text><text fill="#0F172A" font-family="Helvetica" font-size="18.75" lengthAdjust="spacing" textLength="10.9497" x="269.8015" y="862.0941">+</text><text fill="#0F172A" font-family="Helvetica" font-size="18.75" lengthAdjust="spacing" textLength="5.2094" x="280.7512" y="862.0941">&#160;</text><text fill="#0F172A" font-family="Helvetica" font-size="18.75" lengthAdjust="spacing" textLength="92.7338" x="285.9606" y="862.0941">markdown)</text></g><!--entity llm--><g class="entity" data-qualified-name="dbx.llm" data-source-line="16" id="ent0009"><rect fill="#FEF3C7" height="68.75" rx="9.375" ry="9.375" style="stroke:#334155;stroke-width:0.7813;" width="201.1444" x="1040.0469" y="311.7188"/><text fill="#0F172A" font-family="Helvetica" font-size="18.75" lengthAdjust="spacing" textLength="51.0681" x="1055.6719" y="341.7816">Model</text><text fill="#0F172A" font-family="Helvetica" font-size="18.75" lengthAdjust="spacing" textLength="5.2094" x="1106.74" y="341.7816">&#160;</text><text fill="#0F172A" font-family="Helvetica" font-size="18.75" lengthAdjust="spacing" textLength="63.5742" x="1111.9493" y="341.7816">Serving</text><text fill="#0F172A" font-family="Helvetica" font-size="18.75" lengthAdjust="spacing" textLength="52.0935" x="1055.6719" y="360.5316">DBRX</text><text fill="#0F172A" font-family="Helvetica" font-size="18.75" lengthAdjust="spacing" textLength="5.2094" x="1107.7654" y="360.5316">&#160;</text><text fill="#0F172A" font-family="Helvetica" font-size="18.75" lengthAdjust="spacing" textLength="35.4401" x="1112.9747" y="360.5316">chat</text><text fill="#0F172A" font-family="Helvetica" font-size="18.75" lengthAdjust="spacing" textLength="5.2094" x="1148.4148" y="360.5316">&#160;</text><text fill="#0F172A" font-family="Helvetica" font-size="18.75" lengthAdjust="spacing" textLength="71.9421" x="1153.6241" y="360.5316">endpoint</text></g><!--entity emb--><g class="entity" data-qualified-name="dbx.emb" data-source-line="17" id="ent0010"><rect fill="#FEF3C7" height="68.75" rx="9.375" ry="9.375" style="stroke:#334155;stroke-width:0.7813;" width="201.181" x="1288.4688" y="311.7188"/><text fill="#0F172A" font-family="Helvetica" font-size="18.75" lengthAdjust="spacing" textLength="51.0681" x="1304.0938" y="341.7816">Model</text><text fill="#0F172A" font-family="Helvetica" font-size="18.75" lengthAdjust="spacing" textLength="5.2094" x="1355.1619" y="341.7816">&#160;</text><text fill="#0F172A" font-family="Helvetica" font-size="18.75" lengthAdjust="spacing" textLength="63.5742" x="1360.3712" y="341.7816">Serving</text><text fill="#0F172A" font-family="Helvetica" font-size="18.75" lengthAdjust="spacing" textLength="92.7795" x="1304.0938" y="360.5316">embedding</text><text fill="#0F172A" font-family="Helvetica" font-size="18.75" lengthAdjust="spacing" textLength="5.2094" x="1396.8733" y="360.5316">&#160;</text><text fill="#0F172A" font-family="Helvetica" font-size="18.75" lengthAdjust="spacing" textLength="71.9421" x="1402.0826" y="360.5316">endpoint</text></g><!--entity vs--><g class="entity" data-qualified-name="dbx.vs" data-source-line="18" id="ent0011"><path d="M1040.5781,639.8438 C1040.5781,624.2188 1140.6239,624.2188 1140.6239,624.2188 C1140.6239,624.2188 1240.6697,624.2188 1240.6697,639.8438 L1240.6697,691.4063 C1240.6697,707.0313 1140.6239,707.0313 1140.6239,707.0313 C1140.6239,707.0313 1040.5781,707.0313 1040.5781,691.4063 L1040.5781,639.8438" fill="#DDD6FE" style="stroke:#3730A3;stroke-width:0.7813;"/><path d="M1040.5781,639.8438 C1040.5781,655.4688 1140.6239,655.4688 1140.6239,655.4688 C1140.6239,655.4688 1240.6697,655.4688 1240.6697,639.8438" fill="none" style="stroke:#3730A3;stroke-width:0.7813;"/><text fill="#0F172A" font-family="Helvetica" font-size="18.75" lengthAdjust="spacing" textLength="54.1901" x="1056.2031" y="676.1566">Vector</text><text fill="#0F172A" font-family="Helvetica" font-size="18.75" lengthAdjust="spacing" textLength="5.2094" x="1110.3932" y="676.1566">&#160;</text><text fill="#0F172A" font-family="Helvetica" font-size="18.75" lengthAdjust="spacing" textLength="59.4086" x="1115.6025" y="676.1566">Search</text><text fill="#0F172A" font-family="Helvetica" font-size="18.75" lengthAdjust="spacing" textLength="5.2094" x="1175.0111" y="676.1566">&#160;</text><text fill="#0F172A" font-family="Helvetica" font-size="18.75" lengthAdjust="spacing" textLength="44.8242" x="1180.2205" y="676.1566">index</text><text fill="#0F172A" font-family="Helvetica" font-size="18.75" lengthAdjust="spacing" textLength="85.4828" x="1056.2031" y="694.9066">(grounded</text><text fill="#0F172A" font-family="Helvetica" font-size="18.75" lengthAdjust="spacing" textLength="5.2094" x="1141.6859" y="694.9066">&#160;</text><text fill="#0F172A" font-family="Helvetica" font-size="18.75" lengthAdjust="spacing" textLength="65.6525" x="1146.8953" y="694.9066">chunks)</text></g><!--entity uc--><g class="entity" data-qualified-name="dbx.uc" data-source-line="19" id="ent0012"><path d="M1400.9531,485.9375 C1400.9531,470.3125 1581.2495,470.3125 1581.2495,470.3125 C1581.2495,470.3125 1761.5458,470.3125 1761.5458,485.9375 L1761.5458,518.75 C1761.5458,534.375 1581.2495,534.375 1581.2495,534.375 C1581.2495,534.375 1400.9531,534.375 1400.9531,518.75 L1400.9531,485.9375" fill="#E9D5FF" style="stroke:#3730A3;stroke-width:0.7813;"/><path d="M1400.9531,485.9375 C1400.9531,501.5625 1581.2495,501.5625 1581.2495,501.5625 C1581.2495,501.5625 1761.5458,501.5625 1761.5458,485.9375" fill="none" style="stroke:#3730A3;stroke-width:0.7813;"/><text fill="#0F172A" font-family="Helvetica" font-size="18.75" lengthAdjust="spacing" textLength="81.3171" x="1416.5781" y="522.2504">Lakebase</text><text fill="#0F172A" font-family="Helvetica" font-size="18.75" lengthAdjust="spacing" textLength="5.2094" x="1497.8953" y="522.2504">&#160;</text><text fill="#0F172A" font-family="Helvetica" font-size="18.75" lengthAdjust="spacing" textLength="5.2094" x="1503.1046" y="522.2504">/</text><text fill="#0F172A" font-family="Helvetica" font-size="18.75" lengthAdjust="spacing" textLength="5.2094" x="1508.314" y="522.2504">&#160;</text><text fill="#0F172A" font-family="Helvetica" font-size="18.75" lengthAdjust="spacing" textLength="42.7185" x="1513.5233" y="522.2504">Unity</text><text fill="#0F172A" font-family="Helvetica" font-size="18.75" lengthAdjust="spacing" textLength="5.2094" x="1556.2418" y="522.2504">&#160;</text><text fill="#0F172A" font-family="Helvetica" font-size="18.75" lengthAdjust="spacing" textLength="64.6271" x="1561.4512" y="522.2504">Catalog</text><text fill="#0F172A" font-family="Helvetica" font-size="18.75" lengthAdjust="spacing" textLength="5.2094" x="1626.0782" y="522.2504">&#160;</text><text fill="#0F172A" font-family="Helvetica" font-size="18.75" lengthAdjust="spacing" textLength="59.3903" x="1631.2876" y="522.2504">MLflow</text><text fill="#0F172A" font-family="Helvetica" font-size="18.75" lengthAdjust="spacing" textLength="5.2094" x="1690.6779" y="522.2504">&#160;</text><text fill="#0F172A" font-family="Helvetica" font-size="18.75" lengthAdjust="spacing" textLength="50.0336" x="1695.8872" y="522.2504">tables</text></g><!--entity jobs--><g class="entity" data-qualified-name="dbx.jobs" data-source-line="20" id="ent0013"><rect fill="#ECFCCB" height="68.75" rx="9.375" ry="9.375" style="stroke:#334155;stroke-width:0.7813;" width="223.5474" x="1536.6563" y="311.7188"/><text fill="#0F172A" font-family="Helvetica" font-size="18.75" lengthAdjust="spacing" textLength="86.4624" x="1552.2813" y="341.7816">Workflows</text><text fill="#0F172A" font-family="Helvetica" font-size="18.75" lengthAdjust="spacing" textLength="5.2094" x="1638.7437" y="341.7816">&#160;</text><text fill="#0F172A" font-family="Helvetica" font-size="18.75" lengthAdjust="spacing" textLength="34.3964" x="1643.953" y="341.7816">jobs</text><text fill="#0F172A" font-family="Helvetica" font-size="18.75" lengthAdjust="spacing" textLength="50.0336" x="1552.2813" y="360.5316">ingest</text><text fill="#0F172A" font-family="Helvetica" font-size="18.75" lengthAdjust="spacing" textLength="5.2094" x="1602.3148" y="360.5316">&#160;</text><text fill="#0F172A" font-family="Helvetica" font-size="18.75" lengthAdjust="spacing" textLength="10.9497" x="1607.5242" y="360.5316">+</text><text fill="#0F172A" font-family="Helvetica" font-size="18.75" lengthAdjust="spacing" textLength="5.2094" x="1618.4739" y="360.5316">&#160;</text><text fill="#0F172A" font-family="Helvetica" font-size="18.75" lengthAdjust="spacing" textLength="57.3303" x="1623.6832" y="360.5316">embed</text><text fill="#0F172A" font-family="Helvetica" font-size="18.75" lengthAdjust="spacing" textLength="5.2094" x="1681.0135" y="360.5316">&#160;</text><text fill="#0F172A" font-family="Helvetica" font-size="18.75" lengthAdjust="spacing" textLength="58.3557" x="1686.2229" y="360.5316">refresh</text></g><!--entity mlflow--><g class="entity" data-qualified-name="dbx.mlflow" data-source-line="21" id="ent0014"><rect fill="#FEF9C3" height="68.75" rx="9.375" ry="9.375" style="stroke:#334155;stroke-width:0.7813;" width="179.7577" x="1041.375" y="467.9688"/><text fill="#0F172A" font-family="Helvetica" font-size="18.75" lengthAdjust="spacing" textLength="59.3903" x="1057" y="498.0316">MLflow</text><text fill="#0F172A" font-family="Helvetica" font-size="18.75" lengthAdjust="spacing" textLength="51.059" x="1057" y="516.7816">traces</text><text fill="#0F172A" font-family="Helvetica" font-size="18.75" lengthAdjust="spacing" textLength="5.2094" x="1108.059" y="516.7816">&#160;</text><text fill="#0F172A" font-family="Helvetica" font-size="18.75" lengthAdjust="spacing" textLength="10.9497" x="1113.2683" y="516.7816">+</text><text fill="#0F172A" font-family="Helvetica" font-size="18.75" lengthAdjust="spacing" textLength="5.2094" x="1124.218" y="516.7816">&#160;</text><text fill="#0F172A" font-family="Helvetica" font-size="18.75" lengthAdjust="spacing" textLength="34.3964" x="1129.4274" y="516.7816">eval</text><text fill="#0F172A" font-family="Helvetica" font-size="18.75" lengthAdjust="spacing" textLength="5.2094" x="1163.8237" y="516.7816">&#160;</text><text fill="#0F172A" font-family="Helvetica" font-size="18.75" lengthAdjust="spacing" textLength="36.4746" x="1169.0331" y="516.7816">runs</text></g><!--entity user--><g class="entity" data-qualified-name="user" data-source-line="5" id="ent0002"><ellipse cx="132.8079" cy="76.5625" fill="#E0F2FE" rx="12.5" ry="12.5" style="stroke:#0369A1;stroke-width:0.7813;"/><path d="M132.8079,89.0625 L132.8079,131.25 M112.4954,101.5625 L153.1204,101.5625 M132.8079,131.25 L112.4954,154.6875 M132.8079,131.25 L153.1204,154.6875" fill="none" style="stroke:#0369A1;stroke-width:0.7813;"/><text fill="#0F172A" font-family="Helvetica" font-size="18.75" lengthAdjust="spacing" textLength="80.2643" x="25.4531" y="171.4691">Notebook</text><text fill="#0F172A" font-family="Helvetica" font-size="18.75" lengthAdjust="spacing" textLength="5.2094" x="105.7174" y="171.4691">&#160;</text><text fill="#0F172A" font-family="Helvetica" font-size="18.75" lengthAdjust="spacing" textLength="36.4746" x="110.9268" y="171.4691">user</text><text fill="#0F172A" font-family="Helvetica" font-size="18.75" lengthAdjust="spacing" textLength="5.2094" x="147.4014" y="171.4691">&#160;</text><text fill="#0F172A" font-family="Helvetica" font-size="18.75" lengthAdjust="spacing" textLength="5.2094" x="152.6107" y="171.4691">/</text><text fill="#0F172A" font-family="Helvetica" font-size="18.75" lengthAdjust="spacing" textLength="5.2094" x="157.8201" y="171.4691">&#160;</text><text fill="#0F172A" font-family="Helvetica" font-size="18.75" lengthAdjust="spacing" textLength="77.1332" x="163.0294" y="171.4691">evaluator</text></g><!--entity sources--><g class="entity" data-qualified-name="sources" data-source-line="24" id="ent0015"><path d="M1823.8476,483.2022 C1830.3914,474.3378 1836.1072,475.6174 1842.3383,483.5466 C1846.1861,473.6929 1853.1712,470.9103 1860.8127,479.8092 C1865.1074,471.6643 1872.5831,472.4835 1877.3913,479.2377 C1883.2608,469.5017 1889.1532,470.669 1895.736,478.4927 C1901.1388,471.4297 1908.2998,471.9312 1913.1779,479.1343 C1916.9609,470.0163 1923.6844,469.2268 1930.814,475.2316 C1936.2193,468.9924 1942.0132,469.6151 1945.3742,477.3601 C1950.2054,469.1899 1957.6891,469.3509 1963.1756,476.6038 C1968.1268,467.3241 1975.5503,468.5762 1980.3103,476.7911 C1986.4851,466.7271 1996.0432,466.6156 2000.8517,478.0939 C2007.3892,471.6168 2013.7665,472.6586 2016.2906,482.0088 C2020.7118,471.0304 2028.612,471.1346 2035.1701,479.973 C2041.1418,472.279 2047.9634,473.6033 2052.4273,481.6283 C2058.9619,474.3718 2065.1589,473.0132 2070.367,483.0078 C2082.8358,485.0249 2088.2789,490.0656 2082.6431,503.1286 C2089.6339,517.1704 2082.6163,524.4161 2068.7587,525.5441 C2064.8421,533.1753 2058.2662,534.4846 2053.373,526.5068 C2049.0219,534.6482 2041.465,536.4882 2035.8969,527.7683 C2030.9639,538.9161 2022.427,537.5083 2015.9842,529.3233 C2013.4622,540.1335 2004.0814,540.1863 1997.6885,533.3327 C1994.5833,541.0268 1986.7284,543.6794 1981.4449,535.5719 C1976.4365,543.0181 1970.2225,543.5411 1965.3003,535.482 C1962.8438,544.8354 1955.4932,547.2978 1948.6188,539.875 C1941.5746,548.9614 1932.3764,546.8605 1929.5523,535.8678 C1923.052,544.4167 1915.6614,541.6512 1911.4176,533.4279 C1906.613,539.8473 1899.24,539.3568 1896.0781,531.6448 C1890.9588,540.5781 1884.5264,539.9809 1878.7183,532.3674 C1871.1624,540.0019 1865.2943,538.998 1859.9607,529.8792 C1854.2582,537.5006 1845.9224,537.1071 1842.043,527.9342 C1835.936,535.8243 1829.4523,532.2985 1826.1026,525.034 C1814.4344,522.1745 1810.7485,514.3607 1817.8271,504.0928 C1809.7373,494.3753 1810.7527,486.8145 1823.8476,483.2022" fill="#ECFDF5" style="stroke:#065F46;stroke-width:0.7813;"/><text fill="#0F172A" font-family="Helvetica" font-size="18.75" lengthAdjust="spacing" textLength="81.2805" x="1834.0625" y="507.4066">Wikipedia</text><text fill="#0F172A" font-family="Helvetica" font-size="18.75" lengthAdjust="spacing" textLength="5.2094" x="1915.343" y="507.4066">&#160;</text><text fill="#0F172A" font-family="Helvetica" font-size="18.75" lengthAdjust="spacing" textLength="10.9497" x="1920.5524" y="507.4066">+</text><text fill="#0F172A" font-family="Helvetica" font-size="18.75" lengthAdjust="spacing" textLength="5.2094" x="1931.5021" y="507.4066">&#160;</text><text fill="#0F172A" font-family="Helvetica" font-size="18.75" lengthAdjust="spacing" textLength="48.9899" x="1936.7114" y="507.4066">public</text><text fill="#0F172A" font-family="Helvetica" font-size="18.75" lengthAdjust="spacing" textLength="5.2094" x="1985.7013" y="507.4066">&#160;</text><text fill="#0F172A" font-family="Helvetica" font-size="18.75" lengthAdjust="spacing" textLength="65.6525" x="1990.9106" y="507.4066">sources</text></g><g class="entity" data-qualified-name="GMN33" data-source-line="46" id="ent0034"><path d="M527.2813,821.0938 L527.2813,874.2188 A9.375,9.375 0 0 0 536.6563,883.5938 L888.3561,883.5938 A9.375,9.375 0 0 0 897.7311,874.2188 L897.7311,827.3438 L882.1061,811.7188 L641.4688,811.7188 L392.3438,700.625 L628.9688,811.7188 L536.6563,811.7188 A9.375,9.375 0 0 0 527.2813,821.0938" fill="#FFFBEB" style="stroke:#B45309;stroke-width:0.7813;"/><path d="M882.1061,811.7188 L882.1061,822.6563 A4.6875,4.6875 0 0 0 886.7936,827.3438 L897.7311,827.3438 L882.1061,811.7188" fill="#FFFBEB" style="stroke:#B45309;stroke-width:0.7813;"/><text fill="#92400E" font-family="Helvetica" font-size="18.75" lengthAdjust="spacing" textLength="70.8435" x="536.6563" y="833.9691">Free-tier</text><text fill="#92400E" font-family="Helvetica" font-size="18.75" lengthAdjust="spacing" textLength="5.2094" x="607.4998" y="833.9691">&#160;</text><text fill="#92400E" font-family="Helvetica" font-size="18.75" lengthAdjust="spacing" textLength="126.0773" x="612.7091" y="833.9691">controls:\nstrict</text><text fill="#92400E" font-family="Helvetica" font-size="18.75" lengthAdjust="spacing" textLength="5.2094" x="738.7864" y="833.9691">&#160;</text><text fill="#92400E" font-family="Helvetica" font-size="18.75" lengthAdjust="spacing" textLength="41.684" x="743.9957" y="833.9691">top-k</text><text fill="#92400E" font-family="Helvetica" font-size="18.75" lengthAdjust="spacing" textLength="137.558" x="536.6563" y="852.7191">cap,\ncache-first</text><text fill="#92400E" font-family="Helvetica" font-size="18.75" lengthAdjust="spacing" textLength="5.2094" x="674.2142" y="852.7191">&#160;</text><text fill="#92400E" font-family="Helvetica" font-size="18.75" lengthAdjust="spacing" textLength="133.3649" x="679.4236" y="852.7191">retries,\nsmaller</text><text fill="#92400E" font-family="Helvetica" font-size="18.75" lengthAdjust="spacing" textLength="5.2094" x="812.7885" y="852.7191">&#160;</text><text fill="#92400E" font-family="Helvetica" font-size="18.75" lengthAdjust="spacing" textLength="56.2958" x="817.9978" y="852.7191">default</text><text fill="#92400E" font-family="Helvetica" font-size="18.75" lengthAdjust="spacing" textLength="56.2775" x="536.6563" y="871.4691">model.</text></g><g class="entity" data-qualified-name="GMN36" data-source-line="50" id="ent0037"><path d="M1811.125,648.4375 L1811.125,682.8125 A9.375,9.375 0 0 0 1820.5,692.1875 L2160.7557,692.1875 A9.375,9.375 0 0 0 2170.1307,682.8125 L2170.1307,654.6875 L2154.5057,639.0625 L1931.1719,639.0625 L1660.6719,534.9688 L1918.6719,639.0625 L1820.5,639.0625 A9.375,9.375 0 0 0 1811.125,648.4375" fill="#FFFBEB" style="stroke:#B45309;stroke-width:0.7813;"/><path d="M2154.5057,639.0625 L2154.5057,650 A4.6875,4.6875 0 0 0 2159.1932,654.6875 L2170.1307,654.6875 L2154.5057,639.0625" fill="#FFFBEB" style="stroke:#B45309;stroke-width:0.7813;"/><text fill="#92400E" font-family="Helvetica" font-size="18.75" lengthAdjust="spacing" textLength="66.7053" x="1820.5" y="661.3129">Curated</text><text fill="#92400E" font-family="Helvetica" font-size="18.75" lengthAdjust="spacing" textLength="5.2094" x="1887.2053" y="661.3129">&#160;</text><text fill="#92400E" font-family="Helvetica" font-size="18.75" lengthAdjust="spacing" textLength="62.5397" x="1892.4147" y="661.3129">storage</text><text fill="#92400E" font-family="Helvetica" font-size="18.75" lengthAdjust="spacing" textLength="5.2094" x="1954.9543" y="661.3129">&#160;</text><text fill="#92400E" font-family="Helvetica" font-size="18.75" lengthAdjust="spacing" textLength="13.5406" x="1960.1637" y="661.3129">is</text><text fill="#92400E" font-family="Helvetica" font-size="18.75" lengthAdjust="spacing" textLength="5.2094" x="1973.7043" y="661.3129">&#160;</text><text fill="#92400E" font-family="Helvetica" font-size="18.75" lengthAdjust="spacing" textLength="26.0651" x="1978.9137" y="661.3129">the</text><text fill="#92400E" font-family="Helvetica" font-size="18.75" lengthAdjust="spacing" textLength="5.2094" x="2004.9788" y="661.3129">&#160;</text><text fill="#92400E" font-family="Helvetica" font-size="18.75" lengthAdjust="spacing" textLength="102.1454" x="2010.1881" y="661.3129">authoritative</text><text fill="#92400E" font-family="Helvetica" font-size="18.75" lengthAdjust="spacing" textLength="93.7958" x="1820.5" y="680.0629">source\nfor</text><text fill="#92400E" font-family="Helvetica" font-size="18.75" lengthAdjust="spacing" textLength="5.2094" x="1914.2958" y="680.0629">&#160;</text><text fill="#92400E" font-family="Helvetica" font-size="18.75" lengthAdjust="spacing" textLength="54.1901" x="1919.5051" y="680.0629">Vector</text><text fill="#92400E" font-family="Helvetica" font-size="18.75" lengthAdjust="spacing" textLength="5.2094" x="1973.6952" y="680.0629">&#160;</text><text fill="#92400E" font-family="Helvetica" font-size="18.75" lengthAdjust="spacing" textLength="59.4086" x="1978.9045" y="680.0629">Search</text><text fill="#92400E" font-family="Helvetica" font-size="18.75" lengthAdjust="spacing" textLength="5.2094" x="2038.3131" y="680.0629">&#160;</text><text fill="#92400E" font-family="Helvetica" font-size="18.75" lengthAdjust="spacing" textLength="58.3557" x="2043.5225" y="680.0629">refresh</text><text fill="#92400E" font-family="Helvetica" font-size="18.75" lengthAdjust="spacing" textLength="5.2094" x="2101.8782" y="680.0629">&#160;</text><text fill="#92400E" font-family="Helvetica" font-size="18.75" lengthAdjust="spacing" textLength="39.6057" x="2107.0875" y="680.0629">jobs.</text></g><!--link user to nb--><g class="link" data-entity-1="ent0002" data-entity-2="ent0004" data-link-type="dependency" data-source-line="26" id="lnk16"><path d="M132.8125,176.3281 C132.8125,218.7188 132.8125,266.4531 132.8125,302.0156" fill="none" id="user-to-nb" style="stroke:#334155;stroke-width:1.875;"/><polygon fill="#334155" points="132.8125,311.3906,139.0625,297.3281,132.8125,303.5781,126.5625,297.3281,132.8125,311.3906" style="stroke:#334155;stroke-width:1.875;"/><text fill="#334155" font-family="Helvetica" font-size="18.75" lengthAdjust="spacing" textLength="252.2461" x="134.375" y="224.5941">1) ask question / run notebook</text></g><!--link nb to orch--><g class="link" data-entity-1="ent0004" data-entity-2="ent0005" data-link-type="dependency" data-source-line="27" id="lnk17"><path d="M111.2188,381.2344 C100.8438,397.3906 90.625,413.2813 90.625,413.2813 C90.625,413.2813 90.625,435.1563 90.625,435.1563 C90.625,435.1563 131.6608,448.2022 182.3951,464.3584" fill="none" id="nb-to-orch" style="stroke:#334155;stroke-width:1.875;"/><polygon fill="#334155" points="191.3281,467.2031,179.8251,456.9808,183.884,464.8325,176.0322,468.8914,191.3281,467.2031" style="stroke:#334155;stroke-width:1.875;"/><text fill="#334155" font-family="Helvetica" font-size="18.75" lengthAdjust="spacing" textLength="222.5372" x="92.1875" y="429.2816">2) question + route context</text></g><!--link orch to emb--><g class="link" data-entity-1="ent0005" data-entity-2="ent0010" data-link-type="dependency" data-source-line="28" id="lnk18"><path d="M476.8125,483.375 C677.7188,463.9219 975,435.1563 975,435.1563 C975,435.1563 1025,413.2813 1025,413.2813 C1025,413.2813 1264.0625,380.4688 1264.0625,380.4688 C1264.0625,380.4688 1264.8863,380.2589 1279.0894,376.5245" fill="none" id="orch-to-emb" style="stroke:#334155;stroke-width:1.875;"/><polygon fill="#334155" points="1288.1563,374.1406,1272.9667,371.6719,1280.6005,376.1272,1276.1453,383.7611,1288.1563,374.1406" style="stroke:#334155;stroke-width:1.875;"/><text fill="#334155" font-family="Helvetica" font-size="18.75" lengthAdjust="spacing" textLength="212.1002" x="1026.5625" y="429.2816">3) embed query + chunks</text></g><!--link emb to orch--><g class="link" data-entity-1="ent0010" data-entity-2="ent0005" data-link-type="dependency" data-source-line="29" id="lnk19"><path d="M1333.2969,381.2344 C1292.3125,405.9062 1243.75,435.1563 1243.75,435.1563 C1243.75,435.1563 760.6182,468.6326 485.9932,487.6795" fill="none" id="emb-to-orch" style="stroke:#334155;stroke-width:1.875;"/><polygon fill="#334155" points="476.6406,488.3281,491.1019,493.5902,484.4344,487.7876,490.237,481.1201,476.6406,488.3281" style="stroke:#334155;stroke-width:1.875;"/><text fill="#334155" font-family="Helvetica" font-size="18.75" lengthAdjust="spacing" textLength="60.434" x="1280.4219" y="429.2816">vectors</text></g><!--link orch to vs--><g class="link" data-entity-1="ent0005" data-entity-2="ent0011" data-link-type="dependency" data-source-line="30" id="lnk20"><path d="M416.2031,537.4844 C503.8906,562.1563 607.8125,591.4063 607.8125,591.4063 C607.8125,591.4063 876.7735,628.0771 1031.1172,649.1239" fill="none" id="orch-to-vs" style="stroke:#334155;stroke-width:1.875;"/><polygon fill="#334155" points="1040.4063,650.3906,1027.3172,642.2979,1032.6654,649.3351,1025.6282,654.6833,1040.4063,650.3906" style="stroke:#334155;stroke-width:1.875;"/><text fill="#334155" font-family="Helvetica" font-size="18.75" lengthAdjust="spacing" textLength="200.061" x="609.375" y="585.5316">4) retrieval query (top-k)</text></g><!--link vs to orch--><g class="link" data-entity-1="ent0011" data-entity-2="ent0005" data-link-type="dependency" data-source-line="31" id="lnk21"><path d="M1040.1563,637.2188 C962.7188,616.5156 868.75,591.4063 868.75,591.4063 C868.75,591.4063 815.625,569.5313 815.625,569.5313 C815.625,569.5313 635.9884,546.8016 486.1603,527.8484" fill="none" id="vs-to-orch" style="stroke:#334155;stroke-width:1.875;"/><polygon fill="#334155" points="476.8594,526.6719,490.0263,534.6373,484.6101,527.6523,491.5951,522.2361,476.8594,526.6719" style="stroke:#334155;stroke-width:1.875;"/><text fill="#334155" font-family="Helvetica" font-size="18.75" lengthAdjust="spacing" textLength="158.9539" x="870.3125" y="585.5316">chunks + metadata</text></g><!--link orch to llm--><g class="link" data-entity-1="ent0005" data-entity-2="ent0009" data-link-type="dependency" data-source-line="32" id="lnk22"><path d="M476.5469,474.9375 C604.2188,456.5781 753.125,435.1563 753.125,435.1563 C753.125,435.1563 803.125,413.2813 803.125,413.2813 C803.125,413.2813 930.7505,388.4612 1030.1567,369.1331" fill="none" id="orch-to-llm" style="stroke:#334155;stroke-width:1.875;"/><polygon fill="#334155" points="1039.3594,367.3438,1024.3625,363.8926,1031.6905,368.8349,1026.7483,376.1628,1039.3594,367.3438" style="stroke:#334155;stroke-width:1.875;"/><text fill="#334155" font-family="Helvetica" font-size="18.75" lengthAdjust="spacing" textLength="164.6851" x="804.6875" y="429.2816">5) grounded prompt</text></g><!--link llm to orch--><g class="link" data-entity-1="ent0009" data-entity-2="ent0005" data-link-type="dependency" data-source-line="33" id="lnk23"><path d="M1039.7031,360.7812 C892.4219,379.9375 635.9375,413.2813 635.9375,413.2813 C635.9375,413.2813 592.1875,435.1563 592.1875,435.1563 C592.1875,435.1563 529.8078,449.0123 457.1359,465.1686" fill="none" id="llm-to-orch" style="stroke:#334155;stroke-width:1.875;"/><polygon fill="#334155" points="447.9844,467.2031,463.0681,470.2523,455.6107,465.5077,460.3554,458.0502,447.9844,467.2031" style="stroke:#334155;stroke-width:1.875;"/><text fill="#334155" font-family="Helvetica" font-size="18.75" lengthAdjust="spacing" textLength="103.1708" x="637.5" y="429.2816">draft answer</text></g><!--link orch to gate--><g class="link" data-entity-1="ent0005" data-entity-2="ent0006" data-link-type="dependency" data-source-line="34" id="lnk24"><path d="M301.4063,537.0938 C305.1563,564.5781 309.2006,594.1643 312.9506,621.633" fill="none" id="orch-to-gate" style="stroke:#334155;stroke-width:1.875;"/><polygon fill="#334155" points="314.2188,630.9219,318.5092,616.1432,313.162,623.1812,306.124,617.834,314.2188,630.9219" style="stroke:#334155;stroke-width:1.875;"/><text fill="#334155" font-family="Helvetica" font-size="18.75" lengthAdjust="spacing" textLength="165.1611" x="310.0313" y="585.5316">6) claims + citations</text></g><!--link gate to fmt--><g class="link" data-entity-1="ent0006" data-entity-2="ent0007" data-link-type="dependency" data-source-line="35" id="lnk25"><path d="M304.8125,700.4219 C291.3438,732.5469 274.6691,772.3218 261.2316,804.3999" fill="none" id="gate-to-fmt" style="stroke:#334155;stroke-width:1.875;"/><polygon fill="#334155" points="257.6094,813.0469,268.8073,802.4912,260.6279,805.8411,257.278,797.6616,257.6094,813.0469" style="stroke:#334155;stroke-width:1.875;"/><text fill="#334155" font-family="Helvetica" font-size="18.75" lengthAdjust="spacing" textLength="170.9564" x="280.5625" y="773.0316">7) approved payload</text></g><!--link fmt to nb--><g class="link" data-entity-1="ent0007" data-entity-2="ent0004" data-link-type="dependency" data-source-line="36" id="lnk26"><path d="M212.5469,812.8438 C184.75,783.2188 148.4375,744.5313 148.4375,744.5313 C148.4375,744.5313 93.75,536.7188 93.75,536.7188 C93.75,536.7188 79.6875,435.1563 79.6875,435.1563 C79.6875,435.1563 79.6875,413.2813 79.6875,413.2813 C79.6875,413.2813 86.6682,404.6809 99.7307,388.5247" fill="none" id="fmt-to-nb" style="stroke:#334155;stroke-width:1.875;"/><polygon fill="#334155" points="105.625,381.2344,91.9234,388.2403,100.7131,387.3096,101.6438,396.0993,105.625,381.2344" style="stroke:#334155;stroke-width:1.875;"/><text fill="#334155" font-family="Helvetica" font-size="18.75" lengthAdjust="spacing" textLength="169.8761" x="109.2969" y="585.5316">8) response schema</text></g><!--link jobs to sources--><g class="link" data-entity-1="ent0013" data-entity-2="ent0015" data-link-type="dependency" data-source-line="38" id="lnk27"><path d="M1723.5937,381.2344 C1759.7344,397.3906 1795.3125,413.2813 1795.3125,413.2813 C1795.3125,413.2813 1839.7455,439.1986 1882.6361,464.2143" fill="none" id="jobs-to-sources" style="stroke:#334155;stroke-width:1.875;stroke-dasharray:10.9375,10.9375;"/><polygon fill="#334155" points="1890.7344,468.9375,1881.7358,456.4538,1883.9858,465.0015,1875.4382,467.2515,1890.7344,468.9375" style="stroke:#334155;stroke-width:1.875;"/><text fill="#334155" font-family="Helvetica" font-size="18.75" lengthAdjust="spacing" textLength="85.4645" x="1833.125" y="429.2816">fetch docs</text></g><!--link jobs to uc--><g class="link" data-entity-1="ent0013" data-entity-2="ent0012" data-link-type="dependency" data-source-line="39" id="lnk28"><path d="M1633.8594,380.875 C1622.2813,407.2656 1609.9682,435.3205 1598.6557,461.1174" fill="none" id="jobs-to-uc" style="stroke:#334155;stroke-width:1.875;"/><polygon fill="#334155" points="1594.8906,469.7031,1606.262,459.3345,1598.0282,462.5483,1594.8144,454.3145,1594.8906,469.7031" style="stroke:#334155;stroke-width:1.875;"/><text fill="#334155" font-family="Helvetica" font-size="18.75" lengthAdjust="spacing" textLength="162.5793" x="1620.4219" y="429.2816">write curated tables</text></g><!--link uc to vs--><g class="link" data-entity-1="ent0012" data-entity-2="ent0011" data-link-type="dependency" data-source-line="40" id="lnk29"><path d="M1495.7656,534.9688 C1422.9375,561.4531 1326.9831,596.3291 1250.1081,624.2666" fill="none" id="uc-to-vs" style="stroke:#334155;stroke-width:1.875;"/><polygon fill="#334155" points="1241.2969,627.4688,1256.6484,628.5397,1248.6395,624.8003,1252.3789,616.7914,1241.2969,627.4688" style="stroke:#334155;stroke-width:1.875;"/><text fill="#334155" font-family="Helvetica" font-size="18.75" lengthAdjust="spacing" textLength="209.5184" x="1401.9688" y="585.5316">publish indexable chunks</text></g><!--link jobs to mlflow--><g class="link" data-entity-1="ent0013" data-entity-2="ent0014" data-link-type="dependency" data-source-line="41" id="lnk30"><path d="M1538.1094,381.2344 C1457.0313,405.9062 1360.9375,435.1563 1360.9375,435.1563 C1360.9375,435.1563 1294.7328,454.0642 1230.389,472.4549" fill="none" id="jobs-to-mlflow" style="stroke:#334155;stroke-width:1.875;"/><polygon fill="#334155" points="1221.375,475.0313,1236.6136,477.176,1228.8867,472.8843,1233.1785,465.1573,1221.375,475.0313" style="stroke:#334155;stroke-width:1.875;"/><text fill="#334155" font-family="Helvetica" font-size="18.75" lengthAdjust="spacing" textLength="123.9807" x="1431.9844" y="429.2816">refresh metrics</text></g><!--link nb to mlflow--><g class="link" data-entity-1="ent0004" data-entity-2="ent0014" data-link-type="dependency" data-source-line="42" id="lnk31"><path d="M228.7656,381.2344 C274.8906,397.3906 320.3125,413.2813 320.3125,413.2813 C320.3125,413.2813 364.0625,435.1563 364.0625,435.1563 C364.0625,435.1563 828.8466,474.9199 1031.6435,492.2636" fill="none" id="nb-to-mlflow" style="stroke:#334155;stroke-width:1.875;"/><polygon fill="#334155" points="1040.9844,493.0625,1027.5056,485.6369,1033.2003,492.3968,1026.4404,498.0915,1040.9844,493.0625" style="stroke:#334155;stroke-width:1.875;"/><text fill="#334155" font-family="Helvetica" font-size="18.75" lengthAdjust="spacing" textLength="214.1693" x="365.625" y="429.2816">eval + regression tracking</text></g><!--link gate to mlflow--><g class="link" data-entity-1="ent0006" data-entity-2="ent0014" data-link-type="dependency" data-source-line="43" id="lnk32"><path d="M465.7031,649.2656 C676.7656,628.0313 1040.625,591.4063 1040.625,591.4063 C1040.625,591.4063 1064.1783,568.6689 1089.7251,543.997" fill="none" id="gate-to-mlflow" style="stroke:#334155;stroke-width:1.875;"/><polygon fill="#334155" points="1096.4688,537.4844,1082.0116,542.7576,1090.8491,542.9116,1090.6951,551.7491,1096.4688,537.4844" style="stroke:#334155;stroke-width:1.875;"/><text fill="#334155" font-family="Helvetica" font-size="18.75" lengthAdjust="spacing" textLength="93.8049" x="1064.0938" y="585.5316">quality logs</text></g><g class="legend" data-source-line="53"><rect fill="none" height="125" rx="9.375" ry="9.375" style="stroke:#000000;stroke-width:1.5625;" width="423.5809" x="867.8062" y="933.5938"/><text fill="#000000" font-family="Helvetica" font-size="21.875" lengthAdjust="spacing" textLength="336.7981" x="875.6187" y="958.2504">Solid arrows: request/answer path.</text><text fill="#000000" font-family="Helvetica" font-size="21.875" lengthAdjust="spacing" textLength="387.886" x="875.6187" y="980.1254">Dashed arrows: scheduled refresh path.</text><text fill="#000000" font-family="Helvetica" font-size="21.875" lengthAdjust="spacing" textLength="351.442" x="875.6187" y="1002.0004">Blue/purple: notebook orchestration.</text><text fill="#000000" font-family="Helvetica" font-size="21.875" lengthAdjust="spacing" textLength="407.9559" x="875.6187" y="1023.8754">Yellow/green: model serving + operations.</text><text fill="#000000" font-family="Helvetica" font-size="21.875" lengthAdjust="spacing" textLength="308.8455" x="875.6187" y="1045.7504">Red: policy and quality controls.</text></g><?plantuml-src VLNRRXit47tdLqpj5mknPDTEucOV0jYwz2K92hjNG410aIE9NIwv9RcIZQ10FY9Vs2_f3Bcws0NwP5fpF-VCx7V6ATjfXC_ADurtexPhh4WcMOJRJsFuv-itcDpT_mvZtxJUeKjm6zJQ95If2mXd4vda8XXLH_XPXXMcWOXAKdGZ7-7gzUKbR8rEQo6aIZx0oIUVSE5z3Lt401U06saxIQOJa37_A99l8NbO-9Hy0ze4gcMy4wALgfOhX1FkB7VbTjb2vv9fC2Vft_15072iT2lgvr1PUPU2jnR3t9r9fpxhHNWScVR9BGOvWLl0wUHkUZkRFi_ma6J27uDir-0918mfSEUK9VWk8GpVatSA1ZVzEqXNysk5Zju9ItgEXTFfvVHcDdjUu2TlZNg2L_1N9wr9Jx2Y84gl35Kc2CwXSmf3aiQbftE8Sed3I72LlEmCfxFfz6fwzJplFSRE9bZwqCYKyjmS1ae67QaSpQ6G_ZOorDflNSctR1BXC9wDfpVYRo6S9vcS7F6zzQ6En4b1NIyUNoB-aI8iF63O6BUQkyoOMii4w7JhQOOSQ6t3NS-knpV_6uxD0hMcv_Dm-laeN7DxCbBqhvW5zu2IuJPEuoEDlIAcwAcfZyxLiGowYJJdPF8sytt8y47Mc5yNy8jZDiPaidu57pyihTy2-LcCHRUA27qtUVEIqDy88lQDyATVnBcZxaarX7GUXZoN0UCwfs07Ia9mZ-zUu93BpLrcYUdYdM6LbzgDpTqm1k_6ryoKihxJLDpKfaLj98MqtOAa1T5tGVKzzsyXyYOEIQQa-mg-7v2n9WLIeoGv6fugxHTDa0-xPWrNS3KuEBw2iWMyNlYOH7PXNsQeWkj1FpG51DPuOK2mzIZZ9jCM3z54JWMl1xlDeibBWZCIyB0U2B8VXPUaB6LCagay96ATLV1c07iDj86EMX9iE4gXWrmca2vkwHRje_DoLV1s0CfAqt29tLP6aOtinIjJmGr1s5Bo3TUGJzPBBTYon_W77YVIFILnHJeaZHGYypyQlT_nGcvBJ5HTUnMBbUD9QHLiWs6WExufkjUX8CiUhqntx6NFvXtQ-pozQggT1XamMkku8tXlpv0JjxWYjyX4imvhKl9XxBtpxcxHbaI-66JlpxXVPWZ5B20Eao75zMSuLdCNkNI2p2WTfVPyxfGaN8PB4sXT2lMHVesDvBiD6fUIBrh39s8aw21aXVwdPAV4k4U93bxWZuU9aDO8iajh7pA3TAqBvdD75nAU7uuTF0pSSI6BA_wdb18FTBWro11erHdIl1GNHKCaWRGUYOcCQppuCEswiuSZqBlTsGulsYwq5gl3v-tmkI42Hk8Fj8Jt1J62hYeWG2ntagZoBHP7QlWUDQcXV5Qaqtk2Tk3daSeiuby0?></g></svg>