<?plantuml 1.2026.1?><svg xmlns="http://www.w3.org/2000/svg" xmlns:xlink="http://www.w3.org/1999/xlink" contentStyleType="text/css" data-diagram-type="DESCRIPTION" height="1112.5px" preserveAspectRatio="none" style="width:1073px;height:1112px;background:#FFFFFF;" version="1.1" viewBox="0 0 1073 1112" width="1073.4375px" zoomAndPan="magnify"><title>ANC Target App &#8212; C1 System Context</title><defs/><g><g class="title" data-source-line="2"><text fill="#000000" font-family="Helvetica" font-size="21.875" font-weight="bold" lengthAdjust="spacing" textLength="402.3163" x="324.8022" y="32.4692">ANC Target App &#8212; C1 System Context</text></g><!--cluster ext--><g class="cluster" data-qualified-name="ext" data-source-line="9" id="ent0004"><rect fill="#F8FAFC" height="535.9375" rx="9.375" ry="9.375" style="stroke:#334155;stroke-width:1.5625;" width="440.2812" x="624.0469" y="438.2813"/><text fill="#0F172A" font-family="Helvetica" font-size="18.75" font-weight="bold" lengthAdjust="spacing" textLength="154.2572" x="628.7344" y="455.8441">External systems</text></g><!--entity ios--><g class="entity" data-qualified-name="ext.ios" data-source-line="10" id="ent0005"><rect fill="#DCFCE7" height="68.75" rx="9.375" ry="9.375" style="stroke:#334155;stroke-width:0.7813;" width="251.1322" x="718.625" y="749.2188"/><text fill="#0F172A" font-family="Helvetica" font-size="18.75" lengthAdjust="spacing" textLength="31.2561" x="734.25" y="779.2816">iOS</text><text fill="#0F172A" font-family="Helvetica" font-size="18.75" lengthAdjust="spacing" textLength="5.2094" x="765.5061" y="779.2816">&#160;</text><text fill="#0F172A" font-family="Helvetica" font-size="18.75" lengthAdjust="spacing" textLength="54.1992" x="770.7155" y="779.2816">device</text><text fill="#0F172A" font-family="Helvetica" font-size="18.75" lengthAdjust="spacing" textLength="5.2094" x="824.9147" y="779.2816">&#160;</text><text fill="#0F172A" font-family="Helvetica" font-size="18.75" lengthAdjust="spacing" textLength="68.7653" x="830.124" y="779.2816">services</text><text fill="#0F172A" font-family="Helvetica" font-size="18.75" lengthAdjust="spacing" textLength="72.9309" x="734.25" y="798.0316">(Camera</text><text fill="#0F172A" font-family="Helvetica" font-size="18.75" lengthAdjust="spacing" textLength="5.2094" x="807.1809" y="798.0316">&#160;</text><text fill="#0F172A" font-family="Helvetica" font-size="18.75" lengthAdjust="spacing" textLength="10.9497" x="812.3903" y="798.0316">+</text><text fill="#0F172A" font-family="Helvetica" font-size="18.75" lengthAdjust="spacing" textLength="5.2094" x="823.34" y="798.0316">&#160;</text><text fill="#0F172A" font-family="Helvetica" font-size="18.75" lengthAdjust="spacing" textLength="39.5966" x="828.5493" y="798.0316">GPS</text><text fill="#0F172A" font-family="Helvetica" font-size="18.75" lengthAdjust="spacing" textLength="5.2094" x="868.1459" y="798.0316">&#160;</text><text fill="#0F172A" font-family="Helvetica" font-size="18.75" lengthAdjust="spacing" textLength="10.9497" x="873.3552" y="798.0316">+</text><text fill="#0F172A" font-family="Helvetica" font-size="18.75" lengthAdjust="spacing" textLength="5.2094" x="884.3049" y="798.0316">&#160;</text><text fill="#0F172A" font-family="Helvetica" font-size="18.75" lengthAdjust="spacing" textLength="64.6179" x="889.5143" y="798.0316">Photos)</text></g><!--entity wiki--><g class="entity" data-qualified-name="ext.wiki" data-source-line="11" id="ent0006"><path d="M722.2108,651.3568 C725.7576,641.6982 733.2479,641.4684 739.22,648.9502 C743.4773,641.2127 751.4888,638.8849 756.5964,648.0775 C760.9904,639.3704 768.9535,639.6174 774.0227,647.3623 C779.2086,638.4035 788.1501,637.3301 793.335,647.3633 C797.0617,639.0814 804.8017,636.9249 810.8087,644.9146 C814.7969,635.216 823.5214,634.8041 829.0521,643.3742 C832.6028,635.5874 839.9581,633.5723 845.019,641.8755 C850.4944,632.6152 858.9113,634.4248 862.8903,643.3463 C869.7296,635.5777 877.8473,637.5935 881.5568,646.7899 C885.9764,639.0193 892.7966,638.243 898.4415,645.4044 C906.041,636.3475 912.3733,639.383 917.3392,648.1903 C924.3372,639.2174 931.6092,639.3749 936.8058,649.9813 C942.6488,644.0831 947.7634,643.778 952.2974,651.473 C957.7302,642.8783 963.7007,642.9103 970.6374,649.6777 C982.8811,653.2314 985.4883,660.0862 977.9409,670.5614 C985.4119,679.127 983.6326,689.5627 970.9696,691.3891 C967.6827,700.1972 959.1727,701.9399 953.2678,694.1876 C946.7612,702.3468 941.0444,703.6352 934.8525,693.8644 C931.7426,703.4942 923.4271,703.3347 918.0976,696.0651 C913.2915,705.112 905.5646,705.5829 899.2845,697.7034 C894.9142,707.7873 887.9977,707.1856 881.8285,699.4674 C878.5886,709.0191 871.6673,711.8248 864.0334,703.9558 C858.9862,712.6092 852.458,712.1945 847.4117,703.955 C842.0042,712.1964 831.8683,714.1337 827.0613,703.3139 C820.1336,710.5139 813.1766,709.9243 808.5028,700.758 C802.107,707.4024 797.0109,708.1722 792.293,699.0346 C786.2205,707.6187 778.9833,704.8533 774.8149,697.0088 C769.275,704.2516 762.3902,705.5985 757.7833,696.0618 C749.758,703.5679 743.5821,702.4909 739.6331,691.9599 C734.4724,698.9684 727.3047,699.3797 722.383,691.6796 C712.7162,687.3734 710.6666,679.9994 718.1767,672.0183 C710.93,663.3882 712.1408,656.6059 722.2108,651.3568" fill="#ECFDF5" style="stroke:#065F46;stroke-width:0.7813;"/><text fill="#0F172A" font-family="Helvetica" font-size="18.75" lengthAdjust="spacing" textLength="81.2805" x="730.0938" y="674.5941">Wikipedia</text><text fill="#0F172A" font-family="Helvetica" font-size="18.75" lengthAdjust="spacing" textLength="5.2094" x="811.3743" y="674.5941">&#160;</text><text fill="#0F172A" font-family="Helvetica" font-size="18.75" lengthAdjust="spacing" textLength="5.2094" x="816.5836" y="674.5941">/</text><text fill="#0F172A" font-family="Helvetica" font-size="18.75" lengthAdjust="spacing" textLength="5.2094" x="821.793" y="674.5941">&#160;</text><text fill="#0F172A" font-family="Helvetica" font-size="18.75" lengthAdjust="spacing" textLength="86.4716" x="827.0023" y="674.5941">Wikimedia</text><text fill="#0F172A" font-family="Helvetica" font-size="18.75" lengthAdjust="spacing" textLength="5.2094" x="913.4739" y="674.5941">&#160;</text><text fill="#0F172A" font-family="Helvetica" font-size="18.75" lengthAdjust="spacing" textLength="39.5966" x="918.6832" y="674.5941">APIs</text></g><!--entity geo--><g class="entity" data-qualified-name="ext.geo" data-source-line="12" id="ent0007"><path d="M724.659,880.3494 C728.8745,872.5974 733.5076,870.8816 740.2119,877.6913 C744.6165,868.0689 754.1434,867.1356 760.8333,874.9958 C763.6494,867.6634 769.5135,866.3871 774.8763,872.2946 C780.6235,863.6776 789.6413,863.264 795.3382,872.3527 C798.881,864.1675 803.6157,862.3476 810.8928,868.2209 C815.1322,859.5496 820.7404,859.464 827.5418,865.2758 C834.1688,856.5804 841.5977,855.9069 847.3263,866.2113 C852.8321,859.8827 859.6657,859.1273 863.7791,867.7442 C870.236,860.1569 876.9491,862.2126 881.3071,870.1188 C886.1833,862.168 892.3127,862.1088 897.2926,870.0143 C903.48,863.8582 909.2649,863.8538 913.7433,871.9824 C919.9361,864.466 929.5843,863.6716 933.3766,874.5452 C939.5026,867.7329 947.4863,869.4352 949.9524,878.3922 C955.9455,870.8361 963.1828,871.7559 967.3944,880.3199 C986.515,882.7611 990.0666,894.7621 980.8106,910.0212 C991.5801,923.4652 985.6605,937.8977 968.3812,939.5252 C961.978,948.6197 954.7753,948.1257 948.8251,939.038 C943.28,946.6225 937.8376,946.4888 932.3755,938.9477 C929.6026,947.1314 921.7269,949.6147 915.446,942.9463 C909.9583,949.7424 904.1387,949.7658 898.8488,942.7093 C893.9103,952.6167 885.5206,951.7085 880.222,943.071 C875.9815,951.8179 869.8382,951.0067 863.8056,945.0752 C858.9965,952.2109 851.9787,953.7246 847.033,945.2216 C841.687,953.2947 834.5087,955.5972 828.1669,946.3034 C822.1035,953.1793 814.6182,951.3053 812.3539,942.4778 C806.4794,950.7769 798.6685,953.6682 792.2797,943.0228 C786.2403,951.6061 780.8979,950.8815 775.9898,941.9695 C771.6638,950.9389 763.3535,949.6079 759.2691,941.7298 C752.5549,950.3533 745.781,948.5823 740.1556,940.4852 C734.2574,947.1459 726.8736,946.7661 722.9327,938.2621 C708.2876,931.5713 708.9981,919.6014 719.7752,910.0639 C707.3754,898.7397 709.6728,887.1725 724.659,880.3494" fill="#F0FDF4" style="stroke:#065F46;stroke-width:0.7813;"/><text fill="#0F172A" font-family="Helvetica" font-size="18.75" lengthAdjust="spacing" textLength="51.0681" x="733.7188" y="902.7191">Public</text><text fill="#0F172A" font-family="Helvetica" font-size="18.75" lengthAdjust="spacing" textLength="5.2094" x="784.7869" y="902.7191">&#160;</text><text fill="#0F172A" font-family="Helvetica" font-size="18.75" lengthAdjust="spacing" textLength="67.7765" x="789.9962" y="902.7191">geodata</text><text fill="#0F172A" font-family="Helvetica" font-size="18.75" lengthAdjust="spacing" textLength="5.2094" x="857.7727" y="902.7191">&#160;</text><text fill="#0F172A" font-family="Helvetica" font-size="18.75" lengthAdjust="spacing" textLength="39.5966" x="862.9821" y="902.7191">APIs</text><text fill="#0F172A" font-family="Helvetica" font-size="18.75" lengthAdjust="spacing" textLength="59.3811" x="733.7188" y="921.4691">(USGS</text><text fill="#0F172A" font-family="Helvetica" font-size="18.75" lengthAdjust="spacing" textLength="5.2094" x="793.0999" y="921.4691">&#160;</text><text fill="#0F172A" font-family="Helvetica" font-size="18.75" lengthAdjust="spacing" textLength="10.9497" x="798.3092" y="921.4691">+</text><text fill="#0F172A" font-family="Helvetica" font-size="18.75" lengthAdjust="spacing" textLength="5.2094" x="809.2589" y="921.4691">&#160;</text><text fill="#0F172A" font-family="Helvetica" font-size="18.75" lengthAdjust="spacing" textLength="51.059" x="814.4683" y="921.4691">maps,</text><text fill="#0F172A" font-family="Helvetica" font-size="18.75" lengthAdjust="spacing" textLength="5.2094" x="865.5272" y="921.4691">&#160;</text><text fill="#0F172A" font-family="Helvetica" font-size="18.75" lengthAdjust="spacing" textLength="51.0864" x="870.7366" y="921.4691">phase</text><text fill="#0F172A" font-family="Helvetica" font-size="18.75" lengthAdjust="spacing" textLength="5.2094" x="921.823" y="921.4691">&#160;</text><text fill="#0F172A" font-family="Helvetica" font-size="18.75" lengthAdjust="spacing" textLength="27.6215" x="927.0323" y="921.4691">2+)</text></g><!--entity dbx--><g class="entity" data-qualified-name="ext.dbx" data-source-line="13" id="ent0008"><path d="M661.9184,501.4509 C671.1176,489.8321 679.5651,489.009 687.7306,502.5131 C694.3766,490.0933 707.5785,486.3066 716.1268,500.4821 C722.8953,488.5858 736.9104,484.9926 744.522,499.5781 C750.0043,484.6715 761.6891,483.4972 770.557,496.4096 C777.3024,487.2841 785.6189,486.2662 792.8113,495.8789 C799.9997,482.2614 811.6189,482.2483 820.3065,494.2713 C830.0734,479.1777 840.6304,483.7147 848.8118,495.9264 C856.976,484.8405 865.9212,482.8294 874.0176,495.9968 C883.531,484.712 890.7762,486.549 898.1359,498.256 C907.212,482.4501 915.9125,481.396 926.9497,496.4234 C933.933,485.2059 944.956,488.2819 949.9396,498.5618 C959.5764,484.2467 968.0817,483.2142 978.3511,497.943 C986.441,487.5422 997.7404,485.7014 1003.9304,499.9173 C1011.2252,488.7691 1021.1853,489.2633 1028.4857,499.9109 C1049.837,504.3166 1057.8096,521.1744 1045.5205,539.9077 C1062.8581,557.6692 1057.3979,578.2516 1031.6526,581.7256 C1021.1412,594.0942 1009.5273,594.4532 1001.0757,579.4266 C995.425,590.6423 985.1319,588.7218 979.1516,579.7852 C972.446,596.0878 959.7416,596.5791 949.226,583.6912 C944.1442,596.6672 934.085,596.3784 926.265,586.4343 C918.2226,597.5709 905.9894,596.2674 900.4761,583.6846 C894.5008,597.1777 884.349,598.3393 874.7876,587.4652 C866.8963,600.2747 852.5311,601.7514 846.3138,585.8075 C839.9221,596.9685 829.9117,598.0311 821.3857,588.3616 C809.495,601.4734 800.266,597.7269 792.5862,583.8656 C784.6921,596.5668 777.406,596.9517 768.9559,584.3856 C759.3525,596.854 749.8039,597.4423 740.4586,584.1006 C732.5189,594.7513 721.1667,595.5139 714.7879,582.4137 C706.5663,592.2505 695.9241,592.3427 690.2872,579.6081 C681.8184,590.2783 670.23,589.8726 663.2145,577.8724 C639.9206,573.9595 633.2617,559.9963 646.741,540.0618 C635.0662,523.3919 637.6153,503.9784 661.9184,501.4509" fill="#FEF3C7" style="stroke:#065F46;stroke-width:0.7813;"/><text fill="#0F172A" font-family="Helvetica" font-size="18.75" lengthAdjust="spacing" textLength="88.5681" x="672.4844" y="524.5941">Databricks</text><text fill="#0F172A" font-family="Helvetica" font-size="18.75" lengthAdjust="spacing" textLength="5.2094" x="761.0525" y="524.5941">&#160;</text><text fill="#0F172A" font-family="Helvetica" font-size="18.75" lengthAdjust="spacing" textLength="17.7155" x="766.2618" y="524.5941">AI</text><text fill="#0F172A" font-family="Helvetica" font-size="18.75" lengthAdjust="spacing" textLength="5.2094" x="783.9773" y="524.5941">&#160;</text><text fill="#0F172A" font-family="Helvetica" font-size="18.75" lengthAdjust="spacing" textLength="67.7307" x="789.1866" y="524.5941">platform</text><text fill="#0F172A" font-family="Helvetica" font-size="18.75" lengthAdjust="spacing" textLength="57.312" x="672.4844" y="543.3441">(Model</text><text fill="#0F172A" font-family="Helvetica" font-size="18.75" lengthAdjust="spacing" textLength="5.2094" x="729.7964" y="543.3441">&#160;</text><text fill="#0F172A" font-family="Helvetica" font-size="18.75" lengthAdjust="spacing" textLength="63.5742" x="735.0057" y="543.3441">Serving</text><text fill="#0F172A" font-family="Helvetica" font-size="18.75" lengthAdjust="spacing" textLength="5.2094" x="798.58" y="543.3441">&#160;</text><text fill="#0F172A" font-family="Helvetica" font-size="18.75" lengthAdjust="spacing" textLength="10.9497" x="803.7893" y="543.3441">+</text><text fill="#0F172A" font-family="Helvetica" font-size="18.75" lengthAdjust="spacing" textLength="5.2094" x="814.739" y="543.3441">&#160;</text><text fill="#0F172A" font-family="Helvetica" font-size="18.75" lengthAdjust="spacing" textLength="54.1901" x="819.9484" y="543.3441">Vector</text><text fill="#0F172A" font-family="Helvetica" font-size="18.75" lengthAdjust="spacing" textLength="5.2094" x="874.1384" y="543.3441">&#160;</text><text fill="#0F172A" font-family="Helvetica" font-size="18.75" lengthAdjust="spacing" textLength="59.4086" x="879.3478" y="543.3441">Search</text><text fill="#0F172A" font-family="Helvetica" font-size="18.75" lengthAdjust="spacing" textLength="5.2094" x="938.7563" y="543.3441">&#160;</text><text fill="#0F172A" font-family="Helvetica" font-size="18.75" lengthAdjust="spacing" textLength="10.9497" x="943.9657" y="543.3441">+</text><text fill="#0F172A" font-family="Helvetica" font-size="18.75" lengthAdjust="spacing" textLength="5.2094" x="954.9154" y="543.3441">&#160;</text><text fill="#0F172A" font-family="Helvetica" font-size="18.75" lengthAdjust="spacing" textLength="39.6057" x="960.1248" y="543.3441">Jobs</text><text fill="#0F172A" font-family="Helvetica" font-size="18.75" lengthAdjust="spacing" textLength="5.2094" x="999.7305" y="543.3441">&#160;</text><text fill="#0F172A" font-family="Helvetica" font-size="18.75" lengthAdjust="spacing" textLength="10.9497" x="1004.9398" y="543.3441">+</text><text fill="#0F172A" font-family="Helvetica" font-size="18.75" lengthAdjust="spacing" textLength="65.6342" x="672.4844" y="562.0941">MLflow)</text></g><!--entity user--><g class="entity" data-qualified-name="user" data-source-line="6" id="ent0002"><ellipse cx="844.1854" cy="76.5625" fill="#E0F2FE" rx="12.5" ry="12.5" style="stroke:#0369A1;stroke-width:0.7813;"/><path d="M844.1854,89.0625 L844.1854,131.25 M823.8729,101.5625 L864.4979,101.5625 M844.1854,131.25 L823.8729,154.6875 M844.1854,131.25 L864.4979,154.6875" fill="none" style="stroke:#0369A1;stroke-width:0.7813;"/><text fill="#0F172A" font-family="Helvetica" font-size="18.75" lengthAdjust="spacing" textLength="40.6403" x="787.3906" y="171.4691">Field</text><text fill="#0F172A" font-family="Helvetica" font-size="18.75" lengthAdjust="spacing" textLength="5.2094" x="828.0309" y="171.4691">&#160;</text><text fill="#0F172A" font-family="Helvetica" font-size="18.75" lengthAdjust="spacing" textLength="67.7399" x="833.2402" y="171.4691">explorer</text></g><!--entity anc--><g class="entity" data-qualified-name="anc" data-source-line="7" id="ent0003"><rect fill="#DBEAFE" height="68.75" rx="9.375" ry="9.375" style="stroke:#334155;stroke-width:0.7813;" width="211.5448" x="10.9375" y="552.3438"/><text fill="#0F172A" font-family="Helvetica" font-size="18.75" lengthAdjust="spacing" textLength="79.1931" x="26.5625" y="582.4066">Naturalist</text><text fill="#0F172A" font-family="Helvetica" font-size="18.75" lengthAdjust="spacing" textLength="5.2094" x="105.7556" y="582.4066">&#160;</text><text fill="#0F172A" font-family="Helvetica" font-size="18.75" lengthAdjust="spacing" textLength="95.8923" x="110.965" y="582.4066">Companion</text><text fill="#0F172A" font-family="Helvetica" font-size="18.75" lengthAdjust="spacing" textLength="60.434" x="26.5625" y="601.1566">(Target</text><text fill="#0F172A" font-family="Helvetica" font-size="18.75" lengthAdjust="spacing" textLength="5.2094" x="86.9965" y="601.1566">&#160;</text><text fill="#0F172A" font-family="Helvetica" font-size="18.75" lengthAdjust="spacing" textLength="65.625" x="92.2058" y="601.1566">system)</text></g><g class="entity" data-qualified-name="GMN16" data-source-line="25" id="ent0017"><path d="M671.4531,232.0313 L671.4531,285.1563 A9.375,9.375 0 0 0 680.8281,294.5313 L1007.5524,294.5313 A9.375,9.375 0 0 0 1016.9274,285.1563 L1016.9274,238.2813 L1001.3024,222.6563 L680.8281,222.6563 A9.375,9.375 0 0 0 671.4531,232.0313" fill="#FFFBEB" style="stroke:#B45309;stroke-width:0.7813;"/><path d="M1001.3024,222.6563 L1001.3024,233.5938 A4.6875,4.6875 0 0 0 1005.9899,238.2813 L1016.9274,238.2813 L1001.3024,222.6563" fill="#FFFBEB" style="stroke:#B45309;stroke-width:1.5625;"/><text fill="#92400E" font-family="Helvetica" font-size="18.75" lengthAdjust="spacing" textLength="64.6179" x="680.8281" y="244.9066">Product</text><text fill="#92400E" font-family="Helvetica" font-size="18.75" lengthAdjust="spacing" textLength="5.2094" x="745.446" y="244.9066">&#160;</text><text fill="#92400E" font-family="Helvetica" font-size="18.75" lengthAdjust="spacing" textLength="55.2429" x="750.6554" y="244.9066">scope:</text><text fill="#92400E" font-family="Helvetica" font-size="18.75" lengthAdjust="spacing" textLength="5.2094" x="805.8983" y="244.9066">&#160;</text><text fill="#92400E" font-family="Helvetica" font-size="18.75" lengthAdjust="spacing" textLength="42.7368" x="811.1077" y="244.9066">route</text><text fill="#92400E" font-family="Helvetica" font-size="18.75" lengthAdjust="spacing" textLength="5.2094" x="853.8445" y="244.9066">&#160;</text><text fill="#92400E" font-family="Helvetica" font-size="18.75" lengthAdjust="spacing" textLength="45.8771" x="859.0538" y="244.9066">guide</text><text fill="#92400E" font-family="Helvetica" font-size="18.75" lengthAdjust="spacing" textLength="5.2094" x="904.9309" y="244.9066">&#160;</text><text fill="#92400E" font-family="Helvetica" font-size="18.75" lengthAdjust="spacing" textLength="10.9497" x="910.1403" y="244.9066">+</text><text fill="#92400E" font-family="Helvetica" font-size="18.75" lengthAdjust="spacing" textLength="5.2094" x="921.09" y="244.9066">&#160;</text><text fill="#92400E" font-family="Helvetica" font-size="18.75" lengthAdjust="spacing" textLength="62.5214" x="926.2993" y="244.9066">camera</text><text fill="#92400E" font-family="Helvetica" font-size="18.75" lengthAdjust="spacing" textLength="153.2135" x="680.8281" y="263.6566">identification\nwith</text><text fill="#92400E" font-family="Helvetica" font-size="18.75" lengthAdjust="spacing" textLength="5.2094" x="834.0416" y="263.6566">&#160;</text><text fill="#92400E" font-family="Helvetica" font-size="18.75" lengthAdjust="spacing" textLength="57.312" x="839.251" y="263.6566">explicit</text><text fill="#92400E" font-family="Helvetica" font-size="18.75" lengthAdjust="spacing" textLength="5.2094" x="896.563" y="263.6566">&#160;</text><text fill="#92400E" font-family="Helvetica" font-size="18.75" lengthAdjust="spacing" textLength="91.7175" x="901.7723" y="263.6566">uncertainty</text><text fill="#92400E" font-family="Helvetica" font-size="18.75" lengthAdjust="spacing" textLength="31.2836" x="680.8281" y="282.4066">and</text><text fill="#92400E" font-family="Helvetica" font-size="18.75" lengthAdjust="spacing" textLength="5.2094" x="712.1117" y="282.4066">&#160;</text><text fill="#92400E" font-family="Helvetica" font-size="18.75" lengthAdjust="spacing" textLength="56.2775" x="717.321" y="282.4066">source</text><text fill="#92400E" font-family="Helvetica" font-size="18.75" lengthAdjust="spacing" textLength="5.2094" x="773.5985" y="282.4066">&#160;</text><text fill="#92400E" font-family="Helvetica" font-size="18.75" lengthAdjust="spacing" textLength="42.7185" x="778.8079" y="282.4066">links.</text></g><g class="entity" data-qualified-name="GMN19" data-source-line="29" id="ent0020"><path d="M676.625,350.7813 L676.625,403.9063 A9.375,9.375 0 0 0 686,413.2813 L1002.3605,413.2813 A9.375,9.375 0 0 0 1011.7355,403.9063 L1011.7355,357.0313 L996.1105,341.4063 L686,341.4063 A9.375,9.375 0 0 0 676.625,350.7813" fill="#FFFBEB" style="stroke:#B45309;stroke-width:0.7813;"/><path d="M996.1105,341.4063 L996.1105,352.3438 A4.6875,4.6875 0 0 0 1000.798,357.0313 L1011.7355,357.0313 L996.1105,341.4063" fill="#FFFBEB" style="stroke:#B45309;stroke-width:1.5625;"/><text fill="#92400E" font-family="Helvetica" font-size="18.75" lengthAdjust="spacing" textLength="64.5813" x="686" y="363.6566">Primary</text><text fill="#92400E" font-family="Helvetica" font-size="18.75" lengthAdjust="spacing" textLength="5.2094" x="750.5813" y="363.6566">&#160;</text><text fill="#92400E" font-family="Helvetica" font-size="18.75" lengthAdjust="spacing" textLength="17.7155" x="755.7906" y="363.6566">AI</text><text fill="#92400E" font-family="Helvetica" font-size="18.75" lengthAdjust="spacing" textLength="5.2094" x="773.5061" y="363.6566">&#160;</text><text fill="#92400E" font-family="Helvetica" font-size="18.75" lengthAdjust="spacing" textLength="80.2643" x="778.7155" y="363.6566">execution</text><text fill="#92400E" font-family="Helvetica" font-size="18.75" lengthAdjust="spacing" textLength="5.2094" x="858.9797" y="363.6566">&#160;</text><text fill="#92400E" font-family="Helvetica" font-size="18.75" lengthAdjust="spacing" textLength="45.8771" x="864.1891" y="363.6566">plane</text><text fill="#92400E" font-family="Helvetica" font-size="18.75" lengthAdjust="spacing" textLength="5.2094" x="910.0662" y="363.6566">&#160;</text><text fill="#92400E" font-family="Helvetica" font-size="18.75" lengthAdjust="spacing" textLength="21.8811" x="915.2755" y="363.6566">for</text><text fill="#92400E" font-family="Helvetica" font-size="18.75" lengthAdjust="spacing" textLength="166.7725" x="686" y="382.4066">grounded\nretrieval,</text><text fill="#92400E" font-family="Helvetica" font-size="18.75" lengthAdjust="spacing" textLength="5.2094" x="852.7725" y="382.4066">&#160;</text><text fill="#92400E" font-family="Helvetica" font-size="18.75" lengthAdjust="spacing" textLength="93.8232" x="857.9818" y="382.4066">generation,</text><text fill="#92400E" font-family="Helvetica" font-size="18.75" lengthAdjust="spacing" textLength="5.2094" x="951.8051" y="382.4066">&#160;</text><text fill="#92400E" font-family="Helvetica" font-size="18.75" lengthAdjust="spacing" textLength="31.2836" x="957.0144" y="382.4066">and</text><text fill="#92400E" font-family="Helvetica" font-size="18.75" lengthAdjust="spacing" textLength="90.6921" x="686" y="401.1566">evaluation.</text></g><!--link user to anc--><g class="link" data-entity-1="ent0002" data-entity-2="ent0003" data-link-type="dependency" data-source-line="16" id="lnk9"><path d="M786.6875,138.8281 C718.2969,162.4063 611.5469,199.2188 611.5469,199.2188 C611.5469,199.2188 255.2969,380.4688 255.2969,380.4688 C255.2969,380.4688 185.7972,485.0819 146.7035,543.9256" fill="none" id="user-to-anc" style="stroke:#334155;stroke-width:1.875;"/><polygon fill="#334155" points="141.5156,551.7344,154.5033,543.4798,145.8388,545.2271,144.0916,536.5627,141.5156,551.7344" style="stroke:#334155;stroke-width:1.875;"/><text fill="#334155" font-family="Helvetica" font-size="18.75" lengthAdjust="spacing" textLength="239.7034" x="307.6406" y="200.5472">asks route/camera questions</text></g><!--link anc to user--><g class="link" data-entity-1="ent0003" data-entity-2="ent0002" data-link-type="dependency" data-source-line="22" id="lnk15"><path d="M129.7188,552.2656 C162.6563,453.125 255.2969,174.2188 255.2969,174.2188 C255.2969,174.2188 630.8998,139.2445 777.5092,125.5882" fill="none" id="anc-to-user" style="stroke:#334155;stroke-width:1.875;"/><polygon fill="#334155" points="786.8438,124.7188,772.2622,119.7999,779.0649,125.4433,773.4215,132.246,786.8438,124.7188" style="stroke:#334155;stroke-width:1.875;"/><text fill="#334155" font-family="Helvetica" font-size="18.75" lengthAdjust="spacing" textLength="341.8579" x="256.8594" y="137.7191">stop cards + camera guidance + citations</text></g><!--link anc to ios--><g class="link" data-entity-1="ent0003" data-entity-2="ent0005" data-link-type="dependency" data-source-line="17" id="lnk10"><path d="M172.0313,621.6563 C210.4219,646.6094 255.2969,675.7813 255.2969,675.7813 C255.2969,675.7813 536.4354,727.385 708.8416,759.0413" fill="none" id="anc-to-ios" style="stroke:#334155;stroke-width:1.875;"/><polygon fill="#334155" points="718.0625,760.7344,705.3599,752.0475,710.3785,759.3235,703.1025,764.342,718.0625,760.7344" style="stroke:#334155;stroke-width:1.875;"/><text fill="#334155" font-family="Helvetica" font-size="18.75" lengthAdjust="spacing" textLength="210.0403" x="322.4844" y="669.9066">capture photos + location</text></g><!--link ios to anc--><g class="link" data-entity-1="ent0005" data-entity-2="ent0003" data-link-type="dependency" data-source-line="18" id="lnk11"><path d="M718.0625,780.6094 C545.6563,776.4844 255.2969,769.5313 255.2969,769.5313 C255.2969,769.5313 189.7468,682.0805 149.9968,629.0336" fill="none" id="ios-to-anc" style="stroke:#334155;stroke-width:1.875;"/><polygon fill="#334155" points="144.375,621.5313,147.8061,636.5327,149.0598,627.7832,157.8093,629.037,144.375,621.5313" style="stroke:#334155;stroke-width:1.875;"/><text fill="#334155" font-family="Helvetica" font-size="18.75" lengthAdjust="spacing" textLength="169.3726" x="342.7969" y="763.6566">media + coordinates</text></g><!--link anc to wiki--><g class="link" data-entity-1="ent0003" data-entity-2="ent0006" data-link-type="dependency" data-source-line="19" id="lnk12"><path d="M222.8281,604.6094 C241.5781,607.8125 255.2969,610.1563 255.2969,610.1563 C255.2969,610.1563 523.5788,637.2754 697.0788,654.8223" fill="none" id="anc-to-wiki" style="stroke:#334155;stroke-width:1.875;"/><polygon fill="#334155" points="706.4063,655.7656,693.044,648.1324,698.6334,654.9795,691.7862,660.5689,706.4063,655.7656" style="stroke:#334155;stroke-width:1.875;"/><text fill="#334155" font-family="Helvetica" font-size="18.75" lengthAdjust="spacing" textLength="152.1423" x="351.3906" y="604.2816">retrieve cited facts</text></g><!--link anc to geo--><g class="link" data-entity-1="ent0003" data-entity-2="ent0007" data-link-type="dependency" data-source-line="20" id="lnk13"><path d="M139.6875,621.625 C178.2188,684.4688 255.2969,810.1563 255.2969,810.1563 C255.2969,810.1563 527.6094,855.0677 700.8282,883.6458" fill="none" id="anc-to-geo" style="stroke:#334155;stroke-width:1.875;"/><polygon fill="#334155" points="710.0781,885.1719,697.2206,876.7161,702.3698,883.9001,695.1858,889.0494,710.0781,885.1719" style="stroke:#334155;stroke-width:1.875;"/><text fill="#334155" font-family="Helvetica" font-size="18.75" lengthAdjust="spacing" textLength="163.6414" x="345.9219" y="804.2816">optional enrichment</text></g><!--link anc to dbx--><g class="link" data-entity-1="ent0003" data-entity-2="ent0008" data-link-type="dependency" data-source-line="21" id="lnk14"><path d="M222.8281,579.7344 C333.8906,572.2969 502.6459,561.0166 639.474,551.8603" fill="none" id="anc-to-dbx" style="stroke:#334155;stroke-width:1.875;"/><polygon fill="#334155" points="648.8281,551.2344,634.3797,545.9373,641.0331,551.756,635.2143,558.4094,648.8281,551.2344" style="stroke:#334155;stroke-width:1.875;"/><text fill="#334155" font-family="Helvetica" font-size="18.75" lengthAdjust="spacing" textLength="316.8823" x="269.3594" y="549.4535">grounded generation + retrieval + eval</text></g><!--link anc to GMN16--><g class="link" data-entity-1="ent0003" data-entity-2="ent0017" data-link-type="association" data-source-line="25" id="lnk18"><path d="M182.7656,551.5781 C316.4688,478.7344 611.5469,317.9688 611.5469,317.9688 C611.5469,317.9688 652.6719,307.4063 700.2188,295.1875" fill="none" id="anc-GMN16" style="stroke:#334155;stroke-width:1.875;stroke-dasharray:10.9375,10.9375;"/></g><!--link dbx to GMN19--><g class="link" data-entity-1="ent0008" data-entity-2="ent0020" data-link-type="association" data-source-line="29" id="lnk21"><path d="M844.1875,485.9688 C844.1875,485.1094 844.1875,484.6406 844.1875,484.6406 C844.1875,484.6406 844.1875,430.9844 844.1875,430.9844 C844.1875,430.9844 844.1875,423.4531 844.1875,414.0156" fill="none" id="dbx-GMN19" style="stroke:#334155;stroke-width:1.875;stroke-dasharray:10.9375,10.9375;"/></g><g class="legend" data-source-line="32"><rect fill="none" height="81.25" rx="9.375" ry="9.375" style="stroke:#000000;stroke-width:1.5625;" width="447.2717" x="302.3245" y="1000.7813"/><text fill="#000000" font-family="Helvetica" font-size="21.875" lengthAdjust="spacing" textLength="257.8217" x="310.137" y="1025.4379">Blue: target app boundary.</text><text fill="#000000" font-family="Helvetica" font-size="21.875" lengthAdjust="spacing" textLength="431.6467" x="310.137" y="1047.3129">Green: user/device and public data systems.</text><text fill="#000000" font-family="Helvetica" font-size="21.875" lengthAdjust="spacing" textLength="423.1125" x="310.137" y="1069.1879">Amber: Databricks AI platform dependency.</text></g><?plantuml-src RPHBRjim48RtFCNKsRHmulI905eKS1GxID6a1jp79a11asEPC4Mov2YnKHJe8Nh2dgH3Ih2pwCOIwPd_c_avr3FZbEqqmdVbszQxIUXQAyYGHPZUrV1PnWO9fY70tzz_e7u5otqYRA7sZd17GbXS4v27Q9eDWJOH5HdlX92AV8JHtA3LWBjWVSGu0fcWInX5ZfEkOSxeJb8NfJM9MBODqd7-lNi-i5C1lYYPqYaukRgSJUSp8O9KMzbm_cn769sqGsWgeLmS_1G0JpZcqn8qFXY5m1NaPs9CBLkC4iPmlLZoxsBZoQSUPtnYN3slPnUifAplD8o-cQq9g8s4SyZlRNcVBcvwxYDlmScidb_DtnsJ5jtA6WKDUYsfZsRqb-LrHhOof5C86vaGNezxD4V2oVmbgxmzgbnnxYeQjKqmlO5W9QrzR5derckqiCnDkOOLls8nVuaogWslF_XLuiVjnxNrZpr0htOCcCtVr1VYbn3vJE3ix7snkE80PaJV4PwhtfyV7QPyi4daY1oPtQb0oS2dXrn-zeqXrYjP9Y3_VrJiRHg3yZvguoJXKQbuLl5HKJJuWA0CeOOrJz0n9XjIWGzPceyQ7VkmQT7H8I9tL473LJlDwGqwhZk7CtMGviGnvCSXgVHTGI8Vk9MeSmT3nqrdD8TXtZ4a--Q5yuJ3iFjrxaqiejUTua5LFc3LkrQIyQZ52qTcRNfhxjsZeKsv58QbeMDA96aSxLbHG_9TPAurRfic0dadKmVsoXFvDiEvOOQRLiPzdWVSeUfAlpmP3e5du-36lJiuSFh4cTE2oxjTMJ-5MMpoeiU9IzjnRzHVIScVWrKMPl94N4T4LnKdpuVhbLL3F_9bteUBEH7JTeMnWlyFCb_Em4XqQbyAwIiG_m00?></g></svg>