<?plantuml 1.2026.1?><svg xmlns="http://www.w3.org/2000/svg" xmlns:xlink="http://www.w3.org/1999/xlink" contentStyleType="text/css" data-diagram-type="DESCRIPTION" height="1660.9375px" preserveAspectRatio="none" style="width:2120px;height:1660px;background:#FFFFFF;" version="1.1" viewBox="0 0 2120 1660" width="2120.3125px" zoomAndPan="magnify"><title>ANC Target App &#8212; C2 Container View</title><defs/><g><g class="title" data-source-line="2"><text fill="#000000" font-family="Helvetica" font-size="21.875" font-weight="bold" lengthAdjust="spacing" textLength="395.0104" x="852.0814" y="32.4692">ANC Target App &#8212; C2 Container View</text></g><!--cluster client--><g class="cluster" data-qualified-name="client" data-source-line="8" id="ent0003"><rect fill="#F8FAFC" height="142.1875" rx="9.375" ry="9.375" style="stroke:#334155;stroke-width:1.5625;" width="396.875" x="444.625" y="255.4688"/><text fill="#0F172A" font-family="Helvetica" font-size="18.75" font-weight="bold" lengthAdjust="spacing" textLength="107.3273" x="449.3125" y="273.0316">Client Layer</text></g><!--cluster edge--><g class="cluster" data-qualified-name="edge" data-source-line="12" id="ent0005"><rect fill="#F8FAFC" height="473.4375" rx="9.375" ry="9.375" style="stroke:#334155;stroke-width:1.5625;" width="893.75" x="232.125" y="469.5313"/><text fill="#0F172A" font-family="Helvetica" font-size="18.75" font-weight="bold" lengthAdjust="spacing" textLength="169.8669" x="236.8125" y="487.0941">Backend API Layer</text></g><!--cluster dbx--><g class="cluster" data-qualified-name="dbx" data-source-line="19" id="ent0010"><rect fill="#F8FAFC" height="464.0625" rx="9.375" ry="9.375" style="stroke:#334155;stroke-width:1.5625;" width="953.125" x="393.0625" y="1014.8438"/><text fill="#0F172A" font-family="Helvetica" font-size="18.75" font-weight="bold" lengthAdjust="spacing" textLength="232.3883" x="397.75" y="1032.4066">Databricks Platform Layer</text></g><!--entity iosapp--><g class="entity" data-qualified-name="client.iosapp" data-source-line="9" id="ent0004"><rect fill="#DBEAFE" height="68.75" rx="9.375" ry="9.375" style="stroke:#334155;stroke-width:0.7813;" width="345.99" x="470.0625" y="303.9063"/><text fill="#0F172A" font-family="Helvetica" font-size="18.75" lengthAdjust="spacing" textLength="39.5874" x="485.6875" y="333.9691">ANC</text><text fill="#0F172A" font-family="Helvetica" font-size="18.75" lengthAdjust="spacing" textLength="5.2094" x="525.2749" y="333.9691">&#160;</text><text fill="#0F172A" font-family="Helvetica" font-size="18.75" lengthAdjust="spacing" textLength="31.2561" x="530.4843" y="333.9691">iOS</text><text fill="#0F172A" font-family="Helvetica" font-size="18.75" lengthAdjust="spacing" textLength="5.2094" x="561.7404" y="333.9691">&#160;</text><text fill="#0F172A" font-family="Helvetica" font-size="18.75" lengthAdjust="spacing" textLength="31.2836" x="566.9497" y="333.9691">app</text><text fill="#0F172A" font-family="Helvetica" font-size="18.75" lengthAdjust="spacing" textLength="24.9939" x="485.6875" y="352.7191">(UI</text><text fill="#0F172A" font-family="Helvetica" font-size="18.75" lengthAdjust="spacing" textLength="5.2094" x="510.6814" y="352.7191">&#160;</text><text fill="#0F172A" font-family="Helvetica" font-size="18.75" lengthAdjust="spacing" textLength="10.9497" x="515.8907" y="352.7191">+</text><text fill="#0F172A" font-family="Helvetica" font-size="18.75" lengthAdjust="spacing" textLength="5.2094" x="526.8405" y="352.7191">&#160;</text><text fill="#0F172A" font-family="Helvetica" font-size="18.75" lengthAdjust="spacing" textLength="42.7368" x="532.0498" y="352.7191">route</text><text fill="#0F172A" font-family="Helvetica" font-size="18.75" lengthAdjust="spacing" textLength="5.2094" x="574.7866" y="352.7191">&#160;</text><text fill="#0F172A" font-family="Helvetica" font-size="18.75" lengthAdjust="spacing" textLength="62.5488" x="579.996" y="352.7191">planner</text><text fill="#0F172A" font-family="Helvetica" font-size="18.75" lengthAdjust="spacing" textLength="5.2094" x="642.5448" y="352.7191">&#160;</text><text fill="#0F172A" font-family="Helvetica" font-size="18.75" lengthAdjust="spacing" textLength="10.9497" x="647.7542" y="352.7191">+</text><text fill="#0F172A" font-family="Helvetica" font-size="18.75" lengthAdjust="spacing" textLength="5.2094" x="658.7039" y="352.7191">&#160;</text><text fill="#0F172A" font-family="Helvetica" font-size="18.75" lengthAdjust="spacing" textLength="62.5214" x="663.9132" y="352.7191">camera</text><text fill="#0F172A" font-family="Helvetica" font-size="18.75" lengthAdjust="spacing" textLength="5.2094" x="726.4346" y="352.7191">&#160;</text><text fill="#0F172A" font-family="Helvetica" font-size="18.75" lengthAdjust="spacing" textLength="68.7836" x="731.6439" y="352.7191">capture)</text></g><!--entity api--><g class="entity" data-qualified-name="edge.api" data-source-line="13" id="ent0006"><rect fill="#E0E7FF" height="68.75" rx="9.375" ry="9.375" style="stroke:#334155;stroke-width:0.7813;" width="218.8507" x="533.6406" y="517.9688"/><text fill="#0F172A" font-family="Helvetica" font-size="18.75" lengthAdjust="spacing" textLength="30.2216" x="549.2656" y="548.0316">API</text><text fill="#0F172A" font-family="Helvetica" font-size="18.75" lengthAdjust="spacing" textLength="5.2094" x="579.4872" y="548.0316">&#160;</text><text fill="#0F172A" font-family="Helvetica" font-size="18.75" lengthAdjust="spacing" textLength="69.8364" x="584.6965" y="548.0316">gateway</text><text fill="#0F172A" font-family="Helvetica" font-size="18.75" lengthAdjust="spacing" textLength="92.7704" x="549.2656" y="566.7816">(/api/guide,</text><text fill="#0F172A" font-family="Helvetica" font-size="18.75" lengthAdjust="spacing" textLength="5.2094" x="642.036" y="566.7816">&#160;</text><text fill="#0F172A" font-family="Helvetica" font-size="18.75" lengthAdjust="spacing" textLength="89.621" x="647.2454" y="566.7816">/api/vision)</text></g><!--entity guide--><g class="entity" data-qualified-name="edge.guide" data-source-line="14" id="ent0007"><rect fill="#BFDBFE" height="68.75" rx="9.375" ry="9.375" style="stroke:#334155;stroke-width:0.7813;" width="253.2288" x="847.7031" y="683.5938"/><text fill="#0F172A" font-family="Helvetica" font-size="18.75" lengthAdjust="spacing" textLength="50.0336" x="863.3281" y="713.6566">Route</text><text fill="#0F172A" font-family="Helvetica" font-size="18.75" lengthAdjust="spacing" textLength="5.2094" x="913.3617" y="713.6566">&#160;</text><text fill="#0F172A" font-family="Helvetica" font-size="18.75" lengthAdjust="spacing" textLength="45.8771" x="918.571" y="713.6566">guide</text><text fill="#0F172A" font-family="Helvetica" font-size="18.75" lengthAdjust="spacing" textLength="5.2094" x="964.4481" y="713.6566">&#160;</text><text fill="#0F172A" font-family="Helvetica" font-size="18.75" lengthAdjust="spacing" textLength="59.3903" x="969.6575" y="713.6566">service</text><text fill="#0F172A" font-family="Helvetica" font-size="18.75" lengthAdjust="spacing" textLength="102.1362" x="863.3281" y="732.4066">(StateGraph</text><text fill="#0F172A" font-family="Helvetica" font-size="18.75" lengthAdjust="spacing" textLength="5.2094" x="965.4644" y="732.4066">&#160;</text><text fill="#0F172A" font-family="Helvetica" font-size="18.75" lengthAdjust="spacing" textLength="114.6332" x="970.6737" y="732.4066">orchestration)</text></g><!--entity vision--><g class="entity" data-qualified-name="edge.vision" data-source-line="15" id="ent0008"><rect fill="#BBF7D0" height="87.5" rx="9.375" ry="9.375" style="stroke:#334155;stroke-width:0.7813;" width="296.4691" x="504.2031" y="674.2188"/><text fill="#0F172A" font-family="Helvetica" font-size="18.75" lengthAdjust="spacing" textLength="51.0681" x="519.8281" y="704.2816">Vision</text><text fill="#0F172A" font-family="Helvetica" font-size="18.75" lengthAdjust="spacing" textLength="5.2094" x="570.8962" y="704.2816">&#160;</text><text fill="#0F172A" font-family="Helvetica" font-size="18.75" lengthAdjust="spacing" textLength="59.3903" x="576.1056" y="704.2816">service</text><text fill="#0F172A" font-family="Helvetica" font-size="18.75" lengthAdjust="spacing" textLength="57.312" x="519.8281" y="723.0316">(image</text><text fill="#0F172A" font-family="Helvetica" font-size="18.75" lengthAdjust="spacing" textLength="5.2094" x="577.1401" y="723.0316">&#160;</text><text fill="#0F172A" font-family="Helvetica" font-size="18.75" lengthAdjust="spacing" textLength="106.2927" x="582.3495" y="723.0316">classification</text><text fill="#0F172A" font-family="Helvetica" font-size="18.75" lengthAdjust="spacing" textLength="5.2094" x="688.6422" y="723.0316">&#160;</text><text fill="#0F172A" font-family="Helvetica" font-size="18.75" lengthAdjust="spacing" textLength="10.9497" x="693.8516" y="723.0316">+</text><text fill="#0F172A" font-family="Helvetica" font-size="18.75" lengthAdjust="spacing" textLength="5.2094" x="704.8013" y="723.0316">&#160;</text><text fill="#0F172A" font-family="Helvetica" font-size="18.75" lengthAdjust="spacing" textLength="75.0366" x="710.0106" y="723.0316">follow-up</text><text fill="#0F172A" font-family="Helvetica" font-size="18.75" lengthAdjust="spacing" textLength="73.9746" x="519.8281" y="741.7816">prompts)</text></g><!--entity policy--><g class="entity" data-qualified-name="edge.policy" data-source-line="16" id="ent0009"><rect fill="#FECACA" height="68.75" rx="9.375" ry="9.375" style="stroke:#334155;stroke-width:0.7813;" width="275.1007" x="257.0781" y="849.2188"/><text fill="#0F172A" font-family="Helvetica" font-size="18.75" lengthAdjust="spacing" textLength="84.4299" x="272.7031" y="879.2816">Response</text><text fill="#0F172A" font-family="Helvetica" font-size="18.75" lengthAdjust="spacing" textLength="5.2094" x="357.1331" y="879.2816">&#160;</text><text fill="#0F172A" font-family="Helvetica" font-size="18.75" lengthAdjust="spacing" textLength="47.937" x="362.3424" y="879.2816">policy</text><text fill="#0F172A" font-family="Helvetica" font-size="18.75" lengthAdjust="spacing" textLength="5.2094" x="410.2794" y="879.2816">&#160;</text><text fill="#0F172A" font-family="Helvetica" font-size="18.75" lengthAdjust="spacing" textLength="59.3903" x="415.4888" y="879.2816">service</text><text fill="#0F172A" font-family="Helvetica" font-size="18.75" lengthAdjust="spacing" textLength="80.2368" x="272.7031" y="898.0316">(citations,</text><text fill="#0F172A" font-family="Helvetica" font-size="18.75" lengthAdjust="spacing" textLength="5.2094" x="352.9399" y="898.0316">&#160;</text><text fill="#0F172A" font-family="Helvetica" font-size="18.75" lengthAdjust="spacing" textLength="55.2338" x="358.1493" y="898.0316">safety,</text><text fill="#0F172A" font-family="Helvetica" font-size="18.75" lengthAdjust="spacing" textLength="5.2094" x="413.3831" y="898.0316">&#160;</text><text fill="#0F172A" font-family="Helvetica" font-size="18.75" lengthAdjust="spacing" textLength="97.9614" x="418.5924" y="898.0316">uncertainty)</text></g><!--entity serving--><g class="entity" data-qualified-name="dbx.serving" data-source-line="20" id="ent0011"><rect fill="#FEF3C7" height="68.75" rx="9.375" ry="9.375" style="stroke:#334155;stroke-width:0.7813;" width="326.2054" x="417.4531" y="1063.2813"/><text fill="#0F172A" font-family="Helvetica" font-size="18.75" lengthAdjust="spacing" textLength="51.0681" x="433.0781" y="1093.3441">Model</text><text fill="#0F172A" font-family="Helvetica" font-size="18.75" lengthAdjust="spacing" textLength="5.2094" x="484.1462" y="1093.3441">&#160;</text><text fill="#0F172A" font-family="Helvetica" font-size="18.75" lengthAdjust="spacing" textLength="63.5742" x="489.3556" y="1093.3441">Serving</text><text fill="#0F172A" font-family="Helvetica" font-size="18.75" lengthAdjust="spacing" textLength="36.4746" x="433.0781" y="1112.0941">LLM</text><text fill="#0F172A" font-family="Helvetica" font-size="18.75" lengthAdjust="spacing" textLength="5.2094" x="469.5527" y="1112.0941">&#160;</text><text fill="#0F172A" font-family="Helvetica" font-size="18.75" lengthAdjust="spacing" textLength="10.9497" x="474.7621" y="1112.0941">+</text><text fill="#0F172A" font-family="Helvetica" font-size="18.75" lengthAdjust="spacing" textLength="5.2094" x="485.7118" y="1112.0941">&#160;</text><text fill="#0F172A" font-family="Helvetica" font-size="18.75" lengthAdjust="spacing" textLength="102.1545" x="490.9211" y="1112.0941">embeddings</text><text fill="#0F172A" font-family="Helvetica" font-size="18.75" lengthAdjust="spacing" textLength="5.2094" x="593.0757" y="1112.0941">&#160;</text><text fill="#0F172A" font-family="Helvetica" font-size="18.75" lengthAdjust="spacing" textLength="10.9497" x="598.285" y="1112.0941">+</text><text fill="#0F172A" font-family="Helvetica" font-size="18.75" lengthAdjust="spacing" textLength="5.2094" x="609.2347" y="1112.0941">&#160;</text><text fill="#0F172A" font-family="Helvetica" font-size="18.75" lengthAdjust="spacing" textLength="47.937" x="614.4441" y="1112.0941">vision</text><text fill="#0F172A" font-family="Helvetica" font-size="18.75" lengthAdjust="spacing" textLength="5.2094" x="662.3811" y="1112.0941">&#160;</text><text fill="#0F172A" font-family="Helvetica" font-size="18.75" lengthAdjust="spacing" textLength="60.4431" x="667.5905" y="1112.0941">models</text></g><!--entity vs--><g class="entity" data-qualified-name="dbx.vs" data-source-line="21" id="ent0012"><path d="M1102.3906,1405.4688 C1102.3906,1389.8438 1202.4364,1389.8438 1202.4364,1389.8438 C1202.4364,1389.8438 1302.4822,1389.8438 1302.4822,1405.4688 L1302.4822,1438.2813 C1302.4822,1453.9063 1202.4364,1453.9063 1202.4364,1453.9063 C1202.4364,1453.9063 1102.3906,1453.9063 1102.3906,1438.2813 L1102.3906,1405.4688" fill="#DDD6FE" style="stroke:#3730A3;stroke-width:0.7813;"/><path d="M1102.3906,1405.4688 C1102.3906,1421.0938 1202.4364,1421.0938 1202.4364,1421.0938 C1202.4364,1421.0938 1302.4822,1421.0938 1302.4822,1405.4688" fill="none" style="stroke:#3730A3;stroke-width:0.7813;"/><text fill="#0F172A" font-family="Helvetica" font-size="18.75" lengthAdjust="spacing" textLength="54.1901" x="1118.0156" y="1441.7816">Vector</text><text fill="#0F172A" font-family="Helvetica" font-size="18.75" lengthAdjust="spacing" textLength="5.2094" x="1172.2057" y="1441.7816">&#160;</text><text fill="#0F172A" font-family="Helvetica" font-size="18.75" lengthAdjust="spacing" textLength="59.4086" x="1177.415" y="1441.7816">Search</text><text fill="#0F172A" font-family="Helvetica" font-size="18.75" lengthAdjust="spacing" textLength="5.2094" x="1236.8236" y="1441.7816">&#160;</text><text fill="#0F172A" font-family="Helvetica" font-size="18.75" lengthAdjust="spacing" textLength="44.8242" x="1242.033" y="1441.7816">index</text></g><!--entity lake--><g class="entity" data-qualified-name="dbx.lake" data-source-line="22" id="ent0013"><path d="M801.8281,1235.1563 C801.8281,1219.5313 982.1245,1219.5313 982.1245,1219.5313 C982.1245,1219.5313 1162.4208,1219.5313 1162.4208,1235.1563 L1162.4208,1286.7188 C1162.4208,1302.3438 982.1245,1302.3438 982.1245,1302.3438 C982.1245,1302.3438 801.8281,1302.3438 801.8281,1286.7188 L801.8281,1235.1563" fill="#E9D5FF" style="stroke:#3730A3;stroke-width:0.7813;"/><path d="M801.8281,1235.1563 C801.8281,1250.7813 982.1245,1250.7813 982.1245,1250.7813 C982.1245,1250.7813 1162.4208,1250.7813 1162.4208,1235.1563" fill="none" style="stroke:#3730A3;stroke-width:0.7813;"/><text fill="#0F172A" font-family="Helvetica" font-size="18.75" lengthAdjust="spacing" textLength="81.3171" x="817.4531" y="1271.4691">Lakebase</text><text fill="#0F172A" font-family="Helvetica" font-size="18.75" lengthAdjust="spacing" textLength="5.2094" x="898.7703" y="1271.4691">&#160;</text><text fill="#0F172A" font-family="Helvetica" font-size="18.75" lengthAdjust="spacing" textLength="5.2094" x="903.9796" y="1271.4691">/</text><text fill="#0F172A" font-family="Helvetica" font-size="18.75" lengthAdjust="spacing" textLength="5.2094" x="909.189" y="1271.4691">&#160;</text><text fill="#0F172A" font-family="Helvetica" font-size="18.75" lengthAdjust="spacing" textLength="42.7185" x="914.3983" y="1271.4691">Unity</text><text fill="#0F172A" font-family="Helvetica" font-size="18.75" lengthAdjust="spacing" textLength="5.2094" x="957.1168" y="1271.4691">&#160;</text><text fill="#0F172A" font-family="Helvetica" font-size="18.75" lengthAdjust="spacing" textLength="64.6271" x="962.3262" y="1271.4691">Catalog</text><text fill="#0F172A" font-family="Helvetica" font-size="18.75" lengthAdjust="spacing" textLength="5.2094" x="1026.9532" y="1271.4691">&#160;</text><text fill="#0F172A" font-family="Helvetica" font-size="18.75" lengthAdjust="spacing" textLength="59.3903" x="1032.1626" y="1271.4691">MLflow</text><text fill="#0F172A" font-family="Helvetica" font-size="18.75" lengthAdjust="spacing" textLength="5.2094" x="1091.5529" y="1271.4691">&#160;</text><text fill="#0F172A" font-family="Helvetica" font-size="18.75" lengthAdjust="spacing" textLength="50.0336" x="1096.7622" y="1271.4691">tables</text><text fill="#0F172A" font-family="Helvetica" font-size="18.75" lengthAdjust="spacing" textLength="48.9807" x="817.4531" y="1290.2191">(route</text><text fill="#0F172A" font-family="Helvetica" font-size="18.75" lengthAdjust="spacing" textLength="5.2094" x="866.4338" y="1290.2191">&#160;</text><text fill="#0F172A" font-family="Helvetica" font-size="18.75" lengthAdjust="spacing" textLength="63.5742" x="871.6432" y="1290.2191">corpora</text><text fill="#0F172A" font-family="Helvetica" font-size="18.75" lengthAdjust="spacing" textLength="5.2094" x="935.2174" y="1290.2191">&#160;</text><text fill="#0F172A" font-family="Helvetica" font-size="18.75" lengthAdjust="spacing" textLength="10.9497" x="940.4268" y="1290.2191">+</text><text fill="#0F172A" font-family="Helvetica" font-size="18.75" lengthAdjust="spacing" textLength="5.2094" x="951.3765" y="1290.2191">&#160;</text><text fill="#0F172A" font-family="Helvetica" font-size="18.75" lengthAdjust="spacing" textLength="84.4208" x="956.5858" y="1290.2191">metadata)</text></g><!--entity jobs--><g class="entity" data-qualified-name="dbx.jobs" data-source-line="23" id="ent0014"><rect fill="#ECFCCB" height="68.75" rx="9.375" ry="9.375" style="stroke:#334155;stroke-width:0.7813;" width="273.0499" x="790.9063" y="1063.2813"/><text fill="#0F172A" font-family="Helvetica" font-size="18.75" lengthAdjust="spacing" textLength="39.6057" x="806.5313" y="1093.3441">Jobs</text><text fill="#0F172A" font-family="Helvetica" font-size="18.75" lengthAdjust="spacing" textLength="5.2094" x="846.137" y="1093.3441">&#160;</text><text fill="#0F172A" font-family="Helvetica" font-size="18.75" lengthAdjust="spacing" textLength="10.9497" x="851.3463" y="1093.3441">+</text><text fill="#0F172A" font-family="Helvetica" font-size="18.75" lengthAdjust="spacing" textLength="5.2094" x="862.296" y="1093.3441">&#160;</text><text fill="#0F172A" font-family="Helvetica" font-size="18.75" lengthAdjust="spacing" textLength="86.4624" x="867.5054" y="1093.3441">Workflows</text><text fill="#0F172A" font-family="Helvetica" font-size="18.75" lengthAdjust="spacing" textLength="55.2429" x="806.5313" y="1112.0941">ingest,</text><text fill="#0F172A" font-family="Helvetica" font-size="18.75" lengthAdjust="spacing" textLength="5.2094" x="861.7742" y="1112.0941">&#160;</text><text fill="#0F172A" font-family="Helvetica" font-size="18.75" lengthAdjust="spacing" textLength="55.2429" x="866.9835" y="1112.0941">chunk,</text><text fill="#0F172A" font-family="Helvetica" font-size="18.75" lengthAdjust="spacing" textLength="5.2094" x="922.2264" y="1112.0941">&#160;</text><text fill="#0F172A" font-family="Helvetica" font-size="18.75" lengthAdjust="spacing" textLength="57.3303" x="927.4358" y="1112.0941">embed</text><text fill="#0F172A" font-family="Helvetica" font-size="18.75" lengthAdjust="spacing" textLength="5.2094" x="984.7661" y="1112.0941">&#160;</text><text fill="#0F172A" font-family="Helvetica" font-size="18.75" lengthAdjust="spacing" textLength="58.3557" x="989.9755" y="1112.0941">refresh</text></g><!--entity obs--><g class="entity" data-qualified-name="dbx.obs" data-source-line="24" id="ent0015"><rect fill="#FEF9C3" height="68.75" rx="9.375" ry="9.375" style="stroke:#334155;stroke-width:0.7813;" width="209.9976" x="1111.5" y="1063.2813"/><text fill="#0F172A" font-family="Helvetica" font-size="18.75" lengthAdjust="spacing" textLength="59.3903" x="1127.125" y="1093.3441">MLflow</text><text fill="#0F172A" font-family="Helvetica" font-size="18.75" lengthAdjust="spacing" textLength="5.2094" x="1186.5153" y="1093.3441">&#160;</text><text fill="#0F172A" font-family="Helvetica" font-size="18.75" lengthAdjust="spacing" textLength="10.9497" x="1191.7246" y="1093.3441">+</text><text fill="#0F172A" font-family="Helvetica" font-size="18.75" lengthAdjust="spacing" textLength="5.2094" x="1202.6743" y="1093.3441">&#160;</text><text fill="#0F172A" font-family="Helvetica" font-size="18.75" lengthAdjust="spacing" textLength="97.9889" x="1207.8837" y="1093.3441">dashboards</text><text fill="#0F172A" font-family="Helvetica" font-size="18.75" lengthAdjust="spacing" textLength="34.3964" x="1127.125" y="1112.0941">eval</text><text fill="#0F172A" font-family="Helvetica" font-size="18.75" lengthAdjust="spacing" textLength="5.2094" x="1161.5214" y="1112.0941">&#160;</text><text fill="#0F172A" font-family="Helvetica" font-size="18.75" lengthAdjust="spacing" textLength="10.9497" x="1166.7307" y="1112.0941">+</text><text fill="#0F172A" font-family="Helvetica" font-size="18.75" lengthAdjust="spacing" textLength="5.2094" x="1177.6804" y="1112.0941">&#160;</text><text fill="#0F172A" font-family="Helvetica" font-size="18.75" lengthAdjust="spacing" textLength="59.4086" x="1182.8898" y="1112.0941">latency</text><text fill="#0F172A" font-family="Helvetica" font-size="18.75" lengthAdjust="spacing" textLength="5.2094" x="1242.2983" y="1112.0941">&#160;</text><text fill="#0F172A" font-family="Helvetica" font-size="18.75" lengthAdjust="spacing" textLength="10.9497" x="1247.5077" y="1112.0941">+</text><text fill="#0F172A" font-family="Helvetica" font-size="18.75" lengthAdjust="spacing" textLength="5.2094" x="1258.4574" y="1112.0941">&#160;</text><text fill="#0F172A" font-family="Helvetica" font-size="18.75" lengthAdjust="spacing" textLength="31.2561" x="1263.6667" y="1112.0941">drift</text></g><!--entity user--><g class="entity" data-qualified-name="user" data-source-line="6" id="ent0002"><ellipse cx="643.0604" cy="76.5625" fill="#E0F2FE" rx="12.5" ry="12.5" style="stroke:#0369A1;stroke-width:0.7813;"/><path d="M643.0604,89.0625 L643.0604,131.25 M622.7479,101.5625 L663.3729,101.5625 M643.0604,131.25 L622.7479,154.6875 M643.0604,131.25 L663.3729,154.6875" fill="none" style="stroke:#0369A1;stroke-width:0.7813;"/><text fill="#0F172A" font-family="Helvetica" font-size="18.75" lengthAdjust="spacing" textLength="40.6403" x="586.2656" y="171.4691">Field</text><text fill="#0F172A" font-family="Helvetica" font-size="18.75" lengthAdjust="spacing" textLength="5.2094" x="626.9059" y="171.4691">&#160;</text><text fill="#0F172A" font-family="Helvetica" font-size="18.75" lengthAdjust="spacing" textLength="67.7399" x="632.1152" y="171.4691">explorer</text></g><!--entity wiki--><g class="entity" data-qualified-name="wiki" data-source-line="27" id="ent0016"><path d="M1386.7108,1242.763 C1390.2576,1233.1045 1397.7479,1232.8746 1403.72,1240.3564 C1407.9773,1232.6189 1415.9888,1230.2912 1421.0964,1239.4838 C1425.4904,1230.7767 1433.4535,1231.0236 1438.5227,1238.7685 C1443.7086,1229.8098 1452.6501,1228.7363 1457.835,1238.7696 C1461.5617,1230.4876 1469.3017,1228.3312 1475.3087,1236.3209 C1479.2969,1226.6222 1488.0214,1226.2104 1493.5521,1234.7805 C1497.1028,1226.9936 1504.4581,1224.9786 1509.519,1233.2818 C1514.9944,1224.0215 1523.4113,1225.8311 1527.3903,1234.7526 C1534.2296,1226.984 1542.3473,1228.9998 1546.0568,1238.1962 C1550.4764,1230.4256 1557.2966,1229.6493 1562.9415,1236.8106 C1570.541,1227.7537 1576.8733,1230.7892 1581.8392,1239.5966 C1588.8372,1230.6237 1596.1092,1230.7812 1601.3058,1241.3875 C1607.1488,1235.4894 1612.2634,1235.1842 1616.7974,1242.8793 C1622.2302,1234.2846 1628.2007,1234.3165 1635.1374,1241.0839 C1647.3811,1244.6377 1649.9883,1251.4925 1642.4409,1261.9677 C1649.9119,1270.5333 1648.1326,1280.9689 1635.4696,1282.7953 C1632.1827,1291.6035 1623.6727,1293.3462 1617.7678,1285.5938 C1611.2612,1293.7531 1605.5444,1295.0414 1599.3525,1285.2706 C1596.2426,1294.9005 1587.9271,1294.7409 1582.5976,1287.4713 C1577.7915,1296.5183 1570.0646,1296.9891 1563.7845,1289.1097 C1559.4142,1299.1936 1552.4977,1298.5919 1546.3285,1290.8736 C1543.0886,1300.4254 1536.1673,1303.231 1528.5334,1295.3621 C1523.4862,1304.0154 1516.958,1303.6008 1511.9117,1295.3613 C1506.5042,1303.6027 1496.3683,1305.5399 1491.5613,1294.7201 C1484.6336,1301.9201 1477.6766,1301.3306 1473.0028,1292.1642 C1466.607,1298.8086 1461.5109,1299.5785 1456.793,1290.4409 C1450.7205,1299.0249 1443.4833,1296.2595 1439.3149,1288.4151 C1433.775,1295.6579 1426.8902,1297.0047 1422.2833,1287.4681 C1414.258,1294.9741 1408.0821,1293.8972 1404.1331,1283.3662 C1398.9724,1290.3747 1391.8047,1290.786 1386.883,1283.0859 C1377.2162,1278.7796 1375.1666,1271.4057 1382.6767,1263.4246 C1375.43,1254.7944 1376.6408,1248.0122 1386.7108,1242.763" fill="#ECFDF5" style="stroke:#065F46;stroke-width:0.7813;"/><text fill="#0F172A" font-family="Helvetica" font-size="18.75" lengthAdjust="spacing" textLength="81.2805" x="1394.5938" y="1266.0004">Wikipedia</text><text fill="#0F172A" font-family="Helvetica" font-size="18.75" lengthAdjust="spacing" textLength="5.2094" x="1475.8743" y="1266.0004">&#160;</text><text fill="#0F172A" font-family="Helvetica" font-size="18.75" lengthAdjust="spacing" textLength="5.2094" x="1481.0836" y="1266.0004">/</text><text fill="#0F172A" font-family="Helvetica" font-size="18.75" lengthAdjust="spacing" textLength="5.2094" x="1486.293" y="1266.0004">&#160;</text><text fill="#0F172A" font-family="Helvetica" font-size="18.75" lengthAdjust="spacing" textLength="86.4716" x="1491.5023" y="1266.0004">Wikimedia</text><text fill="#0F172A" font-family="Helvetica" font-size="18.75" lengthAdjust="spacing" textLength="5.2094" x="1577.9739" y="1266.0004">&#160;</text><text fill="#0F172A" font-family="Helvetica" font-size="18.75" lengthAdjust="spacing" textLength="39.5966" x="1583.1832" y="1266.0004">APIs</text></g><g class="entity" data-qualified-name="GMN36" data-source-line="50" id="ent0037"><path d="M1692.7031,1234.375 L1692.7031,1287.5 A9.375,9.375 0 0 0 1702.0781,1296.875 L1999.6611,1296.875 A9.375,9.375 0 0 0 2009.0361,1287.5 L2009.0361,1240.625 L1993.4111,1225 L1702.0781,1225 A9.375,9.375 0 0 0 1692.7031,1234.375" fill="#FFFBEB" style="stroke:#B45309;stroke-width:0.7813;"/><path d="M1993.4111,1225 L1993.4111,1235.9375 A4.6875,4.6875 0 0 0 1998.0986,1240.625 L2009.0361,1240.625 L1993.4111,1225" fill="#FFFBEB" style="stroke:#B45309;stroke-width:1.5625;"/><text fill="#92400E" font-family="Helvetica" font-size="18.75" lengthAdjust="spacing" textLength="88.6139" x="1702.0781" y="1247.2504">Scheduled</text><text fill="#92400E" font-family="Helvetica" font-size="18.75" lengthAdjust="spacing" textLength="5.2094" x="1790.692" y="1247.2504">&#160;</text><text fill="#92400E" font-family="Helvetica" font-size="18.75" lengthAdjust="spacing" textLength="58.3557" x="1795.9014" y="1247.2504">refresh</text><text fill="#92400E" font-family="Helvetica" font-size="18.75" lengthAdjust="spacing" textLength="5.2094" x="1854.2571" y="1247.2504">&#160;</text><text fill="#92400E" font-family="Helvetica" font-size="18.75" lengthAdjust="spacing" textLength="70.8893" x="1859.4664" y="1247.2504">cadence</text><text fill="#92400E" font-family="Helvetica" font-size="18.75" lengthAdjust="spacing" textLength="5.2094" x="1930.3557" y="1247.2504">&#160;</text><text fill="#92400E" font-family="Helvetica" font-size="18.75" lengthAdjust="spacing" textLength="50.0336" x="1935.5651" y="1247.2504">keeps</text><text fill="#92400E" font-family="Helvetica" font-size="18.75" lengthAdjust="spacing" textLength="64.6271" x="1702.0781" y="1266.0004">indexes</text><text fill="#92400E" font-family="Helvetica" font-size="18.75" lengthAdjust="spacing" textLength="5.2094" x="1766.7052" y="1266.0004">&#160;</text><text fill="#92400E" font-family="Helvetica" font-size="18.75" lengthAdjust="spacing" textLength="83.3496" x="1771.9146" y="1266.0004">warm\nfor</text><text fill="#92400E" font-family="Helvetica" font-size="18.75" lengthAdjust="spacing" textLength="5.2094" x="1855.2642" y="1266.0004">&#160;</text><text fill="#92400E" font-family="Helvetica" font-size="18.75" lengthAdjust="spacing" textLength="55.2338" x="1860.4735" y="1266.0004">mobile</text><text fill="#92400E" font-family="Helvetica" font-size="18.75" lengthAdjust="spacing" textLength="5.2094" x="1915.7073" y="1266.0004">&#160;</text><text fill="#92400E" font-family="Helvetica" font-size="18.75" lengthAdjust="spacing" textLength="59.4086" x="1920.9166" y="1266.0004">latency</text><text fill="#92400E" font-family="Helvetica" font-size="18.75" lengthAdjust="spacing" textLength="62.5305" x="1702.0781" y="1284.7504">targets.</text></g><g class="entity" data-qualified-name="GMN39" data-source-line="54" id="ent0040"><path d="M9.375,1080.4688 L9.375,1114.8438 A9.375,9.375 0 0 0 18.75,1124.2188 L357.9987,1124.2188 A9.375,9.375 0 0 0 367.3737,1114.8438 L367.3737,1086.7188 L351.7487,1071.0938 L219.3906,1071.0938 L361.9375,918.5781 L206.8906,1071.0938 L18.75,1071.0938 A9.375,9.375 0 0 0 9.375,1080.4688" fill="#FFFBEB" style="stroke:#B45309;stroke-width:0.7813;"/><path d="M351.7487,1071.0938 L351.7487,1082.0313 A4.6875,4.6875 0 0 0 356.4362,1086.7188 L367.3737,1086.7188 L351.7487,1071.0938" fill="#FFFBEB" style="stroke:#B45309;stroke-width:0.7813;"/><text fill="#92400E" font-family="Helvetica" font-size="18.75" lengthAdjust="spacing" textLength="38.5712" x="18.75" y="1093.3441">Both</text><text fill="#92400E" font-family="Helvetica" font-size="18.75" lengthAdjust="spacing" textLength="5.2094" x="57.3212" y="1093.3441">&#160;</text><text fill="#92400E" font-family="Helvetica" font-size="18.75" lengthAdjust="spacing" textLength="42.7368" x="62.5305" y="1093.3441">route</text><text fill="#92400E" font-family="Helvetica" font-size="18.75" lengthAdjust="spacing" textLength="5.2094" x="105.2673" y="1093.3441">&#160;</text><text fill="#92400E" font-family="Helvetica" font-size="18.75" lengthAdjust="spacing" textLength="31.2836" x="110.4767" y="1093.3441">and</text><text fill="#92400E" font-family="Helvetica" font-size="18.75" lengthAdjust="spacing" textLength="5.2094" x="141.7603" y="1093.3441">&#160;</text><text fill="#92400E" font-family="Helvetica" font-size="18.75" lengthAdjust="spacing" textLength="47.937" x="146.9696" y="1093.3441">vision</text><text fill="#92400E" font-family="Helvetica" font-size="18.75" lengthAdjust="spacing" textLength="5.2094" x="194.9066" y="1093.3441">&#160;</text><text fill="#92400E" font-family="Helvetica" font-size="18.75" lengthAdjust="spacing" textLength="86.5082" x="200.116" y="1093.3441">responses</text><text fill="#92400E" font-family="Helvetica" font-size="18.75" lengthAdjust="spacing" textLength="5.2094" x="286.6241" y="1093.3441">&#160;</text><text fill="#92400E" font-family="Helvetica" font-size="18.75" lengthAdjust="spacing" textLength="39.6057" x="291.8335" y="1093.3441">pass</text><text fill="#92400E" font-family="Helvetica" font-size="18.75" lengthAdjust="spacing" textLength="136.5601" x="18.75" y="1112.0941">through\nshared</text><text fill="#92400E" font-family="Helvetica" font-size="18.75" lengthAdjust="spacing" textLength="5.2094" x="155.3101" y="1112.0941">&#160;</text><text fill="#92400E" font-family="Helvetica" font-size="18.75" lengthAdjust="spacing" textLength="114.6423" x="160.5194" y="1112.0941">citation/safety</text><text fill="#92400E" font-family="Helvetica" font-size="18.75" lengthAdjust="spacing" textLength="5.2094" x="275.1617" y="1112.0941">&#160;</text><text fill="#92400E" font-family="Helvetica" font-size="18.75" lengthAdjust="spacing" textLength="63.5651" x="280.3711" y="1112.0941">checks.</text></g><!--link user to iosapp--><g class="link" data-entity-1="ent0002" data-entity-2="ent0004" data-link-type="dependency" data-source-line="29" id="lnk17"><path d="M643.0625,176.0625 C643.0625,216.2344 643.0625,260.0469 643.0625,293.9844" fill="none" id="user-to-iosapp" style="stroke:#334155;stroke-width:1.875;"/><polygon fill="#334155" points="643.0625,303.3594,649.3125,289.2969,643.0625,295.5469,636.8125,289.2969,643.0625,303.3594" style="stroke:#334155;stroke-width:1.875;"/><text fill="#334155" font-family="Helvetica" font-size="18.75" lengthAdjust="spacing" textLength="145.9076" x="644.625" y="224.5941">interacts with app</text></g><!--link iosapp to api--><g class="link" data-entity-1="ent0004" data-entity-2="ent0006" data-link-type="dependency" data-source-line="30" id="lnk18"><path d="M643.0625,373.2656 C643.0625,412.7656 643.0625,468.7031 643.0625,508.1406" fill="none" id="iosapp-to-api" style="stroke:#334155;stroke-width:1.875;"/><polygon fill="#334155" points="643.0625,517.5156,649.3125,503.4531,643.0625,509.7031,636.8125,503.4531,643.0625,517.5156" style="stroke:#334155;stroke-width:1.875;"/><text fill="#334155" font-family="Helvetica" font-size="18.75" lengthAdjust="spacing" textLength="275.592" x="644.625" y="438.6566">HTTPS JSON + multipart images</text></g><!--link api to guide--><g class="link" data-entity-1="ent0006" data-entity-2="ent0007" data-link-type="dependency" data-source-line="31" id="lnk19"><path d="M753.2188,579.4688 C832.625,597.8906 925.875,619.5313 925.875,619.5313 C925.875,619.5313 939.4305,646.6626 953.4461,674.6782" fill="none" id="api-to-guide" style="stroke:#334155;stroke-width:1.875;"/><polygon fill="#334155" points="957.6406,683.0625,956.9384,667.6897,954.1452,676.0756,945.7593,673.2824,957.6406,683.0625" style="stroke:#334155;stroke-width:1.875;"/><text fill="#334155" font-family="Helvetica" font-size="18.75" lengthAdjust="spacing" textLength="119.8608" x="937.9063" y="635.5316">route requests</text></g><!--link guide to api--><g class="link" data-entity-1="ent0007" data-entity-2="ent0006" data-link-type="dependency" data-source-line="39" id="lnk27"><path d="M865.9688,682.8594 C801.4844,662.8906 732.125,641.4063 732.125,641.4063 C732.125,641.4063 709.0485,618.7248 683.9235,594.0529" fill="none" id="guide-to-api" style="stroke:#334155;stroke-width:1.875;"/><polygon fill="#334155" points="677.2344,587.4844,682.8891,601.7966,682.8087,592.9582,691.6472,592.8777,677.2344,587.4844" style="stroke:#334155;stroke-width:1.875;"/><text fill="#334155" font-family="Helvetica" font-size="18.75" lengthAdjust="spacing" textLength="179.8187" x="733.6875" y="635.5316">guide payload + trace</text></g><!--link api to vision--><g class="link" data-entity-1="ent0006" data-entity-2="ent0008" data-link-type="dependency" data-source-line="32" id="lnk20"><path d="M591.0938,587.4844 C566.1094,603.6406 541.5,619.5313 541.5,619.5313 C541.5,619.5313 541.5,641.4063 541.5,641.4063 C541.5,641.4063 556.5132,651.5639 581.4194,668.3921" fill="none" id="api-to-vision" style="stroke:#334155;stroke-width:1.875;"/><polygon fill="#334155" points="589.1875,673.6406,581.0344,660.589,582.7141,669.2668,574.0363,670.9465,589.1875,673.6406" style="stroke:#334155;stroke-width:1.875;"/><text fill="#334155" font-family="Helvetica" font-size="18.75" lengthAdjust="spacing" textLength="139.6454" x="543.0625" y="635.5316">camera requests</text></g><!--link vision to api--><g class="link" data-entity-1="ent0008" data-entity-2="ent0006" data-link-type="dependency" data-source-line="40" id="lnk28"><path d="M513.4688,673.6406 C458.7344,656.8125 408.6875,641.4063 408.6875,641.4063 C408.6875,641.4063 408.6875,619.5313 408.6875,619.5313 C408.6875,619.5313 463.394,604.215 524.394,587.1369" fill="none" id="vision-to-api" style="stroke:#334155;stroke-width:1.875;"/><polygon fill="#334155" points="533.4219,584.6094,518.1951,582.3821,525.8987,586.7156,521.5651,594.4192,533.4219,584.6094" style="stroke:#334155;stroke-width:1.875;"/><text fill="#334155" font-family="Helvetica" font-size="18.75" lengthAdjust="spacing" textLength="118.8263" x="410.25" y="635.5316">vision payload</text></g><!--link guide to serving--><g class="link" data-entity-1="ent0007" data-entity-2="ent0011" data-link-type="dependency" data-source-line="33" id="lnk21"><path d="M1003.6875,752.9219 C1037.4844,791.3594 1088.375,849.2188 1088.375,849.2188 C1088.375,849.2188 1088.375,955.4688 1088.375,955.4688 C1088.375,955.4688 1072.75,989.8438 1072.75,989.8438 C1072.75,989.8438 768.0625,1002.3438 768.0625,1002.3438 C768.0625,1002.3438 709.9165,1031.4167 656.104,1058.323" fill="none" id="guide-to-serving" style="stroke:#334155;stroke-width:1.875;"/><polygon fill="#334155" points="647.7188,1062.5156,663.0917,1061.8169,654.7065,1059.0218,657.5015,1050.6365,647.7188,1062.5156" style="stroke:#334155;stroke-width:1.875;"/><text fill="#334155" font-family="Helvetica" font-size="18.75" lengthAdjust="spacing" textLength="299.1028" x="1089.9375" y="888.6566">generate + rewrite + rerank prompts</text></g><!--link guide to vs--><g class="link" data-entity-1="ent0007" data-entity-2="ent0012" data-link-type="dependency" data-source-line="34" id="lnk22"><path d="M1101.2656,745.0313 C1209.5156,766.7656 1347.75,794.5313 1347.75,794.5313 C1347.75,794.5313 1616.5,849.2188 1616.5,849.2188 C1616.5,849.2188 2032.125,1219.5313 2032.125,1219.5313 C2032.125,1219.5313 2032.125,1302.3438 2032.125,1302.3438 C2032.125,1302.3438 1533.1097,1373.2892 1312.2035,1404.711" fill="none" id="guide-to-vs" style="stroke:#334155;stroke-width:1.875;"/><polygon fill="#334155" points="1302.9219,1406.0313,1317.7244,1410.2386,1310.6565,1404.9311,1315.9641,1397.8632,1302.9219,1406.0313" style="stroke:#334155;stroke-width:1.875;"/><text fill="#334155" font-family="Helvetica" font-size="18.75" lengthAdjust="spacing" textLength="174.0326" x="1934.5156" y="1102.7191">retrieve top-k chunks</text></g><!--link guide to policy--><g class="link" data-entity-1="ent0007" data-entity-2="ent0009" data-link-type="dependency" data-source-line="35" id="lnk23"><path d="M855.3906,752.9844 C837.1875,758.0938 824.3125,761.7188 824.3125,761.7188 C824.3125,761.7188 650.481,810.3945 523.3404,845.9882" fill="none" id="guide-to-policy" style="stroke:#334155;stroke-width:1.875;"/><polygon fill="#334155" points="514.3125,848.5156,529.5393,850.7431,521.8357,846.4094,526.1694,838.7059,514.3125,848.5156" style="stroke:#334155;stroke-width:1.875;"/><text fill="#334155" font-family="Helvetica" font-size="18.75" lengthAdjust="spacing" textLength="196.9574" x="698.9063" y="810.5316">validate claims/citations</text></g><!--link vision to serving--><g class="link" data-entity-1="ent0008" data-entity-2="ent0011" data-link-type="dependency" data-source-line="36" id="lnk24"><path d="M776.25,762.2969 C825.0313,779.125 869.625,794.5313 869.625,794.5313 C869.625,794.5313 869.625,816.4063 869.625,816.4063 C869.625,816.4063 725.875,849.2188 725.875,849.2188 C725.875,849.2188 644.5841,987.3272 604.9123,1054.7178" fill="none" id="vision-to-serving" style="stroke:#334155;stroke-width:1.875;"/><polygon fill="#334155" points="600.1563,1062.7969,612.6763,1053.849,604.1196,1056.0643,601.9042,1047.5076,600.1563,1062.7969" style="stroke:#334155;stroke-width:1.875;"/><text fill="#334155" font-family="Helvetica" font-size="18.75" lengthAdjust="spacing" textLength="172.998" x="727.4375" y="888.6566">multimodal inference</text></g><!--link vision to policy--><g class="link" data-entity-1="ent0008" data-entity-2="ent0009" data-link-type="dependency" data-source-line="37" id="lnk25"><path d="M503.4844,757.3594 C430.0938,776 357.125,794.5313 357.125,794.5313 C357.125,794.5313 357.125,816.4063 357.125,816.4063 C357.125,816.4063 361.551,824.1576 370.7853,840.3138" fill="none" id="vision-to-policy" style="stroke:#334155;stroke-width:1.875;"/><polygon fill="#334155" points="375.4375,848.4531,373.8855,833.1427,371.5607,841.6704,363.0331,839.3456,375.4375,848.4531" style="stroke:#334155;stroke-width:1.875;"/><text fill="#334155" font-family="Helvetica" font-size="18.75" lengthAdjust="spacing" textLength="250.6622" x="358.6875" y="810.5316">confidence + follow-up checks</text></g><!--link policy to api--><g class="link" data-entity-1="ent0009" data-entity-2="ent0006" data-link-type="dependency" data-source-line="38" id="lnk26"><path d="M369.8438,848.4531 C357.9219,832.2969 346.1875,816.4063 346.1875,816.4063 C346.1875,816.4063 327.4375,761.7188 327.4375,761.7188 C327.4375,761.7188 327.4375,674.2188 327.4375,674.2188 C327.4375,674.2188 397.75,619.5313 397.75,619.5313 C397.75,619.5313 458.9432,603.1562 524.2713,585.6874" fill="none" id="policy-to-api" style="stroke:#334155;stroke-width:1.875;"/><polygon fill="#334155" points="533.3281,583.2656,518.1284,580.8604,525.7808,585.2838,521.3575,592.9362,533.3281,583.2656" style="stroke:#334155;stroke-width:1.875;"/><text fill="#334155" font-family="Helvetica" font-size="18.75" lengthAdjust="spacing" textLength="150.0916" x="329" y="723.0316">approved contract</text></g><!--link jobs to wiki--><g class="link" data-entity-1="ent0014" data-entity-2="ent0016" data-link-type="dependency" data-source-line="41" id="lnk29"><path d="M1049.2813,1132.7969 C1150.3125,1160.625 1283.9619,1197.4469 1383.415,1224.8531" fill="none" id="jobs-to-wiki" style="stroke:#334155;stroke-width:1.875;stroke-dasharray:10.9375,10.9375;"/><polygon fill="#334155" points="1392.4531,1227.3438,1380.5564,1217.5824,1384.9214,1225.2682,1377.2355,1229.6332,1392.4531,1227.3438" style="stroke:#334155;stroke-width:1.875;"/><text fill="#334155" font-family="Helvetica" font-size="18.75" lengthAdjust="spacing" textLength="111.5112" x="1237.0469" y="1180.8441">fetch sources</text></g><!--link jobs to lake--><g class="link" data-entity-1="ent0014" data-entity-2="ent0013" data-link-type="dependency" data-source-line="42" id="lnk30"><path d="M938.7656,1132.4063 C947.3437,1157.5156 956.1279,1183.237 965.2529,1209.9713" fill="none" id="jobs-to-lake" style="stroke:#334155;stroke-width:1.875;"/><polygon fill="#334155" points="968.2813,1218.8438,969.6537,1203.5162,965.7576,1211.4501,957.8238,1207.554,968.2813,1218.8438" style="stroke:#334155;stroke-width:1.875;"/><text fill="#334155" font-family="Helvetica" font-size="18.75" lengthAdjust="spacing" textLength="162.5793" x="957.9844" y="1180.8441">write curated tables</text></g><!--link lake to vs--><g class="link" data-entity-1="ent0013" data-entity-2="ent0012" data-link-type="dependency" data-source-line="43" id="lnk31"><path d="M1038.2813,1302.7344 C1075.7656,1329.5781 1116.7075,1358.8989 1151.27,1383.6645" fill="none" id="lake-to-vs" style="stroke:#334155;stroke-width:1.875;"/><polygon fill="#334155" points="1158.8906,1389.125,1151.1001,1375.8538,1152.5401,1384.5746,1143.8194,1386.0146,1158.8906,1389.125" style="stroke:#334155;stroke-width:1.875;"/><text fill="#334155" font-family="Helvetica" font-size="18.75" lengthAdjust="spacing" textLength="109.4513" x="1113.5781" y="1351.1566">publish index</text></g><!--link api to obs--><g class="link" data-entity-1="ent0006" data-entity-2="ent0015" data-link-type="dependency" data-source-line="44" id="lnk32"><path d="M752.9063,570.8125 C879.2969,590.25 1069.625,619.5313 1069.625,619.5313 C1069.625,619.5313 1616.5,849.2188 1616.5,849.2188 C1616.5,849.2188 1616.5,955.4688 1616.5,955.4688 C1616.5,955.4688 1438.9537,1017.8907 1320.6412,1059.4844" fill="none" id="api-to-obs" style="stroke:#334155;stroke-width:1.875;"/><polygon fill="#334155" points="1311.7969,1062.5938,1327.1363,1063.826,1319.1672,1060.0027,1322.9906,1052.0335,1311.7969,1062.5938" style="stroke:#334155;stroke-width:1.875;"/><text fill="#334155" font-family="Helvetica" font-size="18.75" lengthAdjust="spacing" textLength="118.808" x="1539.5938" y="810.5316">request traces</text></g><!--link guide to obs--><g class="link" data-entity-1="ent0007" data-entity-2="ent0015" data-link-type="dependency" data-source-line="45" id="lnk33"><path d="M1101.5313,751.9219 C1252.4063,790.3281 1483.6875,849.2188 1483.6875,849.2188 C1483.6875,849.2188 1483.6875,955.4688 1483.6875,955.4688 C1483.6875,955.4688 1367.1246,1016.8219 1288.109,1058.4" fill="none" id="guide-to-obs" style="stroke:#334155;stroke-width:1.875;"/><polygon fill="#334155" points="1279.8125,1062.7656,1295.1677,1061.7482,1286.7262,1059.1276,1289.3468,1050.6862,1279.8125,1062.7656" style="stroke:#334155;stroke-width:1.875;"/><text fill="#334155" font-family="Helvetica" font-size="18.75" lengthAdjust="spacing" textLength="119.8242" x="1485.25" y="888.6566">quality metrics</text></g><!--link vision to obs--><g class="link" data-entity-1="ent0008" data-entity-2="ent0015" data-link-type="dependency" data-source-line="46" id="lnk34"><path d="M796.75,762.2969 C853.5937,779.125 905.5625,794.5313 905.5625,794.5313 C905.5625,794.5313 958.6875,955.4688 958.6875,955.4688 C958.6875,955.4688 1100.875,967.9688 1100.875,967.9688 C1100.875,967.9688 1146.1879,1018.1807 1180.4379,1056.1338" fill="none" id="vision-to-obs" style="stroke:#334155;stroke-width:1.875;"/><polygon fill="#334155" points="1186.7188,1063.0938,1181.9374,1048.4665,1181.4847,1057.2938,1172.6575,1056.841,1186.7188,1063.0938" style="stroke:#334155;stroke-width:1.875;"/><text fill="#334155" font-family="Helvetica" font-size="18.75" lengthAdjust="spacing" textLength="116.6931" x="960.25" y="888.6566">model metrics</text></g><!--link policy to obs--><g class="link" data-entity-1="ent0009" data-entity-2="ent0015" data-link-type="dependency" data-source-line="47" id="lnk35"><path d="M507.8125,918.6719 C568.9844,936.7813 632.125,955.4688 632.125,955.4688 C632.125,955.4688 1086.8125,1002.3438 1086.8125,1002.3438 C1086.8125,1002.3438 1125.5443,1030.3339 1162.8099,1057.287" fill="none" id="policy-to-obs" style="stroke:#334155;stroke-width:1.875;"/><polygon fill="#334155" points="1170.4063,1062.7813,1162.6745,1049.4757,1164.076,1058.2027,1155.3489,1059.6042,1170.4063,1062.7813" style="stroke:#334155;stroke-width:1.875;"/><text fill="#334155" font-family="Helvetica" font-size="18.75" lengthAdjust="spacing" textLength="122.9919" x="966.4375" y="983.9691">gate outcomes</text></g><!--link jobs to GMN36--><g class="link" data-entity-1="ent0014" data-entity-2="ent0037" data-link-type="association" data-source-line="50" id="lnk38"><path d="M1064.625,1127.1875 C1078.9375,1130.1094 1088.375,1132.0313 1088.375,1132.0313 C1088.375,1132.0313 1360.25,1164.8438 1360.25,1164.8438 C1360.25,1164.8438 1669.625,1219.5313 1669.625,1219.5313 C1669.625,1219.5313 1678.6094,1221.5 1692.5781,1224.5781" fill="none" id="jobs-GMN36" style="stroke:#334155;stroke-width:1.875;stroke-dasharray:10.9375,10.9375;"/></g><g class="legend" data-source-line="57"><rect fill="none" height="125" rx="9.375" ry="9.375" style="stroke:#000000;stroke-width:1.5625;" width="404.0771" x="847.548" y="1505.4688"/><text fill="#000000" font-family="Helvetica" font-size="21.875" lengthAdjust="spacing" textLength="345.2789" x="855.3605" y="1530.1254">Top-down: client -&gt; API -&gt; platform.</text><text fill="#000000" font-family="Helvetica" font-size="21.875" lengthAdjust="spacing" textLength="372.0993" x="855.3605" y="1552.0004">Dashed arrow: scheduled ingest input.</text><text fill="#000000" font-family="Helvetica" font-size="21.875" lengthAdjust="spacing" textLength="362.326" x="855.3605" y="1573.8754">Blue/green: runtime request services.</text><text fill="#000000" font-family="Helvetica" font-size="21.875" lengthAdjust="spacing" textLength="327.0676" x="855.3605" y="1595.7504">Purple: retrieval/state data stores.</text><text fill="#000000" font-family="Helvetica" font-size="21.875" lengthAdjust="spacing" textLength="388.4521" x="855.3605" y="1617.6254">Yellow: serving + observability surfaces.</text></g><?plantuml-src PLNRRXit47tdLqpjbnQsfQ11QaGF0NHj4zY9KJa92XWegDsHn8fBCYJNib0Kw4Vq2_ibFIHNikG-xON3CyCpvmo_KwRIRStqUsMRnfgUQnijeegQQVXnJFVIhpZIq3dwz-z_QFmZZQs9KXdsz4NnLeXe7KLB2nkZRQXMdgkeh152Lj5wEfifrZNnazFMipyZ6QWDx8Lmijh85TFPM2isaMxahbkloey_1L52asQ5QivIEUhJdAHp3-Rxp-_fWhnj8vFJqgHwBgYI3Nk9XukjvnyocB81E-XyCfeEPrFnrr7Y4LxOr3IyUt-KdMkilSoDY9MCl9KxvEvBf_ghLjLyIVdzKGKSkUJ3DvrFNqslPxDJZ5zpiNaRWO17LJ6mvX6mFtlfrcHzjUOGlOm7i19zFffDHgZz1EvBpdc4f9fqg4hB4DHILHa5d2ojrdPxrJfotZOkXe9SIWRqQ7OzUVMYKWxEcW1chLRLxYX7fMB63PSKv9BZxf9QKx5FYeYxWjnjEfzDnyFny8JmYOnouLMr2NIdPLnQtnmHNo-UNl9-QslMD4_vpUh1tDpSuaJSBBYkyIFWepj7am93XWabEXKmUps-1c2TqigGIECioZbBS4tArFnKs0WGo6JoKoRvEVn6RZY_zUcpKN57OonfkwBRcoL89SHf3k2b2B6otbdexu8QZZB154OqOA29jvCtBpNnmIxI8RvQlqc0W4BbqC0bLUlMR2xBMR5ZwJciCzWVQSlvT3mRZqSlo2f5NU00ORsmqjV0uqUfyGjiiq5NiEZLCcQa30IItevVfovLshOrdNrL6-MuLXA7JkzDVeS12hjR_18YEPYkhjxjtJK0bn7MgsAAYEjaKj6jfR1aYW7zSdz_DwSFyqyV4qMjZif97oaBDuWKasABvWUTkJr_Qq78ytBNyC7Ux8U0iY-5x1Kme1LZCE3eQLRmrglkpKkpsTlXQ1zKWBGSlU97nb1pLvlIX-EWJju30h6gJjYmd6f2_-0DqPLuMae-BsIATYYpP8zsy77a0RUoPebaM3vnBsO3V2Ewi6TIGR6tZn09ziNKWQDQIqJvTdAdhQo1cQ9EKfUmxaSN9xBEUhrtkUDOXjjXcM1RNw5PUJNjpTeUKE6sQXFPTUSBaTSEnBfseLNeN7TePy8Px9jOIZjckon_Qy4rxDUatbGd19U0RF_3yX57PJcDReASSCS1NHYBp-x2iiliA347ltMhdyq6VPKcR9XTA5Kpr2rzys0mkP1peM2xlRDYlYb3JwGR9MNuNvvIbXXP-AE8MoAqEullPYxc9mOunJKYLki74zRIf-PsukgNiTkfuJYPvbNwAEd4FSHRswqPx2zJS94kiIIqRlBsn0Hp0jZIUxiTK3WmK6OG7gwDFJ7IBVTNdXbWlZKGyS6L-vi1XTortca-s4VgVaWtMnwc531qKz1ldDGyEBZY8lK7xn9Cflw6rYzbXiDHoe74Vm00?></g></svg>