<?plantuml 1.2026.1?><svg xmlns="http://www.w3.org/2000/svg" xmlns:xlink="http://www.w3.org/1999/xlink" contentStyleType="text/css" data-diagram-type="DESCRIPTION" height="1529.6875px" preserveAspectRatio="none" style="width:2170px;height:1529px;background:#FFFFFF;" version="1.1" viewBox="0 0 2170 1529" width="2170.3125px" zoomAndPan="magnify"><title>ANC Target App &#8212; C4 Deployment View</title><defs/><g><g class="title" data-source-line="2"><text fill="#000000" font-family="Helvetica" font-size="21.875" font-weight="bold" lengthAdjust="spacing" textLength="418.1137" x="865.3487" y="32.4692">ANC Target App &#8212; C4 Deployment View</text></g><!--cluster device--><g class="cluster" data-qualified-name="device" data-source-line="8" id="ent0003"><rect fill="#F8FAFC" height="123.4375" rx="9.375" ry="9.375" style="stroke:#334155;stroke-width:1.5625;" width="193.75" x="518.5469" y="255.4688"/><text fill="#0F172A" font-family="Helvetica" font-size="18.75" font-weight="bold" lengthAdjust="spacing" textLength="86.4716" x="523.2344" y="273.0316">Client tier</text></g><!--cluster edge--><g class="cluster" data-qualified-name="edge" data-source-line="12" id="ent0005"><rect fill="#F8FAFC" height="536.7188" rx="9.375" ry="9.375" style="stroke:#334155;stroke-width:1.5625;" width="571.875" x="371.6719" y="463.2813"/><text fill="#0F172A" font-family="Helvetica" font-size="18.75" font-weight="bold" lengthAdjust="spacing" textLength="203.1464" x="376.3594" y="480.8441">Edge runtime (API tier)</text></g><!--cluster dbx--><g class="cluster" data-qualified-name="dbx" data-source-line="19" id="ent0010"><rect fill="#F8FAFC" height="521.0938" rx="9.375" ry="9.375" style="stroke:#334155;stroke-width:1.5625;" width="1037.5" x="1006.0469" y="825.7813"/><text fill="#0F172A" font-family="Helvetica" font-size="18.75" font-weight="bold" lengthAdjust="spacing" textLength="198.0194" x="1010.7344" y="843.3441">Databricks workspace</text></g><!--entity iosapp--><g class="entity" data-qualified-name="device.iosapp" data-source-line="9" id="ent0004"><rect fill="#DBEAFE" height="50" rx="9.375" ry="9.375" style="stroke:#334155;stroke-width:0.7813;" width="143.7958" x="543.5313" y="303.9063"/><text fill="#0F172A" font-family="Helvetica" font-size="18.75" lengthAdjust="spacing" textLength="39.5874" x="559.1563" y="333.9691">ANC</text><text fill="#0F172A" font-family="Helvetica" font-size="18.75" lengthAdjust="spacing" textLength="5.2094" x="598.7437" y="333.9691">&#160;</text><text fill="#0F172A" font-family="Helvetica" font-size="18.75" lengthAdjust="spacing" textLength="31.2561" x="603.953" y="333.9691">iOS</text><text fill="#0F172A" font-family="Helvetica" font-size="18.75" lengthAdjust="spacing" textLength="5.2094" x="635.2091" y="333.9691">&#160;</text><text fill="#0F172A" font-family="Helvetica" font-size="18.75" lengthAdjust="spacing" textLength="31.2836" x="640.4185" y="333.9691">app</text></g><!--entity gateway--><g class="entity" data-qualified-name="edge.gateway" data-source-line="13" id="ent0006"><rect fill="#BFDBFE" height="50" rx="9.375" ry="9.375" style="stroke:#334155;stroke-width:0.7813;" width="264.7278" x="483.0625" y="524.2188"/><text fill="#0F172A" font-family="Helvetica" font-size="18.75" lengthAdjust="spacing" textLength="30.2216" x="498.6875" y="554.2816">API</text><text fill="#0F172A" font-family="Helvetica" font-size="18.75" lengthAdjust="spacing" textLength="5.2094" x="528.9091" y="554.2816">&#160;</text><text fill="#0F172A" font-family="Helvetica" font-size="18.75" lengthAdjust="spacing" textLength="69.8364" x="534.1184" y="554.2816">gateway</text><text fill="#0F172A" font-family="Helvetica" font-size="18.75" lengthAdjust="spacing" textLength="5.2094" x="603.9548" y="554.2816">&#160;</text><text fill="#0F172A" font-family="Helvetica" font-size="18.75" lengthAdjust="spacing" textLength="5.2094" x="609.1642" y="554.2816">/</text><text fill="#0F172A" font-family="Helvetica" font-size="18.75" lengthAdjust="spacing" textLength="5.2094" x="614.3735" y="554.2816">&#160;</text><text fill="#0F172A" font-family="Helvetica" font-size="18.75" lengthAdjust="spacing" textLength="35.4492" x="619.5829" y="554.2816">load</text><text fill="#0F172A" font-family="Helvetica" font-size="18.75" lengthAdjust="spacing" textLength="5.2094" x="655.0321" y="554.2816">&#160;</text><text fill="#0F172A" font-family="Helvetica" font-size="18.75" lengthAdjust="spacing" textLength="71.9238" x="660.2415" y="554.2816">balancer</text></g><!--entity guide_workers--><g class="entity" data-qualified-name="edge.guide_workers" data-source-line="14" id="ent0007"><rect fill="#BFDBFE" height="50" rx="9.375" ry="9.375" style="stroke:#334155;stroke-width:0.7813;" width="218.7958" x="674.7813" y="672.6563"/><text fill="#0F172A" font-family="Helvetica" font-size="18.75" lengthAdjust="spacing" textLength="50.0336" x="690.4063" y="702.7191">Guide</text><text fill="#0F172A" font-family="Helvetica" font-size="18.75" lengthAdjust="spacing" textLength="5.2094" x="740.4398" y="702.7191">&#160;</text><text fill="#0F172A" font-family="Helvetica" font-size="18.75" lengthAdjust="spacing" textLength="30.2216" x="745.6492" y="702.7191">API</text><text fill="#0F172A" font-family="Helvetica" font-size="18.75" lengthAdjust="spacing" textLength="5.2094" x="775.8707" y="702.7191">&#160;</text><text fill="#0F172A" font-family="Helvetica" font-size="18.75" lengthAdjust="spacing" textLength="65.6342" x="781.0801" y="702.7191">workers</text><text fill="#0F172A" font-family="Helvetica" font-size="18.75" lengthAdjust="spacing" textLength="5.2094" x="846.7142" y="702.7191">&#160;</text><text fill="#0F172A" font-family="Helvetica" font-size="18.75" lengthAdjust="spacing" textLength="26.0284" x="851.9236" y="702.7191">(N)</text></g><!--entity vision_workers--><g class="entity" data-qualified-name="edge.vision_workers" data-source-line="15" id="ent0008"><rect fill="#BBF7D0" height="50" rx="9.375" ry="9.375" style="stroke:#334155;stroke-width:0.7813;" width="219.8303" x="408.6406" y="672.6563"/><text fill="#0F172A" font-family="Helvetica" font-size="18.75" lengthAdjust="spacing" textLength="51.0681" x="424.2656" y="702.7191">Vision</text><text fill="#0F172A" font-family="Helvetica" font-size="18.75" lengthAdjust="spacing" textLength="5.2094" x="475.3337" y="702.7191">&#160;</text><text fill="#0F172A" font-family="Helvetica" font-size="18.75" lengthAdjust="spacing" textLength="30.2216" x="480.5431" y="702.7191">API</text><text fill="#0F172A" font-family="Helvetica" font-size="18.75" lengthAdjust="spacing" textLength="5.2094" x="510.7646" y="702.7191">&#160;</text><text fill="#0F172A" font-family="Helvetica" font-size="18.75" lengthAdjust="spacing" textLength="65.6342" x="515.974" y="702.7191">workers</text><text fill="#0F172A" font-family="Helvetica" font-size="18.75" lengthAdjust="spacing" textLength="5.2094" x="581.6082" y="702.7191">&#160;</text><text fill="#0F172A" font-family="Helvetica" font-size="18.75" lengthAdjust="spacing" textLength="26.0284" x="586.8175" y="702.7191">(N)</text></g><!--entity cache--><g class="entity" data-qualified-name="edge.cache" data-source-line="16" id="ent0009"><path d="M555.5156,895.3125 C555.5156,879.6875 654.4948,879.6875 654.4948,879.6875 C654.4948,879.6875 753.474,879.6875 753.474,895.3125 L753.474,946.875 C753.474,962.5 654.4948,962.5 654.4948,962.5 C654.4948,962.5 555.5156,962.5 555.5156,946.875 L555.5156,895.3125" fill="#E9D5FF" style="stroke:#3730A3;stroke-width:0.7813;"/><path d="M555.5156,895.3125 C555.5156,910.9375 654.4948,910.9375 654.4948,910.9375 C654.4948,910.9375 753.474,910.9375 753.474,895.3125" fill="none" style="stroke:#3730A3;stroke-width:0.7813;"/><text fill="#0F172A" font-family="Helvetica" font-size="18.75" lengthAdjust="spacing" textLength="60.4614" x="571.1406" y="931.6254">Shared</text><text fill="#0F172A" font-family="Helvetica" font-size="18.75" lengthAdjust="spacing" textLength="5.2094" x="631.6021" y="931.6254">&#160;</text><text fill="#0F172A" font-family="Helvetica" font-size="18.75" lengthAdjust="spacing" textLength="50.0336" x="636.8114" y="931.6254">cache</text><text fill="#0F172A" font-family="Helvetica" font-size="18.75" lengthAdjust="spacing" textLength="95.8649" x="571.1406" y="950.3754">(redis/sqlite</text><text fill="#0F172A" font-family="Helvetica" font-size="18.75" lengthAdjust="spacing" textLength="5.2094" x="667.0055" y="950.3754">&#160;</text><text fill="#0F172A" font-family="Helvetica" font-size="18.75" lengthAdjust="spacing" textLength="65.6342" x="672.2148" y="950.3754">service)</text></g><!--entity serving--><g class="entity" data-qualified-name="dbx.serving" data-source-line="20" id="ent0011"><rect fill="#FEF3C7" height="68.75" rx="9.375" ry="9.375" style="stroke:#334155;stroke-width:0.7813;" width="276.1719" x="1066.4063" y="886.7188"/><text fill="#0F172A" font-family="Helvetica" font-size="18.75" lengthAdjust="spacing" textLength="51.0681" x="1082.0313" y="916.7816">Model</text><text fill="#0F172A" font-family="Helvetica" font-size="18.75" lengthAdjust="spacing" textLength="5.2094" x="1133.0994" y="916.7816">&#160;</text><text fill="#0F172A" font-family="Helvetica" font-size="18.75" lengthAdjust="spacing" textLength="63.5742" x="1138.3087" y="916.7816">Serving</text><text fill="#0F172A" font-family="Helvetica" font-size="18.75" lengthAdjust="spacing" textLength="5.2094" x="1201.8829" y="916.7816">&#160;</text><text fill="#0F172A" font-family="Helvetica" font-size="18.75" lengthAdjust="spacing" textLength="81.3171" x="1207.0923" y="916.7816">endpoints</text><text fill="#0F172A" font-family="Helvetica" font-size="18.75" lengthAdjust="spacing" textLength="52.0935" x="1082.0313" y="935.5316">DBRX</text><text fill="#0F172A" font-family="Helvetica" font-size="18.75" lengthAdjust="spacing" textLength="5.2094" x="1134.1248" y="935.5316">&#160;</text><text fill="#0F172A" font-family="Helvetica" font-size="18.75" lengthAdjust="spacing" textLength="10.9497" x="1139.3341" y="935.5316">+</text><text fill="#0F172A" font-family="Helvetica" font-size="18.75" lengthAdjust="spacing" textLength="5.2094" x="1150.2838" y="935.5316">&#160;</text><text fill="#0F172A" font-family="Helvetica" font-size="18.75" lengthAdjust="spacing" textLength="102.1545" x="1155.4932" y="935.5316">embeddings</text><text fill="#0F172A" font-family="Helvetica" font-size="18.75" lengthAdjust="spacing" textLength="5.2094" x="1257.6477" y="935.5316">&#160;</text><text fill="#0F172A" font-family="Helvetica" font-size="18.75" lengthAdjust="spacing" textLength="10.9497" x="1262.8571" y="935.5316">+</text><text fill="#0F172A" font-family="Helvetica" font-size="18.75" lengthAdjust="spacing" textLength="5.2094" x="1273.8068" y="935.5316">&#160;</text><text fill="#0F172A" font-family="Helvetica" font-size="18.75" lengthAdjust="spacing" textLength="47.937" x="1279.0161" y="935.5316">vision</text></g><!--entity vs--><g class="entity" data-qualified-name="dbx.vs" data-source-line="21" id="ent0012"><path d="M1726.3281,1108.5938 C1726.3281,1092.9688 1801.3571,1092.9688 1801.3571,1092.9688 C1801.3571,1092.9688 1876.3861,1092.9688 1876.3861,1108.5938 L1876.3861,1141.4063 C1876.3861,1157.0313 1801.3571,1157.0313 1801.3571,1157.0313 C1801.3571,1157.0313 1726.3281,1157.0313 1726.3281,1141.4063 L1726.3281,1108.5938" fill="#DDD6FE" style="stroke:#3730A3;stroke-width:0.7813;"/><path d="M1726.3281,1108.5938 C1726.3281,1124.2188 1801.3571,1124.2188 1801.3571,1124.2188 C1801.3571,1124.2188 1876.3861,1124.2188 1876.3861,1108.5938" fill="none" style="stroke:#3730A3;stroke-width:0.7813;"/><text fill="#0F172A" font-family="Helvetica" font-size="18.75" lengthAdjust="spacing" textLength="54.1901" x="1741.9531" y="1144.9066">Vector</text><text fill="#0F172A" font-family="Helvetica" font-size="18.75" lengthAdjust="spacing" textLength="5.2094" x="1796.1432" y="1144.9066">&#160;</text><text fill="#0F172A" font-family="Helvetica" font-size="18.75" lengthAdjust="spacing" textLength="59.4086" x="1801.3525" y="1144.9066">Search</text></g><!--entity uc--><g class="entity" data-qualified-name="dbx.uc" data-source-line="22" id="ent0013"><path d="M1411.6875,1260.9375 C1411.6875,1245.3125 1591.9838,1245.3125 1591.9838,1245.3125 C1591.9838,1245.3125 1772.2802,1245.3125 1772.2802,1260.9375 L1772.2802,1293.75 C1772.2802,1309.375 1591.9838,1309.375 1591.9838,1309.375 C1591.9838,1309.375 1411.6875,1309.375 1411.6875,1293.75 L1411.6875,1260.9375" fill="#E9D5FF" style="stroke:#3730A3;stroke-width:0.7813;"/><path d="M1411.6875,1260.9375 C1411.6875,1276.5625 1591.9838,1276.5625 1591.9838,1276.5625 C1591.9838,1276.5625 1772.2802,1276.5625 1772.2802,1260.9375" fill="none" style="stroke:#3730A3;stroke-width:0.7813;"/><text fill="#0F172A" font-family="Helvetica" font-size="18.75" lengthAdjust="spacing" textLength="81.3171" x="1427.3125" y="1297.2504">Lakebase</text><text fill="#0F172A" font-family="Helvetica" font-size="18.75" lengthAdjust="spacing" textLength="5.2094" x="1508.6296" y="1297.2504">&#160;</text><text fill="#0F172A" font-family="Helvetica" font-size="18.75" lengthAdjust="spacing" textLength="5.2094" x="1513.839" y="1297.2504">/</text><text fill="#0F172A" font-family="Helvetica" font-size="18.75" lengthAdjust="spacing" textLength="5.2094" x="1519.0483" y="1297.2504">&#160;</text><text fill="#0F172A" font-family="Helvetica" font-size="18.75" lengthAdjust="spacing" textLength="42.7185" x="1524.2577" y="1297.2504">Unity</text><text fill="#0F172A" font-family="Helvetica" font-size="18.75" lengthAdjust="spacing" textLength="5.2094" x="1566.9762" y="1297.2504">&#160;</text><text fill="#0F172A" font-family="Helvetica" font-size="18.75" lengthAdjust="spacing" textLength="64.6271" x="1572.1855" y="1297.2504">Catalog</text><text fill="#0F172A" font-family="Helvetica" font-size="18.75" lengthAdjust="spacing" textLength="5.2094" x="1636.8126" y="1297.2504">&#160;</text><text fill="#0F172A" font-family="Helvetica" font-size="18.75" lengthAdjust="spacing" textLength="59.3903" x="1642.022" y="1297.2504">MLflow</text><text fill="#0F172A" font-family="Helvetica" font-size="18.75" lengthAdjust="spacing" textLength="5.2094" x="1701.4122" y="1297.2504">&#160;</text><text fill="#0F172A" font-family="Helvetica" font-size="18.75" lengthAdjust="spacing" textLength="50.0336" x="1706.6216" y="1297.2504">tables</text></g><!--entity jobs--><g class="entity" data-qualified-name="dbx.jobs" data-source-line="23" id="ent0014"><rect fill="#ECFCCB" height="50" rx="9.375" ry="9.375" style="stroke:#334155;stroke-width:0.7813;" width="249.0356" x="1389.3438" y="896.0938"/><text fill="#0F172A" font-family="Helvetica" font-size="18.75" lengthAdjust="spacing" textLength="131.2775" x="1404.9688" y="926.1566">Jobs/Workflows</text><text fill="#0F172A" font-family="Helvetica" font-size="18.75" lengthAdjust="spacing" textLength="5.2094" x="1536.2462" y="926.1566">&#160;</text><text fill="#0F172A" font-family="Helvetica" font-size="18.75" lengthAdjust="spacing" textLength="81.2988" x="1541.4556" y="926.1566">scheduler</text></g><!--entity mlflow--><g class="entity" data-qualified-name="dbx.mlflow" data-source-line="24" id="ent0015"><rect fill="#FEF9C3" height="50" rx="9.375" ry="9.375" style="stroke:#334155;stroke-width:0.7813;" width="320.4651" x="1684.875" y="896.0938"/><text fill="#0F172A" font-family="Helvetica" font-size="18.75" lengthAdjust="spacing" textLength="59.3903" x="1700.5" y="926.1566">MLflow</text><text fill="#0F172A" font-family="Helvetica" font-size="18.75" lengthAdjust="spacing" textLength="5.2094" x="1759.8903" y="926.1566">&#160;</text><text fill="#0F172A" font-family="Helvetica" font-size="18.75" lengthAdjust="spacing" textLength="65.6525" x="1765.0996" y="926.1566">tracking</text><text fill="#0F172A" font-family="Helvetica" font-size="18.75" lengthAdjust="spacing" textLength="5.2094" x="1830.7521" y="926.1566">&#160;</text><text fill="#0F172A" font-family="Helvetica" font-size="18.75" lengthAdjust="spacing" textLength="10.9497" x="1835.9614" y="926.1566">+</text><text fill="#0F172A" font-family="Helvetica" font-size="18.75" lengthAdjust="spacing" textLength="5.2094" x="1846.9111" y="926.1566">&#160;</text><text fill="#0F172A" font-family="Helvetica" font-size="18.75" lengthAdjust="spacing" textLength="34.3964" x="1852.1205" y="926.1566">eval</text><text fill="#0F172A" font-family="Helvetica" font-size="18.75" lengthAdjust="spacing" textLength="5.2094" x="1886.5168" y="926.1566">&#160;</text><text fill="#0F172A" font-family="Helvetica" font-size="18.75" lengthAdjust="spacing" textLength="97.9889" x="1891.7262" y="926.1566">dashboards</text></g><!--entity user--><g class="entity" data-qualified-name="user" data-source-line="6" id="ent0002"><ellipse cx="615.4197" cy="76.5625" fill="#E0F2FE" rx="12.5" ry="12.5" style="stroke:#0369A1;stroke-width:0.7813;"/><path d="M615.4197,89.0625 L615.4197,131.25 M595.1072,101.5625 L635.7322,101.5625 M615.4197,131.25 L595.1072,154.6875 M615.4197,131.25 L635.7322,154.6875" fill="none" style="stroke:#0369A1;stroke-width:0.7813;"/><text fill="#0F172A" font-family="Helvetica" font-size="18.75" lengthAdjust="spacing" textLength="40.6403" x="558.625" y="171.4691">Field</text><text fill="#0F172A" font-family="Helvetica" font-size="18.75" lengthAdjust="spacing" textLength="5.2094" x="599.2653" y="171.4691">&#160;</text><text fill="#0F172A" font-family="Helvetica" font-size="18.75" lengthAdjust="spacing" textLength="67.7399" x="604.4746" y="171.4691">explorer</text></g><!--entity wiki--><g class="entity" data-qualified-name="wiki" data-source-line="27" id="ent0016"><path d="M433.7805,1105.9401 C440.4793,1097.9092 446.2105,1096.8695 452.3594,1106.518 C459.0036,1095.4425 466.3045,1093.7619 474.9249,1104.4707 C480.5505,1093.4049 487.3518,1095.0045 494.8327,1102.4785 C499.9808,1093.0188 510.1874,1091.9653 516.7391,1100.7975 C521.778,1090.8952 528.3292,1091.8751 534.9186,1099.1572 C541.0115,1088.6199 550.4336,1088.6049 557.1473,1098.4812 C564.4278,1091.3039 570.511,1090.9898 575.5377,1100.906 C582.4031,1089.3281 593.0228,1091.0659 599.0334,1101.806 C604.8511,1093.6935 614.2722,1093.7469 617.6266,1104.2645 C625.1313,1093.9377 634.8826,1095.5746 639.3599,1107.2543 C649.3774,1111.5336 652.3899,1117.9058 643.5423,1126.3229 C652.6391,1136.5249 650.8966,1144.6439 637.2948,1148.4317 C629.8474,1157.6248 623.3708,1156.0184 617.5982,1146.6541 C613.2761,1157.5473 604.7235,1158.4444 597.7266,1149.3078 C591.9874,1157.6858 584.1674,1159.4005 578.1612,1149.595 C570.2376,1160.8945 563.1098,1158.9464 555.0844,1149.7092 C548.6126,1159.244 539.6538,1157.0425 534.6245,1148.1109 C528.8201,1156.9916 521.452,1158.1483 515.1576,1148.6292 C507.9599,1156.7263 500.8519,1157.2782 494.9509,1147.1885 C490.4816,1155.8528 481.689,1158.3017 475.8864,1148.5703 C468.7267,1158.7348 459.4025,1157.875 453.9317,1146.8227 C447.3758,1155.947 440.3708,1155.4388 433.39,1147.3292 C419.7209,1146.8124 415.6821,1136.3585 422.918,1125.7138 C415.5059,1114.2777 420.4464,1105.9795 433.7805,1105.9401" fill="#ECFDF5" style="stroke:#065F46;stroke-width:0.7813;"/><text fill="#0F172A" font-family="Helvetica" font-size="18.75" lengthAdjust="spacing" textLength="81.2805" x="442.4844" y="1130.0629">Wikipedia</text><text fill="#0F172A" font-family="Helvetica" font-size="18.75" lengthAdjust="spacing" textLength="5.2094" x="523.7649" y="1130.0629">&#160;</text><text fill="#0F172A" font-family="Helvetica" font-size="18.75" lengthAdjust="spacing" textLength="5.2094" x="528.9742" y="1130.0629">/</text><text fill="#0F172A" font-family="Helvetica" font-size="18.75" lengthAdjust="spacing" textLength="5.2094" x="534.1836" y="1130.0629">&#160;</text><text fill="#0F172A" font-family="Helvetica" font-size="18.75" lengthAdjust="spacing" textLength="86.4716" x="539.3929" y="1130.0629">Wikimedia</text></g><!--entity geo--><g class="entity" data-qualified-name="geo" data-source-line="28" id="ent0017"><path d="M709.8913,1107.3084 C715.0403,1098.8819 721.9976,1099.4494 727.4587,1106.9645 C731.9749,1096.4444 740.0424,1095.6761 747.3036,1104.0869 C751.9515,1096.1075 757.5472,1094.9115 763.015,1103.2999 C766.9144,1092.5069 775.4381,1091.7215 782.3904,1100.2364 C787.8194,1092.6134 793.5485,1092.7071 797.7412,1101.3996 C803.4357,1091.4643 809.8182,1089.4448 817.5868,1099.322 C822.206,1090.6221 829.4134,1089.2438 835.5563,1097.7289 C840.6934,1089.9251 847.0023,1091.5315 851.3236,1098.5941 C857.7078,1091.7044 863.7478,1091.0728 868.6168,1100.2273 C875.7643,1093.0631 883.3909,1092.457 888.4096,1102.6543 C893.7646,1094.6501 898.6345,1095.2765 903.4598,1103.1562 C909.689,1094.8082 918.5233,1094.462 922.7994,1105.1413 C928.9405,1096.1861 935.7098,1097.6895 940.4262,1106.5508 C945.0007,1098.1237 952.5566,1097.9012 958.546,1104.8875 C973.0148,1105.9936 978.0242,1112.8109 970.2364,1126.1525 C976.62,1137.8386 969.9767,1145.5172 958.1296,1146.1861 C953.1997,1156.7374 947.4792,1157.6567 939.69,1148.9195 C932.538,1157.9431 926.326,1155.8578 921.2255,1146.822 C918.2146,1156.7128 911.1102,1157.1187 904.7504,1150.0814 C900.2995,1158.1426 891.6699,1160.7758 886.0992,1151.2704 C879.702,1158.8309 873.7162,1159.6186 868.4569,1150.0953 C863.9072,1157.8767 857.1075,1158.0033 851.9754,1150.7331 C848.71,1159.9445 840.9399,1158.8071 835.8034,1152.7097 C830.4817,1160.4443 820.925,1161.536 816.9509,1151.2962 C812.4021,1159.0805 804.9505,1159.1564 800.3196,1151.384 C793.1344,1158.5569 787.4961,1157.0302 782.3755,1148.9545 C777.7202,1157.9119 769.147,1158.5976 763.5395,1149.9746 C758.2562,1157.3479 750.4826,1158.3914 746.072,1149.0619 C739.9544,1155.229 733.9013,1154.4798 729.9447,1146.5838 C725.0845,1155.2134 717.5196,1158.2796 710.7409,1148.5956 C700.2791,1144.5082 696.1429,1137.2025 705.1325,1127.8553 C695.548,1119.3278 697.899,1110.8385 709.8913,1107.3084" fill="#ECFDF5" style="stroke:#065F46;stroke-width:0.7813;"/><text fill="#0F172A" font-family="Helvetica" font-size="18.75" lengthAdjust="spacing" textLength="69.8364" x="720.0469" y="1130.0629">Optional</text><text fill="#0F172A" font-family="Helvetica" font-size="18.75" lengthAdjust="spacing" textLength="5.2094" x="789.8833" y="1130.0629">&#160;</text><text fill="#0F172A" font-family="Helvetica" font-size="18.75" lengthAdjust="spacing" textLength="67.7765" x="795.0927" y="1130.0629">geodata</text><text fill="#0F172A" font-family="Helvetica" font-size="18.75" lengthAdjust="spacing" textLength="5.2094" x="862.8691" y="1130.0629">&#160;</text><text fill="#0F172A" font-family="Helvetica" font-size="18.75" lengthAdjust="spacing" textLength="77.1149" x="868.0785" y="1130.0629">providers</text></g><g class="entity" data-qualified-name="GMN33" data-source-line="47" id="ent0034"><path d="M980.7344,671.0938 L980.7344,724.2188 A9.375,9.375 0 0 0 990.1094,733.5938 L1318.8661,733.5938 A9.375,9.375 0 0 0 1328.2411,724.2188 L1328.2411,677.3438 L1312.6161,661.7188 L990.1094,661.7188 A9.375,9.375 0 0 0 980.7344,671.0938" fill="#FFFBEB" style="stroke:#B45309;stroke-width:0.7813;"/><path d="M1312.6161,661.7188 L1312.6161,672.6563 A4.6875,4.6875 0 0 0 1317.3036,677.3438 L1328.2411,677.3438 L1312.6161,661.7188" fill="#FFFBEB" style="stroke:#B45309;stroke-width:1.5625;"/><text fill="#92400E" font-family="Helvetica" font-size="18.75" lengthAdjust="spacing" textLength="84.4116" x="990.1094" y="683.9691">Horizontal</text><text fill="#92400E" font-family="Helvetica" font-size="18.75" lengthAdjust="spacing" textLength="5.2094" x="1074.521" y="683.9691">&#160;</text><text fill="#92400E" font-family="Helvetica" font-size="18.75" lengthAdjust="spacing" textLength="43.7714" x="1079.7303" y="683.9691">scale</text><text fill="#92400E" font-family="Helvetica" font-size="18.75" lengthAdjust="spacing" textLength="5.2094" x="1123.5017" y="683.9691">&#160;</text><text fill="#92400E" font-family="Helvetica" font-size="18.75" lengthAdjust="spacing" textLength="15.6372" x="1128.7111" y="683.9691">at</text><text fill="#92400E" font-family="Helvetica" font-size="18.75" lengthAdjust="spacing" textLength="5.2094" x="1144.3483" y="683.9691">&#160;</text><text fill="#92400E" font-family="Helvetica" font-size="18.75" lengthAdjust="spacing" textLength="30.2216" x="1149.5576" y="683.9691">API</text><text fill="#92400E" font-family="Helvetica" font-size="18.75" lengthAdjust="spacing" textLength="5.2094" x="1179.7792" y="683.9691">&#160;</text><text fill="#92400E" font-family="Helvetica" font-size="18.75" lengthAdjust="spacing" textLength="26.0468" x="1184.9885" y="683.9691">tier</text><text fill="#92400E" font-family="Helvetica" font-size="18.75" lengthAdjust="spacing" textLength="5.2094" x="1211.0353" y="683.9691">&#160;</text><text fill="#92400E" font-family="Helvetica" font-size="18.75" lengthAdjust="spacing" textLength="65.6799" x="1216.2446" y="683.9691">handles</text><text fill="#92400E" font-family="Helvetica" font-size="18.75" lengthAdjust="spacing" textLength="121.9299" x="990.1094" y="702.7191">bursty\nmobile</text><text fill="#92400E" font-family="Helvetica" font-size="18.75" lengthAdjust="spacing" textLength="5.2094" x="1112.0393" y="702.7191">&#160;</text><text fill="#92400E" font-family="Helvetica" font-size="18.75" lengthAdjust="spacing" textLength="45.8405" x="1117.2487" y="702.7191">traffic</text><text fill="#92400E" font-family="Helvetica" font-size="18.75" lengthAdjust="spacing" textLength="5.2094" x="1163.0891" y="702.7191">&#160;</text><text fill="#92400E" font-family="Helvetica" font-size="18.75" lengthAdjust="spacing" textLength="42.7277" x="1168.2985" y="702.7191">while</text><text fill="#92400E" font-family="Helvetica" font-size="18.75" lengthAdjust="spacing" textLength="5.2094" x="1211.0261" y="702.7191">&#160;</text><text fill="#92400E" font-family="Helvetica" font-size="18.75" lengthAdjust="spacing" textLength="88.5681" x="1216.2355" y="702.7191">Databricks</text><text fill="#92400E" font-family="Helvetica" font-size="18.75" lengthAdjust="spacing" textLength="55.2246" x="990.1094" y="721.4691">serves</text><text fill="#92400E" font-family="Helvetica" font-size="18.75" lengthAdjust="spacing" textLength="5.2094" x="1045.334" y="721.4691">&#160;</text><text fill="#92400E" font-family="Helvetica" font-size="18.75" lengthAdjust="spacing" textLength="122.9645" x="1050.5433" y="721.4691">model/retrieval</text><text fill="#92400E" font-family="Helvetica" font-size="18.75" lengthAdjust="spacing" textLength="5.2094" x="1173.5078" y="721.4691">&#160;</text><text fill="#92400E" font-family="Helvetica" font-size="18.75" lengthAdjust="spacing" textLength="89.621" x="1178.7172" y="721.4691">workloads.</text></g><g class="entity" data-qualified-name="GMN36" data-source-line="51" id="ent0037"><path d="M9.375,1107.8125 L9.375,1142.1875 A9.375,9.375 0 0 0 18.75,1151.5625 L362.1002,1151.5625 A9.375,9.375 0 0 0 371.4752,1142.1875 L371.4752,1114.0625 L355.8502,1098.4375 L18.75,1098.4375 A9.375,9.375 0 0 0 9.375,1107.8125" fill="#FFFBEB" style="stroke:#B45309;stroke-width:0.7813;"/><path d="M355.8502,1098.4375 L355.8502,1109.375 A4.6875,4.6875 0 0 0 360.5377,1114.0625 L371.4752,1114.0625 L355.8502,1098.4375" fill="#FFFBEB" style="stroke:#B45309;stroke-width:1.5625;"/><text fill="#92400E" font-family="Helvetica" font-size="18.75" lengthAdjust="spacing" textLength="69.809" x="18.75" y="1120.6879">Platform</text><text fill="#92400E" font-family="Helvetica" font-size="18.75" lengthAdjust="spacing" textLength="5.2094" x="88.559" y="1120.6879">&#160;</text><text fill="#92400E" font-family="Helvetica" font-size="18.75" lengthAdjust="spacing" textLength="26.0468" x="93.7683" y="1120.6879">tier</text><text fill="#92400E" font-family="Helvetica" font-size="18.75" lengthAdjust="spacing" textLength="5.2094" x="119.8151" y="1120.6879">&#160;</text><text fill="#92400E" font-family="Helvetica" font-size="18.75" lengthAdjust="spacing" textLength="43.7714" x="125.0244" y="1120.6879">owns</text><text fill="#92400E" font-family="Helvetica" font-size="18.75" lengthAdjust="spacing" textLength="5.2094" x="168.7958" y="1120.6879">&#160;</text><text fill="#92400E" font-family="Helvetica" font-size="18.75" lengthAdjust="spacing" textLength="66.687" x="174.0051" y="1120.6879">retrieval</text><text fill="#92400E" font-family="Helvetica" font-size="18.75" lengthAdjust="spacing" textLength="5.2094" x="240.6921" y="1120.6879">&#160;</text><text fill="#92400E" font-family="Helvetica" font-size="18.75" lengthAdjust="spacing" textLength="45.8588" x="245.9015" y="1120.6879">state,</text><text fill="#92400E" font-family="Helvetica" font-size="18.75" lengthAdjust="spacing" textLength="5.2094" x="291.7603" y="1120.6879">&#160;</text><text fill="#92400E" font-family="Helvetica" font-size="18.75" lengthAdjust="spacing" textLength="51.0681" x="296.9696" y="1120.6879">model</text><text fill="#92400E" font-family="Helvetica" font-size="18.75" lengthAdjust="spacing" textLength="112.5732" x="18.75" y="1139.4379">serving,\nand</text><text fill="#92400E" font-family="Helvetica" font-size="18.75" lengthAdjust="spacing" textLength="5.2094" x="131.3232" y="1139.4379">&#160;</text><text fill="#92400E" font-family="Helvetica" font-size="18.75" lengthAdjust="spacing" textLength="85.4828" x="136.5326" y="1139.4379">scheduled</text><text fill="#92400E" font-family="Helvetica" font-size="18.75" lengthAdjust="spacing" textLength="5.2094" x="222.0154" y="1139.4379">&#160;</text><text fill="#92400E" font-family="Helvetica" font-size="18.75" lengthAdjust="spacing" textLength="36.4929" x="227.2247" y="1139.4379">data</text><text fill="#92400E" font-family="Helvetica" font-size="18.75" lengthAdjust="spacing" textLength="5.2094" x="263.7177" y="1139.4379">&#160;</text><text fill="#92400E" font-family="Helvetica" font-size="18.75" lengthAdjust="spacing" textLength="63.5651" x="268.927" y="1139.4379">refresh.</text></g><!--link user to iosapp--><g class="link" data-entity-1="ent0002" data-entity-2="ent0004" data-link-type="dependency" data-source-line="30" id="lnk18"><path d="M615.4219,176.3594 C615.4219,217.8906 615.4219,263.3437 615.4219,294.2031" fill="none" id="user-to-iosapp" style="stroke:#334155;stroke-width:1.875;"/><polygon fill="#334155" points="615.4219,303.5781,621.6719,289.5156,615.4219,295.7656,609.1719,289.5156,615.4219,303.5781" style="stroke:#334155;stroke-width:1.875;"/><text fill="#334155" font-family="Helvetica" font-size="18.75" lengthAdjust="spacing" textLength="113.0859" x="616.9844" y="224.5941">ask + capture</text></g><!--link iosapp to gateway--><g class="link" data-entity-1="ent0004" data-entity-2="ent0006" data-link-type="dependency" data-source-line="31" id="lnk19"><path d="M615.4219,354.5469 C615.4219,396.2969 615.4219,472.2813 615.4219,514.0938" fill="none" id="iosapp-to-gateway" style="stroke:#334155;stroke-width:1.875;"/><polygon fill="#334155" points="615.4219,523.4688,621.6719,509.4063,615.4219,515.6563,609.1719,509.4063,615.4219,523.4688" style="stroke:#334155;stroke-width:1.875;"/><text fill="#334155" font-family="Helvetica" font-size="18.75" lengthAdjust="spacing" textLength="186.0626" x="616.9844" y="419.9066">/api/guide + /api/vision</text></g><!--link gateway to guide_workers--><g class="link" data-entity-1="ent0006" data-entity-2="ent0007" data-link-type="dependency" data-source-line="32" id="lnk20"><path d="M643.2969,574.7813 C674.5625,601.7031 717.8804,639.0075 749.1616,665.945" fill="none" id="gateway-to-guide_workers" style="stroke:#334155;stroke-width:1.875;"/><polygon fill="#334155" points="756.2656,672.0625,749.688,658.1502,750.3456,666.9646,741.5313,667.6222,756.2656,672.0625" style="stroke:#334155;stroke-width:1.875;"/><text fill="#334155" font-family="Helvetica" font-size="18.75" lengthAdjust="spacing" textLength="145.9076" x="706.4219" y="623.0316">route-guide traffic</text></g><!--link gateway to vision_workers--><g class="link" data-entity-1="ent0006" data-entity-2="ent0008" data-link-type="dependency" data-source-line="33" id="lnk21"><path d="M590.5781,574.9688 C574.9063,590.2031 557.6094,607.0313 557.6094,607.0313 C557.6094,607.0313 544.3602,637.2586 532.7821,663.6493" fill="none" id="gateway-to-vision_workers" style="stroke:#334155;stroke-width:1.875;"/><polygon fill="#334155" points="529.0156,672.2344,540.3887,661.8677,532.1544,665.0801,528.9419,656.8457,529.0156,672.2344" style="stroke:#334155;stroke-width:1.875;"/><text fill="#334155" font-family="Helvetica" font-size="18.75" lengthAdjust="spacing" textLength="113.5712" x="559.1719" y="623.0316">camera traffic</text></g><!--link guide_workers to cache--><g class="link" data-entity-1="ent0007" data-entity-2="ent0009" data-link-type="dependency" data-source-line="34" id="lnk22"><path d="M736.9688,723.0938 C698.7969,742.4063 651.3594,766.4063 651.3594,766.4063 C651.3594,766.4063 651.3594,788.2813 651.3594,788.2813 C651.3594,788.2813 652.3855,831.4714 653.3074,870.0652" fill="none" id="guide_workers-to-cache" style="stroke:#334155;stroke-width:1.875;"/><polygon fill="#334155" points="653.5313,879.4375,659.4437,865.2298,653.3447,871.6272,646.9472,865.5283,653.5313,879.4375" style="stroke:#334155;stroke-width:1.875;"/><text fill="#334155" font-family="Helvetica" font-size="18.75" lengthAdjust="spacing" textLength="110.495" x="652.9219" y="782.4066">cache lookup</text></g><!--link guide_workers to vs--><g class="link" data-entity-1="ent0007" data-entity-2="ent0012" data-link-type="dependency" data-source-line="35" id="lnk23"><path d="M894.0156,720.9844 C928.4375,727.8125 957.6094,733.5938 957.6094,733.5938 C957.6094,733.5938 1688.8594,766.4063 1688.8594,766.4063 C1688.8594,766.4063 2029.4844,800.7813 2029.4844,800.7813 C2029.4844,800.7813 2029.4844,1025 2029.4844,1025 C2029.4844,1025 1948.9825,1059.738 1882.1544,1088.5818" fill="none" id="guide_workers-to-vs" style="stroke:#334155;stroke-width:1.875;"/><polygon fill="#334155" points="1873.5469,1092.2969,1888.9348,1092.4626,1880.7198,1089.201,1883.9814,1080.9859,1873.5469,1092.2969" style="stroke:#334155;stroke-width:1.875;"/><text fill="#334155" font-family="Helvetica" font-size="18.75" lengthAdjust="spacing" textLength="127.1393" x="2031.0469" y="926.1566">retrieve chunks</text></g><!--link vision_workers to serving--><g class="link" data-entity-1="ent0008" data-entity-2="ent0011" data-link-type="dependency" data-source-line="36" id="lnk24"><path d="M608.0938,723.2813 C679.8281,742.5625 768.5469,766.4063 768.5469,766.4063 C768.5469,766.4063 818.5469,788.2813 818.5469,788.2813 C818.5469,788.2813 1060.7344,800.7813 1060.7344,800.7813 C1060.7344,800.7813 1114.679,845.3411 1157.2102,880.4817" fill="none" id="vision_workers-to-serving" style="stroke:#334155;stroke-width:1.875;"/><polygon fill="#334155" points="1164.4375,886.4531,1157.5775,872.6779,1158.4148,881.477,1149.6157,882.3142,1164.4375,886.4531" style="stroke:#334155;stroke-width:1.875;"/><text fill="#334155" font-family="Helvetica" font-size="18.75" lengthAdjust="spacing" textLength="137.558" x="820.1094" y="782.4066">vision model call</text></g><!--link guide_workers to serving--><g class="link" data-entity-1="ent0007" data-entity-2="ent0011" data-link-type="dependency" data-source-line="37" id="lnk25"><path d="M894.0156,720.9844 C928.4375,727.8125 957.6094,733.5938 957.6094,733.5938 C957.6094,733.5938 1151.3594,766.4063 1151.3594,766.4063 C1151.3594,766.4063 1174.2559,832.4083 1189.8809,877.4552" fill="none" id="guide_workers-to-serving" style="stroke:#334155;stroke-width:1.875;"/><polygon fill="#334155" points="1192.9531,886.3125,1194.2496,870.9784,1190.3929,878.9314,1182.4399,875.0747,1192.9531,886.3125" style="stroke:#334155;stroke-width:1.875;"/><text fill="#334155" font-family="Helvetica" font-size="18.75" lengthAdjust="spacing" textLength="193.3411" x="1159.5" y="782.4066">LLM + embedding calls</text></g><!--link vs to uc--><g class="link" data-entity-1="ent0012" data-entity-2="ent0013" data-link-type="dependency" data-source-line="38" id="lnk26"><path d="M1757.9844,1157.4844 C1722.0469,1183.0938 1678.8681,1213.8547 1642.9462,1239.4641" fill="none" id="vs-to-uc" style="stroke:#334155;stroke-width:1.875;"/><polygon fill="#334155" points="1635.3125,1244.9063,1650.3912,1241.8321,1641.6739,1240.3711,1643.1349,1231.6538,1635.3125,1244.9063" style="stroke:#334155;stroke-width:1.875;"/><text fill="#334155" font-family="Helvetica" font-size="18.75" lengthAdjust="spacing" textLength="231.3812" x="1710.7656" y="1206.6254">indexed from curated tables</text></g><!--link jobs to wiki--><g class="link" data-entity-1="ent0014" data-entity-2="ent0016" data-link-type="dependency" data-source-line="39" id="lnk27"><path d="M1479.4375,946.3906 C1435.5781,976.625 1365.4219,1025 1365.4219,1025 C1365.4219,1025 1068.5469,1037.5 1068.5469,1037.5 C1068.5469,1037.5 673.2344,1092.1875 673.2344,1092.1875 C673.2344,1092.1875 672.8667,1092.2772 658.7885,1095.4335" fill="none" id="jobs-to-wiki" style="stroke:#334155;stroke-width:1.875;stroke-dasharray:10.9375,10.9375;"/><polygon fill="#334155" points="649.6406,1097.4844,664.7298,1100.5066,657.2639,1095.7753,661.9952,1088.3094,649.6406,1097.4844" style="stroke:#334155;stroke-width:1.875;"/><text fill="#334155" font-family="Helvetica" font-size="18.75" lengthAdjust="spacing" textLength="111.5204" x="1070.1094" y="1053.5004">source ingest</text></g><!--link jobs to geo--><g class="link" data-entity-1="ent0014" data-entity-2="ent0017" data-link-type="dependency" data-source-line="40" id="lnk28"><path d="M1479.4375,946.3906 C1435.5781,976.625 1365.4219,1025 1365.4219,1025 C1365.4219,1025 1136.2189,1067.3433 978.3595,1096.5151" fill="none" id="jobs-to-geo" style="stroke:#334155;stroke-width:1.875;stroke-dasharray:10.9375,10.9375;"/><polygon fill="#334155" points="969.1406,1098.2188,984.1047,1101.8093,976.823,1096.7991,981.8332,1089.5174,969.1406,1098.2188" style="stroke:#334155;stroke-width:1.875;"/><text fill="#334155" font-family="Helvetica" font-size="18.75" lengthAdjust="spacing" textLength="147.995" x="1289.6563" y="1053.5004">enrichment ingest</text></g><!--link jobs to uc--><g class="link" data-entity-1="ent0014" data-entity-2="ent0013" data-link-type="dependency" data-source-line="41" id="lnk29"><path d="M1516.2344,946.5 C1522.2031,1006.2813 1537.2969,1157.8125 1537.2969,1157.8125 C1537.2969,1157.8125 1557.479,1201.3226 1573.6821,1236.2757" fill="none" id="jobs-to-uc" style="stroke:#334155;stroke-width:1.875;"/><polygon fill="#334155" points="1577.625,1244.7813,1577.381,1229.3943,1574.3393,1237.6933,1566.0403,1234.6515,1577.625,1244.7813" style="stroke:#334155;stroke-width:1.875;"/><text fill="#334155" font-family="Helvetica" font-size="18.75" lengthAdjust="spacing" textLength="162.5793" x="1538.8594" y="1130.0629">curated table writes</text></g><!--link jobs to vs--><g class="link" data-entity-1="ent0014" data-entity-2="ent0012" data-link-type="dependency" data-source-line="42" id="lnk30"><path d="M1547.9688,946.4844 C1600.0313,982.8281 1691.6423,1046.8035 1749.2673,1087.0535" fill="none" id="jobs-to-vs" style="stroke:#334155;stroke-width:1.875;"/><polygon fill="#334155" points="1756.9531,1092.4219,1749.0034,1079.2455,1750.5483,1087.9482,1741.8455,1089.4932,1756.9531,1092.4219" style="stroke:#334155;stroke-width:1.875;"/><text fill="#334155" font-family="Helvetica" font-size="18.75" lengthAdjust="spacing" textLength="125.061" x="1709.9375" y="1053.5004">reindex refresh</text></g><!--link guide_workers to mlflow--><g class="link" data-entity-1="ent0007" data-entity-2="ent0015" data-link-type="dependency" data-source-line="43" id="lnk31"><path d="M894.0156,720.9844 C928.4375,727.8125 957.6094,733.5938 957.6094,733.5938 C957.6094,733.5938 1363.8594,766.4063 1363.8594,766.4063 C1363.8594,766.4063 1662.2969,800.7813 1662.2969,800.7813 C1662.2969,800.7813 1746.8413,855.6898 1800.2632,890.3929" fill="none" id="guide_workers-to-mlflow" style="stroke:#334155;stroke-width:1.875;"/><polygon fill="#334155" points="1808.125,895.5,1799.737,882.5982,1801.5735,891.2441,1792.9275,893.0806,1808.125,895.5" style="stroke:#334155;stroke-width:1.875;"/><text fill="#334155" font-family="Helvetica" font-size="18.75" lengthAdjust="spacing" textLength="126.6266" x="1550.1563" y="782.4066">traces + quality</text></g><!--link vision_workers to mlflow--><g class="link" data-entity-1="ent0008" data-entity-2="ent0015" data-link-type="dependency" data-source-line="44" id="lnk32"><path d="M611.5156,723.2813 C633.8281,729.0625 651.3594,733.5938 651.3594,733.5938 C651.3594,733.5938 963.8594,766.4063 963.8594,766.4063 C963.8594,766.4063 1007.6094,788.2813 1007.6094,788.2813 C1007.6094,788.2813 1662.2969,800.7813 1662.2969,800.7813 C1662.2969,800.7813 1746.8413,855.6898 1800.2632,890.3929" fill="none" id="vision_workers-to-mlflow" style="stroke:#334155;stroke-width:1.875;"/><polygon fill="#334155" points="1808.125,895.5,1799.737,882.5982,1801.5735,891.2441,1792.9275,893.0806,1808.125,895.5" style="stroke:#334155;stroke-width:1.875;"/><text fill="#334155" font-family="Helvetica" font-size="18.75" lengthAdjust="spacing" textLength="130.2521" x="1009.1719" y="782.4066">vision telemetry</text></g><!--link edge to GMN33--><g class="link" data-entity-1="ent0005" data-entity-2="ent0034" data-link-type="association" data-source-line="47" id="lnk35"><path d="M943.875,559.1221 C944.1637,559.3099 944.4568,559.5005 944.7541,559.6938 C945.3486,560.0805 945.9601,560.4781 946.5878,560.8864 C947.8434,561.703 949.1644,562.5621 950.5469,563.4612 C961.6064,570.6538 976.5977,580.4033 993.4648,591.373 C1027.1992,613.3125 1068.4375,640.1328 1100.7344,661.1406" fill="none" id="edge-GMN33" style="stroke:#334155;stroke-width:1.875;stroke-dasharray:10.9375,10.9375;"/></g><!--link dbx to GMN36--><g class="link" data-entity-1="ent0010" data-entity-2="ent0037" data-link-type="association" data-source-line="51" id="lnk38"><path d="M1006.0244,935.2776 C1005.8906,935.4124 1005.756,935.548 1005.6206,935.6845 C1005.3497,935.9574 1005.0755,936.2338 1004.7981,936.5133 C1003.6884,937.6316 1002.527,938.802 1001.3198,940.0186 C991.6621,949.751 979.0723,962.4375 966.5781,975.0273 C941.5898,1000.207 916.9844,1025 916.9844,1025 C916.9844,1025 476.3594,1037.5 476.3594,1037.5 C476.3594,1037.5 359.7344,1072.5469 275.4375,1097.8906" fill="none" id="dbx-GMN36" style="stroke:#334155;stroke-width:1.875;stroke-dasharray:10.9375,10.9375;"/></g><g class="legend" data-source-line="54"><rect fill="none" height="125" rx="9.375" ry="9.375" style="stroke:#000000;stroke-width:1.5625;" width="529.4205" x="809.6953" y="1373.4375"/><text fill="#000000" font-family="Helvetica" font-size="21.875" lengthAdjust="spacing" textLength="283.9157" x="817.5078" y="1398.0942">N = autoscaled worker count.</text><text fill="#000000" font-family="Helvetica" font-size="21.875" lengthAdjust="spacing" textLength="513.7955" x="817.5078" y="1419.9692">Dashed arrows = scheduled ingestion dependencies.</text><text fill="#000000" font-family="Helvetica" font-size="21.875" lengthAdjust="spacing" textLength="297.9507" x="817.5078" y="1441.8442">Blue/green: edge serving path.</text><text fill="#000000" font-family="Helvetica" font-size="21.875" lengthAdjust="spacing" textLength="241.9495" x="817.5078" y="1463.7192">Purple: persistent stores.</text><text fill="#000000" font-family="Helvetica" font-size="21.875" lengthAdjust="spacing" textLength="384.7992" x="817.5078" y="1485.5942">Yellow: platform serving + observability.</text></g><?plantuml-src RLNRRXit47tdLqpb5nU9fG9f6sI11B2qKY-m7QDkdHOm453aQCMAIp8aLx8Q1EX7z0lx9HroTtMhNYIIS-P-PlOhPOHk9C97OUlQcg5hQisYYXhX-cu2lt9VOOHhv-3Vl_-1oRTGejDsMwE9yAXmmrYq3gA5kOtHrY2LHn6LDOnn4Qs7mKoXbe3FfERH3u07Q09wnXmNAruX32PQ9NDHTMA9QoKGFZE0P8oRYg8Pf73K-mVWpcMKie6ES56EfzUpAVjoO70gwTSt9geQuVBw_gTi--kiXabsQfeG5O-uuLiOWRPSmfnhRaGNK2-x6C_ACVawKlwXKLI_P69Z_GfzWCkxrbML91_xrxFAZofGhSvghxFeG7qyUrr-G-gIHpxdWRGVbjoZ1C754f_C9PrL68LFMaK4Ad6gOcih8-1Y-gRyRZOxAbMPZ7abLY4744Y0RHFcpwTbkhKIDJmamwO2DD9PPM9uCkNubz_X1M0zHob95kZIXfzDXKxZOZQTlPgyFahX4JDB7f1xiMppfbpBilm-bseFlE4hpASH_6PKtCA4HDfMS7kpq7O3XDCOMdg9NQf7yVzivs7qWR9C2XGMrKGskklndoGajSbiCXcVfDqvy5Ipb0ObkkQQGWlBkULUjavhdL4fnpUJLwd6Gjj6mk23MYb7dU4KUJhNwPnLDdJhKUzT6XeoMw5DIOFpTatqyQrrUcKiZGrSNRthgL-GP4NX2EvYuv5rpmdHCxQ04NTgb9b8o7nfEyDwI8OVCRK0Rvk8LwqMvRrOA764F-5cGI7KwFaUUsGlQRGCBBf_RUsgSMTWw-mTerUuHX3Bngm2E_6MS3sbYYuKg3Ct1TVwZDKz-kRczf2eMO4Sj33YJG7AI7oceLfuscQYyPIrxCZ5CaU6mtUvSuGDjl6qgCWGXhYNKhD8Y8R6QfaNvI5Wv-Z8Dcmy3MtOGxf2v6ZeV-4nBCzarh6koEp4D7UV6axplprNj1sugrb4ZJNLUikOiRGokXLk5tb9iX-jLtzPGrD6ey8fHXwXtwMmv4PIIM3U-12tJwQsSwLtP87DCjqEbajg0S5pcqPTWybm2Y_jsp1aj4yWXV6_O6WJiNlDuyBwkdLkDoR0taY8LCYN7GMwNhzyCXJXRiPbtYHz8G-TQQpIfNN7xk0jy2RQdB3iTZ88Iz-I8IjfukcHUv_Mnzi3uss3KqqbEZA7HYYadCQwmL7b4KtHVdXw9ZeUAOhxnZkD1JZga0enKINGDaoQVw2cNf6eJxpNV0544JfpgZVrEQVIvi3-0m00?></g></svg>